<?xml version="1.0" standalone="no"?>
<!DOCTYPE svg PUBLIC "-//W3C//DTD SVG 1.1//EN" "http://www.w3.org/Graphics/SVG/1.1/DTD/svg11.dtd" >
<svg xmlns="http://www.w3.org/2000/svg" xmlns:xlink="http://www.w3.org/1999/xlink" version="1.1">
<metadata>
Created by FontForge 20170731 at Fri Jan  1 02:30:17 1904
 By Aleksey,,,
Copyright (c) 1992 Corel Corporation. All Rights Reserved.
</metadata>
<defs>
<font id="FuturaLtCn-Italic" horiz-adv-x="1434" >
  <font-face 
    font-family="Futura LtCn BT"
    font-weight="400"
    font-style="italic"
    font-stretch="condensed"
    units-per-em="4096"
    panose-1="2 11 4 6 2 2 4 10 2 4"
    ascent="3276"
    descent="-820"
    x-height="2105"
    cap-height="3088"
    bbox="-217 -905 4338 4071"
    underline-thickness="50"
    underline-position="-175"
    slope="1"
    unicode-range="U+0020-F002"
  />
<missing-glyph horiz-adv-x="3072" 
d="M512 0v2560h2048v-2560h-2048zM2494 66v2428h-1916v-2428h1916z" />
    <glyph glyph-name=".notdef" horiz-adv-x="3072" 
d="M512 0v2560h2048v-2560h-2048zM2494 66v2428h-1916v-2428h1916z" />
    <glyph glyph-name=".null" horiz-adv-x="0" 
 />
    <glyph glyph-name="nonmarkingreturn" horiz-adv-x="0" 
 />
    <glyph glyph-name="space" unicode=" " horiz-adv-x="848" 
 />
    <glyph glyph-name="exclam" unicode="!" horiz-adv-x="1409" 
d="M520 168q18 105 90.5 161t151.5 56q76 0 128 -54.5t52 -154.5q-10 -76 -80.5 -142.5t-165.5 -66.5q-78 0 -128 50t-56 118q8 17 8 33zM1049 3088h278l-369 -2314h-270z" />
    <glyph glyph-name="quotedbl" unicode="&#x22;" horiz-adv-x="1266" 
d="M606 2167l115 921h303l-176 -921h-242zM1110 2167l115 921h303l-176 -921h-242z" />
    <glyph glyph-name="numbersign" unicode="#" horiz-adv-x="1704" 
d="M-49 0l487 1057h-430l103 237h442l238 512h-447l102 242h451l487 1040h234l-492 -1040h361l479 1040h234l-488 -1040h455l-103 -242h-454l-242 -512h455l-94 -237h-472l-495 -1057h-225l495 1057h-360l-496 -1057h-225zM782 1294h361l233 512h-360z" />
    <glyph glyph-name="dollar" unicode="$" horiz-adv-x="1704" 
d="M1274 3449h196l-53 -361q129 -6 258.5 -54t229.5 -130l-185 -217q-40 34 -145 86t-256 57q-135 0 -257.5 -65.5t-202 -181t-89.5 -256.5q0 -170 49.5 -281.5t144 -191.5t269.5 -183q157 -98 258 -188t161 -216t60 -300q0 -227 -97.5 -433t-276.5 -347t-408 -179l-66 -393
h-200l65 385q-345 44 -520 262l209 201q124 -108 214.5 -154.5t207.5 -46.5q162 4 297.5 93.5t216 234t80.5 307.5q0 302 -369 520q-186 109 -312 213t-202 236.5t-80 300.5q16 98 16 139q44 281 216.5 496.5t513.5 277.5z" />
    <glyph glyph-name="percent" unicode="%" horiz-adv-x="2134" 
d="M1057 2359q33 237 33 344q0 275 -148 275q-71 0 -122.5 -68.5t-83 -166t-50.5 -195.5t-31 -164q-35 -198 -49 -410q13 -270 156 -270q128 17 185.5 190.5t109.5 464.5zM471 2392q67 353 178 542t301 195q316 0 316 -426q0 -43 -3.5 -82t-9 -89.5t-12.5 -114.5
q-28 -185 -45.5 -277.5t-69.5 -236.5t-147 -247.5t-234 -103.5q-313 0 -319 430q6 187 45 410zM2167 3088h131l-1827 -3088h-143zM1982 774q33 254 33 336q0 274 -151 274q-85 -4 -143 -102t-89.5 -224.5t-62.5 -312.5q-30 -199 -41 -368q14 -266 143 -266
q140 5 205.5 201.5t105.5 461.5zM1417 831q40 244 102.5 399t153 232t215.5 82q166 0 230.5 -110.5t64.5 -323.5q0 -82 -16 -254q-62 -453 -185.5 -675t-351.5 -222q-258 11 -270 410q15 238 57 462z" />
    <glyph glyph-name="ampersand" unicode="&#x26;" horiz-adv-x="2167" 
d="M1257 1864q214 145 345.5 316.5t150.5 313.5q0 336 -250 336q-187 0 -269.5 -133.5t-115.5 -345.5q11 -222 139 -487zM1974 881l168 -185l-327 -319l131 -377h-299l-62 168q-106 -89 -258 -145t-311 -56q-234 0 -400 144t-198 458q-8 74 -8 103q0 203 87 393.5t224 346.5
t295 276q-160 466 -168 688q8 41 8 102q36 189 147 327t263.5 210.5t302.5 72.5q130 0 237.5 -54t170.5 -163t63 -262q0 -165 -76 -317.5t-187 -273.5t-248 -231.5t-186 -148.5l377 -1024zM1511 401l-405 1041q-414 -389 -426 -737q27 -155 63 -253.5t117.5 -167
t220.5 -75.5q209 13 430 192z" />
    <glyph glyph-name="quotesingle" unicode="'" horiz-adv-x="922" 
d="M1241 2998l-561 -917l-184 94l471 963z" />
    <glyph glyph-name="parenleft" unicode="(" horiz-adv-x="1233" 
d="M1585 3047q-213 -276 -363 -557t-242.5 -553t-135 -530.5t-45.5 -501.5q4 -243 40.5 -462t97 -402.5t128.5 -310.5l-225 -90q-259 528 -271 1232q16 1196 824 2266z" />
    <glyph glyph-name="parenright" unicode=")" horiz-adv-x="1233" 
d="M82 -270q774 993 774 2134q0 238 -33.5 456.5t-88.5 396.5t-128 330l225 91q118 -258 192.5 -575.5t74.5 -682.5q0 -261 -44 -530.5t-139 -549t-255.5 -574t-389.5 -586.5z" />
    <glyph glyph-name="asterisk" unicode="*" horiz-adv-x="1696" 
d="M1159 2474l98 614h160l-98 -614l627 188l20 -151l-614 -193l278 -503l-143 -95l-287 496l-438 -496l-123 95l442 503l-553 193l70 151z" />
    <glyph glyph-name="plus" unicode="+" horiz-adv-x="1815" 
d="M958 942h-716l28 209h721l135 905h217l-143 -905h721l-33 -209h-721l-143 -893h-209z" />
    <glyph glyph-name="comma" unicode="," horiz-adv-x="848" 
d="M729 258l-553 -913l-184 86l463 954z" />
    <glyph glyph-name="hyphen" unicode="-" horiz-adv-x="639" 
d="M184 1143l49 327h639l-57 -327h-631z" />
    <glyph glyph-name="period" unicode="." horiz-adv-x="848" 
d="M479 385q83 0 134 -52t51 -140q0 -87 -78 -156.5t-168 -69.5q-75 0 -122.5 45.5t-53.5 114.5q25 85 46.5 136t67 86.5t123.5 35.5z" />
    <glyph glyph-name="slash" unicode="/" horiz-adv-x="1905" 
d="M2503 3281l-2417 -4088l-45 -82h-258l2425 4088l49 82h246z" />
    <glyph glyph-name="zero" unicode="0" horiz-adv-x="1704" 
d="M1528 1688q57 370 57 647q0 283 -69.5 405.5t-212.5 122.5q-249 0 -381.5 -325t-208.5 -834q-20 -122 -45.5 -277t-45.5 -319.5t-24 -337.5q15 -545 283 -545q156 0 265.5 133t179.5 345.5t111 432t91 552.5zM430 1737q222 1369 897 1392q545 0 545 -811q0 -233 -57 -630
q-83 -507 -176.5 -858.5t-275 -601t-474.5 -269.5q-215 0 -339 104.5t-175 279.5t-56 411q4 159 22 322t50 384.5t39 276.5z" />
    <glyph glyph-name="one" unicode="1" horiz-adv-x="1704" 
d="M1528 3088l-488 -3088h-278l446 2822h-409l106 266h623z" />
    <glyph glyph-name="two" unicode="2" horiz-adv-x="1704" 
d="M168 0l1081 1663q344 538 344 889q0 139 -58.5 219t-166.5 92q-231 0 -351 -149.5t-161 -464.5h-278q51 421 250.5 650.5t482.5 229.5q158 0 285.5 -61t201.5 -179.5t74 -279.5q0 -456 -430 -1122l-803 -1229h840l-37 -258h-1274z" />
    <glyph glyph-name="three" unicode="3" horiz-adv-x="1704" 
d="M831 1823q66 2 196.5 9t229 50.5t174.5 156t105 304.5q16 148 16 209q0 308 -249 319q-184 0 -279.5 -124t-134.5 -380h-283q57 356 250 559t512 203q463 -11 463 -528q0 -285 -120.5 -551t-358.5 -338q286 -99 286 -561q0 -202 -41.5 -408.5t-132.5 -384.5
t-243.5 -288.5t-364.5 -110.5q-554 0 -569 545q13 197 49 344h270q-11 -81 -28 -279q7 -159 70 -248.5t224 -95.5q204 0 316.5 188.5t146.5 475.5q17 166 17 209q0 211 -72.5 312.5t-186 126t-302.5 24.5z" />
    <glyph glyph-name="four" unicode="4" horiz-adv-x="1704" 
d="M1442 2634l-828 -1553h553l136 881q8 76 72.5 349.5t74.5 322.5h-8zM1487 3088h274l-319 -2007h229l-41 -250h-229l-127 -831h-283l127 831h-815l49 295z" />
    <glyph glyph-name="five" unicode="5" horiz-adv-x="1704" 
d="M950 3088h922l-41 -249h-688l-262 -967q122 16 184 16q265 0 419 -182.5t154 -529.5q0 -210 -54 -426t-165.5 -397.5t-283.5 -291.5t-398 -110q-247 0 -495 176l127 291q176 -171 413 -185q290 12 434 289.5t144 595.5q0 238 -109.5 369t-312.5 131q-186 0 -426 -123z
" />
    <glyph glyph-name="six" unicode="6" horiz-adv-x="1704" 
d="M1417 3088h295l-831 -1433l8 -17q159 115 319 115q159 0 255.5 -95t135.5 -238t39 -302q0 -196 -41 -394.5t-132.5 -373t-246 -283t-370.5 -108.5q-184 0 -300.5 84.5t-170 227.5t-58.5 327q45 661 443 1348zM1360 958v148q0 397 -270 397q-329 0 -443 -545
q-26 -111 -41 -311q6 -192 78 -311t205 -119q389 0 471 741z" />
    <glyph glyph-name="seven" unicode="7" horiz-adv-x="1704" 
d="M721 3088h1270l-1438 -3088h-303l1327 2839h-889z" />
    <glyph glyph-name="eight" unicode="8" horiz-adv-x="1704" 
d="M1577 2433v102q0 193 -69.5 260.5t-188.5 67.5q-161 0 -248 -108.5t-118 -250.5t-48 -329q16 -318 238 -328q211 0 311.5 173.5t122.5 412.5zM1368 905q25 134 25 246q0 215 -83.5 324.5t-211.5 109.5q-210 -11 -313.5 -193t-161.5 -470q-2 -21 -12 -98t-13 -110t-4 -67
q3 -187 70 -304.5t208 -117.5q104 0 194 49.5t170 198.5t132 432zM856 1712q-215 130 -233 479q38 383 219 660.5t542 277.5q172 0 279 -75.5t154 -201.5t47 -284q0 -272 -108.5 -504t-330.5 -352q238 -154 238 -520q0 -287 -81.5 -568t-266 -471t-475.5 -194
q-263 0 -397 163.5t-140 455.5q34 412 149.5 714t403.5 420z" />
    <glyph glyph-name="nine" unicode="9" horiz-adv-x="1704" 
d="M1561 2208q16 164 16 225q0 213 -76 325.5t-215 112.5q-185 -11 -285 -155t-134 -324t-52 -418q10 -381 291 -381q101 0 191 66.5t158.5 203.5t105.5 345zM471 0l832 1442l-9 8q-151 -102 -327 -115q-189 0 -306.5 164t-123.5 467q30 476 206.5 816t583.5 356
q176 0 297 -76.5t180.5 -220.5t59.5 -347q0 -234 -63 -477.5t-166.5 -473t-241.5 -462.5l-619 -1081h-303z" />
    <glyph glyph-name="colon" unicode=":" horiz-adv-x="848" 
d="M479 385q87 0 136 -50t49 -134q0 -93 -75.5 -163.5t-170.5 -70.5q-71 0 -120.5 47.5t-55.5 120.5q8 17 8 41q15 88 79.5 145.5t149.5 63.5zM762 2134q78 0 127 -47.5t49 -124.5q0 -92 -74 -167t-168 -75q-74 0 -126 46.5t-58 121.5q8 17 8 41q19 94 85.5 148t156.5 57z
" />
    <glyph glyph-name="semicolon" unicode=";" horiz-adv-x="848" 
d="M688 258l-561 -913l-184 86l475 954zM762 2134q79 0 129.5 -49t50.5 -131q0 -95 -78.5 -164.5t-175.5 -69.5q-66 0 -114 49t-54 119q30 61 56.5 114.5t68.5 89.5t117 42z" />
    <glyph glyph-name="less" unicode="&#x3c;" horiz-adv-x="1815" 
d="M242 958l20 177l1811 962l-41 -225l-1561 -799v-24l1307 -824l-41 -233z" />
    <glyph glyph-name="equal" unicode="=" horiz-adv-x="1815" 
d="M1974 1520l-28 -209h-1651l33 209h1646zM1864 791l-33 -205h-1655l41 205h1647z" />
    <glyph glyph-name="greater" unicode="&#x3e;" horiz-adv-x="1815" 
d="M1921 1135l-33 -185l-1802 -958l33 233l1560 799v25l-1294 823l33 225z" />
    <glyph glyph-name="question" unicode="?" horiz-adv-x="1786" 
d="M897 1769h152q180 0 265.5 56t115 153t81.5 365q41 236 41 299q0 237 -209 237q-244 -9 -319 -430l-16 -143h-271l25 143q36 234 105 378.5t208 223t367 78.5q189 0 285 -110.5t96 -356.5q0 -199 -33.5 -392.5t-111.5 -359.5t-217.5 -273.5t-342.5 -116.5l-110 -746h-271
zM578 176q15 93 83 151t154 58q91 0 137.5 -58t46.5 -143q-15 -78 -79 -147.5t-166 -69.5q-80 0 -128 57.5t-48 151.5z" />
    <glyph glyph-name="at" unicode="@" horiz-adv-x="3281" 
d="M3097 1401q184 320 184 614q0 201 -85 368.5t-232 283.5t-343 181.5t-413 71.5q-223 0 -478.5 -84t-495.5 -250t-419 -406.5t-254 -541.5q-38 -172 -49 -335q4 -335 167.5 -591t437.5 -396t595 -140q398 0 748.5 166.5t562.5 402.5h225q-131 -180 -304 -326.5
t-378.5 -249.5t-430.5 -156.5t-456 -53.5q-275 0 -524.5 89t-441 256.5t-303.5 411t-115 541.5q17 204 33 295q62 367 283.5 712t607 583.5t903.5 281.5q45 4 127 4q361 0 647.5 -149t446 -405t159.5 -564q0 -160 -37 -311q-72 -255 -209.5 -461t-311 -350.5t-347 -218
t-316.5 -76.5q-266 13 -290 225q-86 -79 -257 -145t-333 -72q-393 15 -463 369q0 33 -16 115q6 234 104 483.5t269.5 459t397 335.5t474.5 126q344 0 450 -278l86 201h234l-520 -1033q-52 -110 -111 -229t-80.5 -171.5t-25.5 -94.5q11 -78 118 -90q180 0 391 149.5
t388 452.5zM2400 1769q49 104 49 213q0 144 -87.5 230t-227.5 86q-154 0 -339 -108t-370 -359q-89 -117 -179 -309.5t-95 -362.5q25 -336 344 -360q180 6 352.5 112.5t266.5 296.5z" />
    <glyph glyph-name="A" unicode="A" horiz-adv-x="1495" 
d="M1368 3088l127 -3088h-303l-16 631h-656l-217 -631h-303l1098 3088h270zM606 889h561l-16 1024q0 49 -8 86q2 65 17.5 329t15.5 375h-17q-91 -301 -183.5 -604t-185 -605.5t-184.5 -604.5z" />
    <glyph glyph-name="B" unicode="B" horiz-adv-x="1630" 
d="M737 3088h504q274 0 409.5 -119.5t135.5 -400.5q0 -148 -27.5 -290.5t-89 -274t-157.5 -234.5t-230 -167q155 -56 245.5 -163t90.5 -349q0 -123 -8 -185q-47 -330 -147 -525t-296.5 -287.5t-527.5 -92.5h-389zM983 2847l-176 -1118h192q228 0 321.5 148t141.5 433
q2 20 13.5 110.5t11.5 139.5q0 152 -80 219.5t-297 67.5h-127zM770 1479l-192 -1229h86q209 0 338 55t203.5 195t105.5 397q0 26 4 78t4 82q0 222 -102.5 322t-360.5 100h-86z" />
    <glyph glyph-name="C" unicode="C" horiz-adv-x="1503" 
d="M1442 377l-49 -291q-224 -127 -435 -127q-182 0 -322 105t-217.5 291.5t-82.5 426.5q0 236 27 489t81.5 505.5t133 476.5t176.5 393q147 255 346.5 369t402.5 114q241 0 361 -98l-58 -311q-121 127 -327 127q-245 0 -422 -213q-79 -99 -155.5 -292t-136 -432.5
t-95.5 -495.5t-39 -484q11 -107 26 -233.5t51 -226.5t113.5 -165t210.5 -72q214 13 410 144z" />
    <glyph glyph-name="D" unicode="D" horiz-adv-x="1688" 
d="M737 3088h406q257 0 411 -80t223.5 -254.5t69.5 -463.5q0 -177 -18.5 -370t-49 -374t-75.5 -379q-61 -277 -114.5 -454.5t-163 -344t-303 -267.5t-492.5 -101h-381zM975 2830l-397 -2568h61q181 0 305 47.5t213 159.5t156.5 307.5t128.5 517.5q26 155 45 273t36 246.5
t27.5 255t10.5 249.5q0 248 -96 380t-375 132h-115z" />
    <glyph glyph-name="E" unicode="E" horiz-adv-x="1384" 
d="M1704 3088l-41 -258h-688l-168 -1093h663l-36 -267h-664l-192 -1208h679l-40 -262h-967l487 3088h967z" />
    <glyph glyph-name="F" unicode="F" horiz-adv-x="1409" 
d="M1720 3088l-41 -258h-704l-168 -1093h663l-36 -267h-664l-233 -1470h-287l487 3088h983z" />
    <glyph glyph-name="G" unicode="G" horiz-adv-x="1688" 
d="M1090 1630h704l-98 -590q-41 -276 -103 -474t-151.5 -326t-220 -197.5t-316.5 -83.5q-330 0 -458.5 189t-135.5 532q4 128 18.5 264t33 269.5t38.5 289.5q42 288 97 539t165.5 505.5t291 418t438.5 163.5q261 -6 387.5 -142.5t156.5 -434.5l-307 -111q0 191 -66 302.5
t-204 111.5q-351 0 -537 -647q-41 -174 -71.5 -344.5t-56 -372.5t-47.5 -422.5t-34 -331.5q8 -254 84.5 -374.5t268.5 -120.5q148 10 230.5 102t124.5 247.5t87 440.5l53 336h-413z" />
    <glyph glyph-name="H" unicode="H" horiz-adv-x="1778" 
d="M2015 3088l-487 -3088h-287l254 1593h-713l-245 -1593h-287l487 3088h287l-193 -1233h705l193 1233h286z" />
    <glyph glyph-name="I" unicode="I" horiz-adv-x="774" 
d="M1024 3088l-487 -3088h-287l487 3088h287z" />
    <glyph glyph-name="J" unicode="J" horiz-adv-x="1073" 
d="M1032 3088h287l-406 -2568q-35 -214 -90 -327t-133.5 -160.5t-202.5 -65.5h-110q-202 0 -320 74l45 295q125 -132 267 -143q94 6 162.5 78.5t82.5 207.5z" />
    <glyph glyph-name="K" unicode="K" horiz-adv-x="1511" 
d="M1962 3088l-922 -1470l439 -1618h-328l-369 1561h-8l-237 -1561h-287l487 3088h287l-225 -1400h8l831 1400h324z" />
    <glyph glyph-name="L" unicode="L" horiz-adv-x="1208" 
d="M1024 3088l-446 -2826h671l-41 -262h-958l487 3088h287z" />
    <glyph glyph-name="M" unicode="M" horiz-adv-x="2306" 
d="M1016 3088h250l-25 -2609h8q42 204 134 511t182.5 579.5t265 788t242.5 730.5h245l-110 -3088h-279q14 205 45 721.5t51 859.5t37 574t35 413h-16q-43 -210 -132.5 -501.5t-217 -671.5t-251.5 -752t-206 -643h-234l25 2568h-8q-36 -229 -110 -523.5t-196.5 -720.5
t-209.5 -728t-164 -596h-283z" />
    <glyph glyph-name="N" unicode="N" horiz-adv-x="1786" 
d="M1778 3088h245l-487 -3088h-254q-34 213 -104.5 588t-143.5 772t-115.5 683t-46.5 435h-16q-8 -127 -33.5 -358.5t-48.5 -350.5l-278 -1769h-246l487 3088h246q9 -53 105.5 -619.5t157 -912.5t104 -606.5t51.5 -326.5h8q23 323 45 487z" />
    <glyph glyph-name="O" unicode="O" horiz-adv-x="1823" 
d="M1638 1647q58 381 58 618q0 590 -336 590q-91 0 -173 -38.5t-169 -166t-168 -385t-145 -663.5q-5 -40 -30 -203.5t-41 -304.5t-20 -279q17 -573 336 -573q179 3 305.5 158t202 384t108 407t72.5 456zM360 1249q14 106 37 251t33 212q49 312 145.5 622.5t303 557
t530.5 246.5q573 0 573 -848q0 -481 -118 -1024q-71 -353 -186.5 -640.5t-312.5 -477t-476 -189.5q-304 11 -429 231t-132 609q18 314 32 450z" />
    <glyph glyph-name="P" unicode="P" horiz-adv-x="1462" 
d="M737 3088h406q368 0 505.5 -139.5t137.5 -396.5q0 -87 -17 -225q-45 -388 -203 -575t-331 -230t-379 -43h-86l-233 -1479h-287zM975 2830l-168 -1085h160q136 0 235 39t173 174.5t104 408.5v127q0 187 -87.5 261.5t-334.5 74.5h-82z" />
    <glyph glyph-name="Q" unicode="Q" horiz-adv-x="1823" 
d="M1417 2847q-218 0 -348.5 -145t-179.5 -294t-107 -393q-72 -313 -115.5 -673.5t-52.5 -620.5q9 -33 9 -90q30 -381 319 -398q109 11 217 62l-201 434l250 143l160 -327q74 159 129.5 372.5t88 393t32.5 200.5q10 84 31 231.5t34 274t13 256.5q0 541 -279 574zM401 1561
q65 373 150 663.5t201 491.5t276 310t373 112q581 0 581 -889q0 -298 -45 -586q-62 -360 -100.5 -547.5t-122.5 -431.5t-211 -422l168 -344l-246 -151l-143 299q-119 -107 -352 -107q-245 0 -421 157.5t-181 706.5q15 400 73 738z" />
    <glyph glyph-name="R" unicode="R" horiz-adv-x="1561" 
d="M737 3088h361q185 0 326 -28t251.5 -150.5t110.5 -374.5q0 -404 -179 -706t-550 -326l446 -1503h-303l-426 1511h-4l-233 -1511h-287zM975 2830l-168 -1085h115q192 0 299 52t162.5 173t86.5 348q17 140 17 193q0 192 -91.5 255.5t-289.5 63.5h-131z" />
    <glyph glyph-name="S" unicode="S" horiz-adv-x="1593" 
d="M225 119l62 368q79 -112 204.5 -179t262.5 -75q238 13 393.5 205.5t155.5 442.5q0 269 -213 446q-233 178 -348 278.5t-191 231t-80 305.5q16 164 33 250q53 234 179.5 401.5t296 251.5t347.5 84q278 0 467 -159l-57 -369q-180 246 -418 246q-136 0 -253.5 -71
t-190 -190.5t-84.5 -258.5q0 -54 -9 -95q7 -176 114 -310t386 -337q336 -243 336 -610q0 -184 -70 -366t-196 -329t-297 -234t-359 -87q-120 0 -252.5 38t-218.5 122z" />
    <glyph glyph-name="T" unicode="T" horiz-adv-x="1274" 
d="M1737 3088l-41 -258h-463l-451 -2830h-286l446 2830h-463l41 258h1217z" />
    <glyph glyph-name="U" unicode="U" horiz-adv-x="1761" 
d="M721 3088h287l-353 -2207q-16 -108 -32 -312q7 -165 67 -250.5t207 -85.5q163 0 253.5 67t140 211.5t93.5 426.5l345 2150h286l-336 -2138q-50 -331 -127 -540t-237 -330t-434 -121q-292 0 -419.5 124.5t-133.5 403.5q13 190 49 410z" />
    <glyph glyph-name="V" unicode="V" horiz-adv-x="1593" 
d="M1745 3088h287l-1110 -3088h-258l-136 3088h303q9 -444 14 -634t11 -437.5t11 -535t5 -490.5q0 -454 -16 -565h25q40 183 136.5 494.5t211 651.5t297 872t219.5 644z" />
    <glyph glyph-name="W" unicode="W" horiz-adv-x="2478" 
d="M561 3088h295q-6 -217 -17.5 -702.5t-17.5 -751t-15.5 -546.5t-23.5 -519h17q51 189 150 505t201 625.5t232 699t228 689.5h245l-40 -2519h16q47 191 132 476.5t190 617.5t263.5 824t192.5 601h287l-1032 -3088h-262q5 267 5.5 650.5t2.5 754t14 667.5t39 513h-25
q-29 -185 -111 -461t-200.5 -624.5t-263 -776.5t-232.5 -723h-262z" />
    <glyph glyph-name="X" unicode="X" horiz-adv-x="1647" 
d="M1737 3088h311l-815 -1519l328 -1569h-312l-209 1311h-16q-27 -90 -92.5 -234.5t-210 -432.5t-196.5 -390t-124 -254h-307l836 1569l-344 1519h303l209 -1302h12q41 119 110 269t169 346.5t184.5 360t163.5 326.5z" />
    <glyph glyph-name="Y" unicode="Y" horiz-adv-x="1610" 
d="M1712 3088h303l-839 -1736l-218 -1352h-286l217 1352l-320 1736h303l201 -1458h17q22 100 96.5 286t171.5 403.5t210 459t144 309.5z" />
    <glyph glyph-name="Z" unicode="Z" horiz-adv-x="1376" 
d="M1786 3088l-1315 -2826h778l-41 -262h-1126l1302 2830h-778l41 258h1139z" />
    <glyph glyph-name="bracketleft" unicode="[" horiz-adv-x="1233" 
d="M446 -471l570 3559h663l-24 -168h-438l-512 -3223h438l-25 -168h-672z" />
    <glyph glyph-name="backslash" unicode="\" horiz-adv-x="913" 
d="M881 0l-562 3281h242l549 -3281h-229z" />
    <glyph glyph-name="bracketright" unicode="]" horiz-adv-x="1233" 
d="M1192 3088l-561 -3559h-672l25 168h442l512 3223h-442l32 168h664z" />
    <glyph glyph-name="asciicircum" unicode="^" horiz-adv-x="1815" 
d="M1311 3088h168l290 -1679h-192l-225 1376h-9l-655 -1376h-201z" />
    <glyph glyph-name="underscore" unicode="_" horiz-adv-x="2048" 
d="M1929 -770h-2048l45 315h2048z" />
    <glyph glyph-name="grave" unicode="`" horiz-adv-x="1143" 
d="M942 2953l361 -553l-185 -127l-463 480z" />
    <glyph glyph-name="a" unicode="a" 
d="M1184 1151q41 231 41 401q0 369 -217 369q-174 -5 -277.5 -213t-144.5 -500q-5 -37 -28.5 -197t-36.5 -268t-17 -206q7 -171 57.5 -262t175.5 -91q143 11 224 120t123.5 294.5t99.5 552.5zM1286 1962l25 143h266l-328 -2105h-274l33 160h-9q-91 -114 -193.5 -153.5
t-236.5 -39.5q-169 6 -245.5 118.5t-90.5 344.5q0 186 40 482.5t63 398.5q58 272 128 444t195 272.5t324 106.5q203 0 299 -172h4z" />
    <glyph glyph-name="b" unicode="b" 
d="M705 3281h262l-205 -1319h8q135 172 348 172q410 0 410 -549q0 -44 -3 -80.5t-9.5 -94.5t-12.5 -124q-49 -387 -117.5 -665t-210.5 -466t-376 -188q-210 0 -320 193h-8l-25 -160h-262zM614 1200q-17 -114 -32.5 -212t-28 -203t-16.5 -207q15 -373 217 -394
q110 0 187.5 88.5t124.5 217t76 272.5t42 213q65 347 65 553q0 351 -159 385q-187 0 -305 -164.5t-171 -548.5z" />
    <glyph glyph-name="c" unicode="c" horiz-adv-x="1135" 
d="M1303 1745q-103 127 -238 127q-100 0 -196.5 -86t-170 -248t-112.5 -387q-32 -160 -49 -438q0 -240 70 -365t184 -131q165 12 299 193h8l-58 -336q-146 -107 -327 -107q-196 0 -324 167.5t-131 537.5q7 248 37 438q49 294 160.5 528t270 365t339.5 131q159 0 287 -78z
" />
    <glyph glyph-name="d" unicode="d" 
d="M1769 3281l-520 -3281h-266l25 160h-9q-170 -193 -376 -193q-207 0 -294.5 147t-95.5 414q8 218 95 746q38 226 113 418.5t210 317t332 124.5q215 0 299 -172h4l209 1319h274zM1192 1200q33 245 33 328q0 385 -217 385h-50q-175 -49 -259 -287t-146 -643
q-2 -22 -23 -171.5t-26 -250.5q7 -180 62.5 -278.5t195.5 -98.5q118 10 195.5 119.5t119.5 258.5t68.5 322.5t46.5 315.5z" />
    <glyph glyph-name="e" unicode="e" horiz-adv-x="1409" 
d="M1106 713h278q-57 -294 -218.5 -520t-420.5 -226q-481 0 -487 664q7 250 37 450q35 231 125 470.5t251.5 411t385.5 171.5q430 0 430 -655q0 -223 -45 -480h-889q-18 -136 -33 -360q14 -412 225 -422q280 0 361 496zM1200 1225q25 174 25 303q0 360 -217 360
q-150 -6 -259 -204.5t-155 -458.5h606z" />
    <glyph glyph-name="f" unicode="f" horiz-adv-x="848" 
d="M561 2105l103 656q46 292 174 422.5t288 130.5q109 0 242 -49l-49 -287q-86 86 -184 86q-70 0 -122.5 -63t-74.5 -199l-115 -697h353l-41 -250h-353l-295 -1855h-262l295 1855h-225l33 250h233z" />
    <glyph glyph-name="g" unicode="g" horiz-adv-x="1450" 
d="M152 -176h266q-7 -49 -25 -160q11 -250 238 -250q146 6 220.5 80.5t106.5 280.5l58 368q-143 -143 -344 -143q-235 0 -329 162.5t-101 431.5q5 103 23 258.5t22 212.5q68 412 221.5 736.5t466.5 332.5q239 0 328 -172h8l24 143h267l-361 -2281q-56 -350 -208 -507
t-447 -157q-456 0 -467 430q17 156 33 234zM1032 1921q-119 0 -200.5 -86t-130 -212t-79.5 -272t-53 -253q-50 -308 -57 -475q15 -406 258 -406q127 4 206 107t122.5 266.5t77.5 392.5q65 412 65 553q0 364 -209 385z" />
    <glyph glyph-name="h" unicode="h" horiz-adv-x="1454" 
d="M705 3281h262l-205 -1344q192 193 438 193q161 0 244.5 -92t83.5 -260q0 -80 -17 -242l-237 -1536h-266l233 1520q16 146 16 184q0 124 -44.5 170.5t-155.5 46.5q-299 -13 -377 -467l-234 -1454h-262z" />
    <glyph glyph-name="i" unicode="i" horiz-adv-x="631" 
d="M782 2105l-327 -2105h-271l328 2105h270zM774 2920q74 0 121 -45t47 -122q0 -90 -66 -158t-155 -68q-76 0 -122 53t-46 148q12 76 78 134t143 58z" />
    <glyph glyph-name="j" unicode="j" horiz-adv-x="631" 
d="M782 2105l-454 -2879h-262l446 2879h270zM774 2920q74 0 121 -45t47 -122q0 -90 -66 -158t-155 -68q-76 0 -122 53t-46 148q12 76 78 134t143 58z" />
    <glyph glyph-name="k" unicode="k" horiz-adv-x="1442" 
d="M967 3281l-320 -2032h8l648 856h307l-779 -946l611 -1159h-336l-492 1008h-8l-160 -1008h-262l521 3281h262z" />
    <glyph glyph-name="l" unicode="l" horiz-adv-x="631" 
d="M967 3281l-521 -3281h-262l521 3281h262z" />
    <glyph glyph-name="m" unicode="m" horiz-adv-x="2290" 
d="M782 2105l-28 -176h8q90 95 210 150t236 55q121 0 211 -62t125 -184q219 242 471 242q165 0 258.5 -91t93.5 -261q0 -69 -16 -193l-246 -1585h-266l234 1487q16 164 16 201q0 127 -47.5 180t-161.5 53q-174 -11 -262 -160.5t-131 -417.5l-205 -1343h-266l241 1552
q9 58 9 144q0 124 -49 174.5t-160 50.5q-307 -25 -402 -594l-209 -1327h-262l328 2105h270z" />
    <glyph glyph-name="n" unicode="n" horiz-adv-x="1454" 
d="M1503 1487l-229 -1487h-275l242 1528q16 114 16 168q0 225 -200 225q-162 -12 -251.5 -133.5t-133.5 -386.5l-226 -1401h-262l328 2105h270l-28 -168q218 193 438 193q161 0 248.5 -100t87.5 -269q0 -44 -3.5 -81.5t-9 -83t-12.5 -109.5z" />
    <glyph glyph-name="o" unicode="o" horiz-adv-x="1454" 
d="M1233 1135q16 228 16 315q0 438 -233 438q-85 -8 -169 -82t-156 -239.5t-113 -431.5q-40 -298 -50 -504q9 -196 62 -305t180 -109q212 10 319 315.5t144 602.5zM258 831q2 55 53 328q30 204 107.5 420.5t246.5 385.5t433 169q430 -14 430 -647q0 -355 -66 -615
q-40 -176 -92.5 -327.5t-137 -282.5t-212.5 -211.5t-299 -83.5q-465 0 -479 664q16 148 16 200z" />
    <glyph glyph-name="p" unicode="p" 
d="M57 -799l463 2904h262l-20 -143h8q153 172 373 172q377 -5 377 -573q0 -188 -58 -578q-72 -474 -224 -745t-456 -271q-200 19 -303 193h-8l-152 -959h-262zM578 950q-13 -110 -33 -364q5 -240 70 -321t159 -81q100 11 171.5 70.5t137 244t117.5 541.5q3 25 16.5 117
t23 188.5t9.5 174.5q0 401 -241 401q-116 -3 -195.5 -109.5t-125 -265t-71.5 -334t-38 -262.5z" />
    <glyph glyph-name="q" unicode="q" 
d="M1118 -799h-262l152 959h-9q-155 -175 -360 -193q-222 0 -309.5 146t-96.5 399q22 267 25 303q49 392 116.5 664t208 458.5t375.5 196.5q235 0 324 -172h4l25 143h266zM1159 991q58 406 58 553q0 377 -201 377q-121 0 -206 -101.5t-134.5 -248t-76 -302t-38.5 -229.5
q-43 -258 -57 -487q5 -199 59 -276t150 -93q341 0 446 807z" />
    <glyph glyph-name="r" unicode="r" horiz-adv-x="840" 
d="M512 2105h270l-45 -282h8q69 128 177 219.5t221 91.5l-45 -311h-82q-134 0 -225 -105.5t-136 -398.5l-209 -1319h-262z" />
    <glyph glyph-name="s" unicode="s" horiz-adv-x="1135" 
d="M111 111l49 315q144 -196 344 -209q147 12 249.5 116.5t102.5 252.5q0 131 -63 228.5t-192 231.5t-194.5 234t-70.5 231q4 21 8 61t8 58q53 241 220 372.5t370 131.5q232 0 361 -135l-46 -328h-8q-55 91 -132.5 150t-219.5 59q-114 -11 -190 -97.5t-93 -180.5
q0 -114 41 -192t117 -154t186 -183q185 -179 185 -418q0 -180 -89.5 -339.5t-244 -254t-338.5 -94.5q-180 0 -360 144z" />
    <glyph glyph-name="t" unicode="t" horiz-adv-x="864" 
d="M1241 2105l-33 -250h-352l-295 -1855h-266l299 1855h-225l32 250h222l98 574h262l-86 -574h344z" />
    <glyph glyph-name="u" unicode="u" 
d="M496 2105h274l-209 -1323q-5 -54 -21 -149.5t-20 -153.5q14 -262 225 -262q137 0 212.5 86t106 205t62.5 332l201 1265h275l-242 -1511q-98 -627 -647 -627q-459 0 -471 443q4 27 8 81t8 78z" />
    <glyph glyph-name="v" unicode="v" horiz-adv-x="1294" 
d="M1319 2105h283l-803 -2105h-287l-143 2105h262l82 -1712h16q31 121 95 310.5t146.5 420t189.5 529t159 452.5z" />
    <glyph glyph-name="w" unicode="w" horiz-adv-x="2064" 
d="M2081 2105h270l-790 -2105h-279v553q2 334 2.5 571t2.5 404.5t7 224.5h-8q-28 -131 -87 -329t-137.5 -442t-168.5 -518.5t-148 -463.5h-274l-86 2105h262q0 -1425 17 -1720h16q55 203 142.5 486.5t210.5 662.5t184 571h270q0 -1097 -17 -1720h17q55 192 152 475t215 613
t227 632z" />
    <glyph glyph-name="x" unicode="x" horiz-adv-x="1376" 
d="M1352 2105h286l-630 -1032l303 -1073h-295q-2 9 -64 260t-91.5 401t-29.5 244h-16q-14 -57 -45 -127t-95.5 -192t-178 -332t-136.5 -254h-294l647 1073l-275 1032h299q85 -394 118.5 -592t33.5 -305h24q76 210 154 369t285 528z" />
    <glyph glyph-name="y" unicode="y" horiz-adv-x="1360" 
d="M1376 2105h287l-1192 -2904h-270l336 856l-168 2048h262l90 -1695h16q100 277 160 438t133.5 353t163 425t182.5 479z" />
    <glyph glyph-name="z" unicode="z" horiz-adv-x="1352" 
d="M1200 250l-49 -250h-1085l1126 1855h-721l33 250h1118l-1143 -1855h721z" />
    <glyph glyph-name="braceleft" unicode="{" horiz-adv-x="1233" 
d="M426 1450q192 38 282 129t115 244l107 663q23 187 67.5 312t167.5 207.5t355 82.5h102l-20 -135q-147 -13 -229 -46t-134 -121t-80 -259l-94 -639q-44 -251 -151 -351t-259 -144v-17q139 -46 194.5 -133t55.5 -227q0 -111 -8 -168l-98 -639q0 -42 -17 -127
q7 -135 84.5 -198t239.5 -77l-25 -126h-123q-213 0 -310 83.5t-103 276.5q10 87 24 217l111 680v70q0 241 -270 303z" />
    <glyph glyph-name="bar" unicode="|" horiz-adv-x="913" 
d="M352 0l520 3281h209l-520 -3281h-209z" />
    <glyph glyph-name="braceright" unicode="}" horiz-adv-x="1233" 
d="M1241 1311q-185 -39 -271.5 -127.5t-113.5 -241.5l-102 -663q-30 -185 -80.5 -309.5t-174 -206.5t-347.5 -82h-103l25 126q141 18 224.5 55.5t137 128.5t76.5 259l102 631q26 171 92.5 272.5t139.5 144.5t170 78v17q-136 44 -191.5 126.5t-62.5 209.5q4 35 10 97t10 95
l99 647q0 21 4 58t4 53q0 145 -76 207t-244 75l25 127h119q205 0 301 -84.5t96 -291.5q0 -86 -12 -209l-107 -717q0 -170 77 -239.5t198 -96.5z" />
    <glyph glyph-name="asciitilde" unicode="~" horiz-adv-x="1815" 
d="M233 913q265 353 521 353q83 0 169.5 -28.5t209 -83.5t194.5 -80t135 -25q157 12 344 245l115 -135q-228 -316 -487 -328q-78 0 -161.5 24t-214.5 77.5t-203 79t-134 28.5q-192 0 -377 -270z" />
    <glyph glyph-name="exclamdown" unicode="&#xa1;" horiz-adv-x="1409" 
d="M1081 1528l-368 -2319h-275l369 2319h274zM1065 2327q79 0 131.5 -50t52.5 -135q0 -92 -79 -160.5t-171 -68.5q-73 0 -121.5 49t-54.5 119q44 124 90.5 185t151.5 61z" />
    <glyph glyph-name="cent" unicode="&#xa2;" horiz-adv-x="1704" 
d="M1327 3031h201l-58 -360q167 -39 193 -78l-45 -303q-116 135 -242 135q-114 0 -216 -104t-178.5 -303.5t-109.5 -465.5q-11 -146 -24 -295q0 -230 68.5 -363.5t181.5 -139.5q145 12 303 188h8l-57 -328q-109 -80 -226 -94l-61 -409h-201l66 409q-172 45 -271.5 221.5
t-105.5 466.5q18 212 33 303q161 1016 688 1151z" />
    <glyph glyph-name="sterling" unicode="&#xa3;" horiz-adv-x="1704" 
d="M1647 2384q0 17 4 53t4 49q0 171 -85 274t-235 103q-164 0 -274.5 -100.5t-163 -254t-57.5 -317.5q13 -239 82 -413l135 -344h479l-25 -193h-393q41 -107 41 -225q0 -172 -82 -349t-180 -282q20 -15 102 -83.5t134 -97t108 -28.5q112 20 184 250l222 -74
q-32 -184 -156.5 -306.5t-282.5 -131.5q-122 0 -203 47t-206.5 141.5t-184.5 98.5q-139 0 -237 -201l-217 143q212 328 446 328q18 0 45 -4t37 -4q176 197 176 479q0 214 -57 299h-422l25 193h335q-148 327 -176 520q-4 29 -8 90t-8 90q5 250 110 479.5t298.5 372.5
t447.5 143q164 0 286 -79.5t186.5 -216t64.5 -298.5q0 -43 -9 -102z" />
    <glyph glyph-name="currency" unicode="&#xa4;" horiz-adv-x="1704" 
d="M1712 1090q8 36 8 135q0 244 -164 417t-446 173q-165 -10 -320.5 -85.5t-272 -227t-157.5 -367.5q0 -21 -16 -119q5 -146 76 -276.5t205 -212t313 -81.5q162 0 325.5 86.5t284 234t164.5 323.5zM377 1688l-135 159l221 193l135 -160q279 176 586 176q309 0 528 -176
l184 160l160 -201l-184 -151q94 -172 94 -402q0 -197 -78.5 -391t-199.5 -309l143 -160l-221 -193l-140 160q-249 -181 -589 -192q-310 14 -521 192l-184 -160l-168 193l185 160q-86 154 -99 381q6 209 85.5 406t197.5 315z" />
    <glyph glyph-name="yen" unicode="&#xa5;" horiz-adv-x="1704" 
d="M2056 3088l-569 -1167h442l-24 -176h-504l-152 -320h606l-32 -176h-615l-200 -1249h-279l201 1249h-660l25 176h635l-49 320h-529l25 176h471l-225 1167h299l196 -1458h8l627 1458h303z" />
    <glyph glyph-name="brokenbar" unicode="&#xa6;" horiz-adv-x="1126" 
d="M352 0l209 1327h209l-209 -1327h-209zM872 3281h209l-217 -1335h-209z" />
    <glyph glyph-name="section" unicode="&#xa7;" horiz-adv-x="1696" 
d="M1585 2593q0 146 -76 220.5t-198 74.5q-172 0 -274 -135t-115 -312q13 -205 188 -336q3 -2 146 -90t235.5 -171.5t156.5 -214t64 -302.5q0 -191 -59.5 -386.5t-181.5 -346t-295 -209.5l-9 -8q242 -156 242 -451q0 -186 -88 -358.5t-245.5 -282t-346.5 -116.5
q-187 0 -347 112.5t-165 399.5q8 24 8 69h271q0 -181 76 -262.5t190 -81.5q108 0 198 66t140.5 171.5t50.5 213.5q0 127 -61.5 233t-184.5 160q-283 129 -415 281t-138 411q24 235 89 430t203.5 336.5t363.5 179.5v8q-330 170 -344 471q25 201 114.5 375t248 280.5
t382.5 106.5q194 -7 320 -141t126 -395h-270zM1434 1143q0 25 4 73t4 70q0 391 -299 467q-274 -16 -374.5 -221.5t-145.5 -548.5q7 -152 86.5 -266.5t281.5 -204.5q380 80 443 631z" />
    <glyph glyph-name="dieresis" unicode="&#xa8;" horiz-adv-x="1143" 
d="M721 2785q74 0 121 -55.5t47 -144.5q-19 -86 -86 -143.5t-156 -57.5q-70 0 -116 45t-52 115q41 115 88.5 172.5t153.5 68.5zM1311 2785q78 0 127 -55.5t49 -144.5q-18 -85 -87 -143t-151 -58q-73 0 -116.5 43.5t-51.5 116.5q38 117 81 173.5t149 67.5z" />
    <glyph glyph-name="copyright" unicode="&#xa9;" horiz-adv-x="3281" 
d="M2458 1872q-5 203 -127 294t-291 91q-215 -11 -357 -133.5t-216 -305t-107 -401.5q6 -242 136 -397.5t359 -155.5q157 0 306.5 105.5t197.5 287.5h242q-75 -269 -287.5 -437.5t-507.5 -180.5q-176 0 -337 84.5t-261.5 251t-101.5 393.5q4 65 20 201q41 227 156 431
t320 337t495 137q132 0 268 -55t231 -189.5t99 -357.5h-237zM3154 1495q20 163 20 291q0 232 -74 435.5t-217 360.5t-345.5 245.5t-452.5 88.5q-62 0 -94 -4q-227 -21 -450 -127.5t-413.5 -283.5t-322 -403t-182.5 -476q-23 -135 -29 -319q1 -321 135.5 -578t378 -403
t555.5 -146q187 0 410.5 69t442 222.5t390.5 411t248 616.5zM418 1655q96 400 301 689.5t463 464.5t510 252t458 77q261 -6 489 -103t399.5 -274t266.5 -422.5t95 -544.5q0 -341 -139.5 -671.5t-388 -594.5t-573.5 -416.5t-681 -152.5q-371 0 -654 184t-436.5 489
t-158.5 654q13 208 49 369z" />
    <glyph glyph-name="ordfeminine" unicode="&#xaa;" horiz-adv-x="1233" 
d="M455 1343l24 152h738l-25 -152h-737zM1184 2441q24 202 24 312q0 217 -110 217q-184 0 -275 -484q-10 -84 -27.5 -201t-21.5 -180q12 -217 139 -217q143 5 193.5 168t77.5 385zM1266 3039l8 74h196l-213 -1368h-200l16 86h-8q-20 -36 -89 -70t-153 -41q-245 19 -245 353
q0 103 22.5 295.5t82.5 389t165 289.5q93 82 217 82q134 0 201 -90z" />
    <glyph glyph-name="guillemotleft" unicode="&#xab;" horiz-adv-x="1544" 
d="M1720 2097l-569 -778l311 -791l-188 -102l-361 893l639 872zM1200 2097l-569 -778l311 -791l-188 -102l-361 893l647 872z" />
    <glyph glyph-name="logicalnot" unicode="&#xac;" horiz-adv-x="1815" 
d="M328 1520h1646l-176 -1094h-205l144 885h-1442z" />
    <glyph glyph-name="registered" unicode="&#xae;" horiz-adv-x="3281" 
d="M418 1679q131 508 438.5 839t658.5 475.5t635 144.5q345 -9 628.5 -175t448 -470t164.5 -699q0 -347 -138.5 -677.5t-386 -592.5t-570.5 -413.5t-678 -151.5q-279 0 -510 110t-395.5 302t-252.5 435.5t-91 504.5q13 208 49 368zM3158 1495q25 141 25 283
q0 307 -134.5 568t-386 415.5t-581.5 154.5q-58 0 -90 -4q-303 -28 -594 -207.5t-499 -468t-275 -618.5q-23 -143 -29 -324q1 -320 135.5 -575.5t377.5 -399t556 -143.5q186 0 406 69.5t443 227t395.5 413t250.5 609.5zM1610 2249l-90 -602h360q41 0 66 -9q212 11 357 71
t171 245q0 166 -86.5 230.5t-273.5 64.5h-504zM1409 2433h791q258 0 389 -102t131 -332q-10 -143 -82.5 -263t-212 -195t-336.5 -79l397 -807h-278l-369 807h-352l-127 -807h-242z" />
    <glyph glyph-name="plusminus" unicode="&#xb1;" horiz-adv-x="1815" 
d="M991 1151h-721l33 209h721l102 696h217l-110 -696h721l-33 -209h-721l-110 -696h-209zM1778 258l-33 -209h-1651l33 209h1651z" />
    <glyph glyph-name="twosuperior" unicode="&#xb2;" horiz-adv-x="1024" 
d="M287 1257l643 926q246 367 246 594q0 193 -152 193q-236 0 -287 -369h-200q30 260 156 394t306 134q156 0 262.5 -83.5t106.5 -235.5q0 -258 -209 -586q-46 -76 -107 -166.5t-158.5 -229t-167 -235t-112.5 -159.5h529l-33 -177h-823z" />
    <glyph glyph-name="threesuperior" unicode="&#xb3;" horiz-adv-x="1024" 
d="M696 2359h58q156 0 242 53.5t122 233.5q8 49 8 139q0 185 -135 185q-211 0 -246 -291h-208q37 206 158 328t337 122q303 -11 303 -327q0 -176 -77.5 -321t-225.5 -200q185 -63 185 -335q0 -178 -50.5 -342.5t-166.5 -271.5t-295 -107q-346 10 -361 336q4 35 16 96.5
t17 103.5h201q-14 -79 -25 -159q14 -201 184 -201q158 0 218.5 162.5t60.5 357.5q0 174 -92 218t-260 44z" />
    <glyph glyph-name="acute" unicode="&#xb4;" horiz-adv-x="1143" 
d="M1143 2953l217 -200l-606 -480l-148 127z" />
    <glyph glyph-name="mu" unicode="&#xb5;" 
d="M504 2105h270l-205 -1343q-3 -38 -19.5 -139.5t-21.5 -159.5q17 -279 263 -279q123 0 186.5 79.5t82.5 169t58 341.5l209 1331h266l-233 -1499q-45 -292 -155.5 -465.5t-364.5 -173.5q-206 0 -377 201l-152 -967h-262z" />
    <glyph glyph-name="paragraph" unicode="&#xb6;" horiz-adv-x="1696" 
d="M1872 2920h-328l-594 -3711h-188l397 2487q-355 0 -561.5 137t-212.5 416q16 114 16 135q93 704 918 704h762l-619 -3879h-180z" />
    <glyph glyph-name="periodcentered" unicode="&#xb7;" horiz-adv-x="1696" 
d="M1208 2318q192 0 346.5 -85t240 -235.5t85.5 -334.5q0 -225 -125 -432t-332 -332t-432 -125q-180 0 -334.5 85t-248 233.5t-97.5 332.5q34 238 150 438.5t307 322.5t440 132z" />
    <glyph glyph-name="cedilla" unicode="&#xb8;" horiz-adv-x="1143" 
d="M745 -287l-487 -618l-156 98l451 639z" />
    <glyph glyph-name="onesuperior" unicode="&#xb9;" horiz-adv-x="1024" 
d="M1126 3105l-295 -1848h-200l274 1680h-266l74 168h413z" />
    <glyph glyph-name="ordmasculine" unicode="&#xba;" horiz-adv-x="1233" 
d="M455 1343l24 152h746l-25 -152h-745zM1208 2486q9 74 9 193q0 274 -136 274q-98 -6 -168 -136.5t-98 -313.5q-2 -14 -19 -134.5t-22 -201.5q15 -254 148 -254q123 0 191.5 178t94.5 395zM606 2474q46 290 180 477t332 187q307 0 307 -443q0 -123 -16 -229
q-29 -199 -83 -360.5t-156 -269t-257 -107.5q-188 0 -258 115.5t-77 314.5q6 85 28 315z" />
    <glyph glyph-name="guillemotright" unicode="&#xbb;" horiz-adv-x="1544" 
d="M487 2097l193 94l369 -872l-648 -893l-159 102l557 791zM1008 2097l200 94l361 -872l-647 -893l-160 102l565 791z" />
    <glyph glyph-name="onequarter" unicode="&#xbc;" horiz-adv-x="2544" 
d="M1098 3105l-299 -1848h-201l274 1680h-266l66 168h426zM2535 1855l-192 -1200h151l-28 -159h-148l-77 -496h-201l74 496h-545l24 176l717 1183h225zM2142 655l90 553q11 66 41.5 189.5t44.5 187.5h-8l-524 -930h356zM2478 3088l-1831 -3088h-168l1831 3088h168z" />
    <glyph glyph-name="onehalf" unicode="&#xbd;" horiz-adv-x="2544" 
d="M1126 3105l-295 -1848h-200l274 1680h-266l74 168h413zM2433 3088l-1827 -3088h-168l1827 3088h168zM1569 0q39 58 185 270.5t288 418.5t190 278q226 363 226 553q0 179 -160 192q-244 0 -283 -360h-209q42 260 167.5 390t307.5 130q158 0 261.5 -79t103.5 -232
q0 -255 -205 -586q-49 -83 -100.5 -159.5t-153.5 -223t-169 -241t-122 -175.5h529l-33 -176h-823z" />
    <glyph glyph-name="threequarters" unicode="&#xbe;" horiz-adv-x="2544" 
d="M782 2367h66q153 0 240 55.5t120 239.5q17 94 17 140q0 176 -135 176q-208 0 -259 -291h-200q40 213 161.5 336t333.5 123q157 -6 232.5 -92.5t75.5 -231.5q0 -173 -80.5 -324.5t-235.5 -207.5q193 -64 193 -344q0 -174 -51 -335t-166 -265.5t-295 -104.5
q-346 0 -361 352q7 58 25 185h201q0 -44 -17 -148q7 -109 46.5 -165t137.5 -56q155 0 217 165.5t62 354.5q0 178 -92.5 224.5t-255.5 46.5zM2646 3105l-1823 -3097h-168l1823 3097h168zM2249 8h-201l82 496h-553l33 176l708 1184h226l-193 -1200h152l-25 -160h-151z
M2150 664l91 553q3 11 37 162t49 214h-9l-524 -929h356z" />
    <glyph glyph-name="questiondown" unicode="&#xbf;" horiz-adv-x="1786" 
d="M1266 528h-156q-137 0 -216.5 -31t-121 -94.5t-60.5 -141t-65 -302.5q-9 -56 -26.5 -150.5t-22.5 -144.5q7 -123 56 -186.5t161 -63.5q113 4 176 70.5t90 157.5t45 215l33 135h266l-41 -217q-36 -178 -99 -307.5t-198.5 -214t-365.5 -84.5q-132 8 -217 52.5t-128 136.5
t-48 249q33 299 58.5 452t96 323t206 279t351.5 113l111 754h274zM1577 2122q-18 -92 -87 -150.5t-155 -58.5q-88 0 -136 60.5t-48 148.5q7 68 77.5 136.5t172.5 68.5q79 0 127.5 -57t48.5 -148z" />
    <glyph glyph-name="Agrave" unicode="&#xc0;" horiz-adv-x="1495" 
d="M1368 3088l127 -3088h-303l-16 631h-656l-217 -631h-303l1098 3088h270zM606 889h561l-16 1024q0 49 -8 86q2 65 17.5 329t15.5 375h-17q-91 -301 -183.5 -604t-185 -605.5t-184.5 -604.5zM1282 3936l356 -553l-184 -127l-463 480z" />
    <glyph glyph-name="Aacute" unicode="&#xc1;" horiz-adv-x="1495" 
d="M1368 3088l127 -3088h-303l-16 631h-656l-217 -631h-303l1098 3088h270zM606 889h561l-16 1024q0 49 -8 86q2 65 17.5 329t15.5 375h-17q-91 -301 -183.5 -604t-185 -605.5t-184.5 -604.5zM1470 3936l218 -200l-607 -480l-143 127z" />
    <glyph glyph-name="Acircumflex" unicode="&#xc2;" horiz-adv-x="1495" 
d="M1368 3088l127 -3088h-303l-16 631h-656l-217 -631h-303l1098 3088h270zM606 889h561l-16 1024q0 49 -8 86q2 65 17.5 329t15.5 375h-17q-91 -301 -183.5 -604t-185 -605.5t-184.5 -604.5zM1311 3887l458 -496l-217 -176l-295 320l-393 -320l-143 176z" />
    <glyph glyph-name="Atilde" unicode="&#xc3;" horiz-adv-x="1495" 
d="M1368 3088l127 -3088h-303l-16 631h-656l-217 -631h-303l1098 3088h270zM606 889h561l-16 1024q0 49 -8 86q2 65 17.5 329t15.5 375h-17q-91 -301 -183.5 -604t-185 -605.5t-184.5 -604.5zM1618 3744h270q-33 -153 -134 -265t-243 -112q-67 0 -114 22t-143.5 75.5
t-135.5 53.5q-44 0 -69 -32t-25 -78h-262q39 170 148.5 265t240.5 95q45 0 95.5 -19.5t104 -48t102 -52t75.5 -23.5q78 0 90 119z" />
    <glyph glyph-name="Adieresis" unicode="&#xc4;" horiz-adv-x="1495" 
d="M1368 3088l127 -3088h-303l-16 631h-656l-217 -631h-303l1098 3088h270zM606 889h561l-16 1024q0 49 -8 86q2 65 17.5 329t15.5 375h-17q-91 -301 -183.5 -604t-185 -605.5t-184.5 -604.5zM1057 3768q74 0 121 -55.5t47 -144.5q-19 -86 -86 -143.5t-156 -57.5
q-70 0 -116 45t-52 115q39 116 86.5 173t155.5 68zM1647 3768q78 0 127 -55.5t49 -144.5q-18 -85 -87 -143t-151 -58q-72 0 -117 45t-51 115q36 118 79 174t151 67z" />
    <glyph glyph-name="Aring" unicode="&#xc5;" horiz-adv-x="1495" 
d="M1368 3088l127 -3088h-303l-16 631h-656l-217 -631h-303l1098 3088h270zM606 889h561l-16 1024q0 49 -8 86q2 65 17.5 329t15.5 375h-17q-91 -301 -183.5 -604t-185 -605.5t-184.5 -604.5zM1311 3887q-80 0 -142 -53.5t-71 -130.5q0 -88 43.5 -136.5t115.5 -48.5
q77 0 139 53t74 132q0 80 -37.5 132t-113.5 52h-8zM1327 4071q148 0 238 -84.5t90 -226.5q0 -111 -60 -209.5t-159 -157.5t-211 -59q-144 0 -228 100t-84 269q22 149 145 255.5t269 112.5z" />
    <glyph glyph-name="AE" unicode="&#xc6;" horiz-adv-x="2175" 
d="M2130 3088v-258h-680l29 -1093h643l8 -267h-643l41 -1208h647v-262h-950l-8 631h-697l-217 -631h-303l1110 3088h1020zM598 889h619l16 1872h-16z" />
    <glyph glyph-name="Ccedilla" unicode="&#xc7;" horiz-adv-x="1503" 
d="M1442 377l-49 -291q-224 -127 -435 -127q-182 0 -322 105t-217.5 291.5t-82.5 426.5q0 236 27 489t81.5 505.5t133 476.5t176.5 393q147 255 346.5 369t402.5 114q241 0 361 -98l-58 -311q-121 127 -327 127q-245 0 -422 -213q-79 -99 -155.5 -292t-136 -432.5
t-95.5 -495.5t-39 -484q11 -107 26 -233.5t51 -226.5t113.5 -165t210.5 -72q214 13 410 144zM922 -287l-492 -618l-151 98l450 639z" />
    <glyph glyph-name="Egrave" unicode="&#xc8;" horiz-adv-x="1384" 
d="M1704 3088l-41 -258h-688l-168 -1093h663l-36 -267h-664l-192 -1208h679l-40 -262h-967l487 3088h967zM1225 3936l360 -553l-184 -127l-463 480z" />
    <glyph glyph-name="Eacute" unicode="&#xc9;" horiz-adv-x="1384" 
d="M1704 3088l-41 -258h-688l-168 -1093h663l-36 -267h-664l-192 -1208h679l-40 -262h-967l487 3088h967zM1552 3936l217 -200l-610 -480l-143 127z" />
    <glyph glyph-name="Ecircumflex" unicode="&#xca;" horiz-adv-x="1384" 
d="M1704 3088l-41 -258h-688l-168 -1093h663l-36 -267h-664l-192 -1208h679l-40 -262h-967l487 3088h967zM1311 3903l458 -495l-217 -176l-295 319l-393 -319l-143 176z" />
    <glyph glyph-name="Edieresis" unicode="&#xcb;" horiz-adv-x="1384" 
d="M1704 3088l-41 -258h-688l-168 -1093h663l-36 -267h-664l-192 -1208h679l-40 -262h-967l487 3088h967zM1057 3768q74 0 121 -55.5t47 -144.5q-19 -86 -86 -143.5t-156 -57.5q-70 0 -116 45t-52 115q39 116 86.5 173t155.5 68zM1647 3768q78 0 127 -55.5t49 -144.5
q-18 -85 -87 -143t-151 -58q-72 0 -117 45t-51 115q36 118 79 174t151 67z" />
    <glyph glyph-name="Igrave" unicode="&#xcc;" horiz-adv-x="774" 
d="M1024 3088l-487 -3088h-287l487 3088h287zM913 3936l361 -553l-184 -127l-467 480z" />
    <glyph glyph-name="Iacute" unicode="&#xcd;" horiz-adv-x="774" 
d="M1024 3088l-487 -3088h-287l487 3088h287zM1159 3936l217 -200l-606 -480l-147 127z" />
    <glyph glyph-name="Icircumflex" unicode="&#xce;" horiz-adv-x="774" 
d="M1024 3088l-487 -3088h-287l487 3088h287zM999 3879l455 -496l-213 -176l-299 320l-389 -320l-143 176z" />
    <glyph glyph-name="Idieresis" unicode="&#xcf;" horiz-adv-x="774" 
d="M1024 3088l-487 -3088h-287l487 3088h287zM696 3768q76 0 122 -55.5t46 -144.5q-19 -86 -86 -143.5t-155 -57.5q-70 0 -116 44.5t-52 115.5q39 116 86.5 173t154.5 68zM1286 3768q79 0 127.5 -55.5t48.5 -144.5q-15 -84 -85 -142.5t-152 -58.5q-72 0 -117 44t-51 116
q30 87 49.5 128.5t62 73.5t117.5 39z" />
    <glyph glyph-name="Eth" unicode="&#xd0;" horiz-adv-x="1688" 
d="M737 3088h406q263 0 418 -87t220.5 -262.5t65.5 -448.5q0 -523 -135 -1131q-72 -293 -124.5 -458t-161 -329.5t-303 -268t-492.5 -103.5h-381l229 1470h-295l41 267h295zM975 2830l-168 -1093h283l-41 -267h-279l-192 -1208q247 0 409.5 82.5t265.5 273.5t164 525
q33 191 86 546.5t58 477.5q0 247 -37 385.5t-147 208t-328 69.5h-74z" />
    <glyph glyph-name="Ntilde" unicode="&#xd1;" horiz-adv-x="1786" 
d="M1778 3088h245l-487 -3088h-254q-34 213 -104.5 588t-143.5 772t-115.5 683t-46.5 435h-16q-8 -127 -33.5 -358.5t-48.5 -350.5l-278 -1769h-246l487 3088h246q9 -53 105.5 -619.5t157 -912.5t104 -606.5t51.5 -326.5h8q23 323 45 487zM1753 3744h270q-33 -153 -134 -265
t-242 -112q-66 0 -116 23t-144 75.5t-130 52.5q-47 0 -72.5 -31.5t-25.5 -78.5h-262q39 170 148.5 265t240.5 95q47 0 96 -18.5t103.5 -48t102 -53t75.5 -23.5q78 0 90 119z" />
    <glyph glyph-name="Ograve" unicode="&#xd2;" horiz-adv-x="1823" 
d="M1638 1647q58 381 58 618q0 590 -336 590q-91 0 -173 -38.5t-169 -166t-168 -385t-145 -663.5q-5 -40 -30 -203.5t-41 -304.5t-20 -279q17 -573 336 -573q179 3 305.5 158t202 384t108 407t72.5 456zM360 1249q14 106 37 251t33 212q49 312 145.5 622.5t303 557
t530.5 246.5q573 0 573 -848q0 -481 -118 -1024q-71 -353 -186.5 -640.5t-312.5 -477t-476 -189.5q-304 11 -429 231t-132 609q18 314 32 450zM1450 3936l356 -553l-184 -127l-463 480z" />
    <glyph glyph-name="Oacute" unicode="&#xd3;" horiz-adv-x="1823" 
d="M1638 1647q58 381 58 618q0 590 -336 590q-91 0 -173 -38.5t-169 -166t-168 -385t-145 -663.5q-5 -40 -30 -203.5t-41 -304.5t-20 -279q17 -573 336 -573q179 3 305.5 158t202 384t108 407t72.5 456zM360 1249q14 106 37 251t33 212q49 312 145.5 622.5t303 557
t530.5 246.5q573 0 573 -848q0 -481 -118 -1024q-71 -353 -186.5 -640.5t-312.5 -477t-476 -189.5q-304 11 -429 231t-132 609q18 314 32 450zM1630 3936l217 -200l-606 -480l-143 127z" />
    <glyph glyph-name="Ocircumflex" unicode="&#xd4;" horiz-adv-x="1823" 
d="M1638 1647q58 381 58 618q0 590 -336 590q-91 0 -173 -38.5t-169 -166t-168 -385t-145 -663.5q-5 -40 -30 -203.5t-41 -304.5t-20 -279q17 -573 336 -573q179 3 305.5 158t202 384t108 407t72.5 456zM360 1249q14 106 37 251t33 212q49 312 145.5 622.5t303 557
t530.5 246.5q573 0 573 -848q0 -481 -118 -1024q-71 -353 -186.5 -640.5t-312.5 -477t-476 -189.5q-304 11 -429 231t-132 609q18 314 32 450zM1520 3887l454 -496l-213 -176l-299 320l-389 -320l-143 176z" />
    <glyph glyph-name="Otilde" unicode="&#xd5;" horiz-adv-x="1823" 
d="M1638 1647q58 381 58 618q0 590 -336 590q-91 0 -173 -38.5t-169 -166t-168 -385t-145 -663.5q-5 -40 -30 -203.5t-41 -304.5t-20 -279q17 -573 336 -573q179 3 305.5 158t202 384t108 407t72.5 456zM360 1249q14 106 37 251t33 212q49 312 145.5 622.5t303 557
t530.5 246.5q573 0 573 -848q0 -481 -118 -1024q-71 -353 -186.5 -640.5t-312.5 -477t-476 -189.5q-304 11 -429 231t-132 609q18 314 32 450zM1778 3752h270q-33 -151 -134 -264t-243 -113q-66 0 -112 21t-143.5 76t-133.5 55q-47 0 -72.5 -32.5t-25.5 -78.5h-262
q39 169 148.5 265t240.5 96q59 0 100 -18.5t142.5 -72t134.5 -53.5q77 0 90 119z" />
    <glyph glyph-name="Odieresis" unicode="&#xd6;" horiz-adv-x="1823" 
d="M1638 1647q58 381 58 618q0 590 -336 590q-91 0 -173 -38.5t-169 -166t-168 -385t-145 -663.5q-5 -40 -30 -203.5t-41 -304.5t-20 -279q17 -573 336 -573q179 3 305.5 158t202 384t108 407t72.5 456zM360 1249q14 106 37 251t33 212q49 312 145.5 622.5t303 557
t530.5 246.5q573 0 573 -848q0 -481 -118 -1024q-71 -353 -186.5 -640.5t-312.5 -477t-476 -189.5q-304 11 -429 231t-132 609q18 314 32 450zM1225 3777q74 0 121 -55.5t47 -145.5q-19 -86 -86 -143.5t-156 -57.5q-69 0 -115.5 44.5t-52.5 115.5q27 79 50.5 124t70 77
t121.5 41zM1815 3777q78 0 127 -55.5t49 -145.5q-18 -85 -87 -143t-151 -58q-71 0 -116.5 44.5t-51.5 115.5q36 118 79.5 174.5t150.5 67.5z" />
    <glyph glyph-name="Oslash" unicode="&#xd8;" horiz-adv-x="1823" 
d="M1679 2576q-28 136 -120 203.5t-216 67.5q-189 0 -278 -119q-99 -118 -178.5 -345t-132 -491.5t-86 -526t-54.5 -525.5h9zM2208 3039l-254 -405q20 -97 20 -344q0 -241 -30.5 -536t-99.5 -602t-182 -570t-269 -422q-190 -201 -480 -201q-156 0 -287 75.5t-180 198.5
l-176 -274l-168 90l275 414q-30 172 -41 385q5 365 78 792t205.5 785t302.5 512q213 201 471 201q166 0 297 -79.5t182 -203.5l176 274zM1688 2249l-1033 -1721q19 -128 102.5 -207.5t200.5 -87.5q261 16 402 312q151 315 224.5 750t119.5 954h-16z" />
    <glyph glyph-name="Ugrave" unicode="&#xd9;" horiz-adv-x="1761" 
d="M721 3088h287l-353 -2207q-16 -108 -32 -312q7 -165 67 -250.5t207 -85.5q163 0 253.5 67t140 211.5t93.5 426.5l345 2150h286l-336 -2138q-50 -331 -127 -540t-237 -330t-434 -121q-292 0 -419.5 124.5t-133.5 403.5q13 190 49 410zM1376 3936l361 -553l-185 -127
l-462 480z" />
    <glyph glyph-name="Uacute" unicode="&#xda;" horiz-adv-x="1761" 
d="M721 3088h287l-353 -2207q-16 -108 -32 -312q7 -165 67 -250.5t207 -85.5q163 0 253.5 67t140 211.5t93.5 426.5l345 2150h286l-336 -2138q-50 -331 -127 -540t-237 -330t-434 -121q-292 0 -419.5 124.5t-133.5 403.5q13 190 49 410zM1696 3936l217 -200l-610 -480
l-144 127z" />
    <glyph glyph-name="Ucircumflex" unicode="&#xdb;" horiz-adv-x="1761" 
d="M721 3088h287l-353 -2207q-16 -108 -32 -312q7 -165 67 -250.5t207 -85.5q163 0 253.5 67t140 211.5t93.5 426.5l345 2150h286l-336 -2138q-50 -331 -127 -540t-237 -330t-434 -121q-292 0 -419.5 124.5t-133.5 403.5q13 190 49 410zM1487 3887l459 -496l-217 -176
l-295 320l-394 -320l-143 176z" />
    <glyph glyph-name="Udieresis" unicode="&#xdc;" horiz-adv-x="1761" 
d="M721 3088h287l-353 -2207q-16 -108 -32 -312q7 -165 67 -250.5t207 -85.5q163 0 253.5 67t140 211.5t93.5 426.5l345 2150h286l-336 -2138q-50 -331 -127 -540t-237 -330t-434 -121q-292 0 -419.5 124.5t-133.5 403.5q13 190 49 410zM1192 3777q74 0 121 -55.5t47 -145.5
q-19 -86 -86 -143.5t-156 -57.5q-69 0 -115.5 44.5t-52.5 115.5q27 79 50.5 124t70 77t121.5 41zM1786 3777q76 0 126 -57t50 -144q-18 -84 -88.5 -142.5t-153.5 -58.5q-72 0 -116 43.5t-52 116.5q30 87 50 128.5t63.5 73t120.5 40.5z" />
    <glyph glyph-name="Yacute" unicode="&#xdd;" horiz-adv-x="1610" 
d="M1712 3088h303l-839 -1736l-218 -1352h-286l217 1352l-320 1736h303l201 -1458h17q22 100 96.5 286t171.5 403.5t210 459t144 309.5zM1618 3936l213 -200l-606 -480l-144 127z" />
    <glyph glyph-name="Thorn" unicode="&#xde;" horiz-adv-x="1487" 
d="M737 3088h287l-102 -655h86q375 0 519 -141.5t144 -411.5q0 -135 -8 -201q-48 -368 -183.5 -556.5t-314.5 -244t-428 -55.5h-73l-136 -823h-278zM881 2175l-176 -1085h69q149 0 236 13t163 70t128 184.5t75 354.5q0 24 4 67t4 68q0 182 -95 255t-339 73h-69z" />
    <glyph glyph-name="germandbls" unicode="&#xdf;" horiz-adv-x="1503" 
d="M561 2105l62 414q41 240 105.5 408t201 277.5t364.5 109.5q484 0 484 -504q0 -169 -40.5 -340t-133.5 -306.5t-244 -189.5q122 -65 173.5 -166.5t51.5 -287.5q0 -158 -41 -488q-58 -470 -203 -697t-294 -277.5t-351 -57.5l41 250q164 0 253.5 57.5t121.5 124.5t80 215
q53 169 90 416t37 391q0 218 -57.5 309.5t-221.5 91.5h-57l41 250h74q389 0 389 656q0 138 -47 216.5t-174 78.5q-174 0 -255.5 -130t-121.5 -423l-402 -2503h-262l295 1855h-225l41 250h225z" />
    <glyph glyph-name="agrave" unicode="&#xe0;" 
d="M1184 1151q41 231 41 401q0 369 -217 369q-174 -5 -277.5 -213t-144.5 -500q-5 -37 -28.5 -197t-36.5 -268t-17 -206q7 -171 57.5 -262t175.5 -91q143 11 224 120t123.5 294.5t99.5 552.5zM1286 1962l25 143h266l-328 -2105h-274l33 160h-9q-91 -114 -193.5 -153.5
t-236.5 -39.5q-169 6 -245.5 118.5t-90.5 344.5q0 186 40 482.5t63 398.5q58 272 128 444t195 272.5t324 106.5q203 0 299 -172h4zM1098 2953l356 -553l-180 -127l-467 480z" />
    <glyph glyph-name="aacute" unicode="&#xe1;" 
d="M1184 1151q41 231 41 401q0 369 -217 369q-174 -5 -277.5 -213t-144.5 -500q-5 -37 -28.5 -197t-36.5 -268t-17 -206q7 -171 57.5 -262t175.5 -91q143 11 224 120t123.5 294.5t99.5 552.5zM1286 1962l25 143h266l-328 -2105h-274l33 160h-9q-91 -114 -193.5 -153.5
t-236.5 -39.5q-169 6 -245.5 118.5t-90.5 344.5q0 186 40 482.5t63 398.5q58 272 128 444t195 272.5t324 106.5q203 0 299 -172h4zM1286 2953l217 -200l-606 -480l-143 127z" />
    <glyph glyph-name="acircumflex" unicode="&#xe2;" 
d="M1184 1151q41 231 41 401q0 369 -217 369q-174 -5 -277.5 -213t-144.5 -500q-5 -37 -28.5 -197t-36.5 -268t-17 -206q7 -171 57.5 -262t175.5 -91q143 11 224 120t123.5 294.5t99.5 552.5zM1286 1962l25 143h266l-328 -2105h-274l33 160h-9q-91 -114 -193.5 -153.5
t-236.5 -39.5q-169 6 -245.5 118.5t-90.5 344.5q0 186 40 482.5t63 398.5q58 272 128 444t195 272.5t324 106.5q203 0 299 -172h4zM1167 2904l455 -496l-213 -176l-299 320l-389 -320l-143 176z" />
    <glyph glyph-name="atilde" unicode="&#xe3;" 
d="M1184 1151q41 231 41 401q0 369 -217 369q-174 -5 -277.5 -213t-144.5 -500q-5 -37 -28.5 -197t-36.5 -268t-17 -206q7 -171 57.5 -262t175.5 -91q143 11 224 120t123.5 294.5t99.5 552.5zM1286 1962l25 143h266l-328 -2105h-274l33 160h-9q-91 -114 -193.5 -153.5
t-236.5 -39.5q-169 6 -245.5 118.5t-90.5 344.5q0 186 40 482.5t63 398.5q58 272 128 444t195 272.5t324 106.5q203 0 299 -172h4zM1425 2761h271q-33 -153 -134 -265t-243 -112q-66 0 -117.5 24t-143.5 75.5t-128 51.5q-47 0 -73 -33t-26 -77h-262q39 166 149.5 263
t239.5 97q59 0 99 -18.5t142 -71.5t136 -53q78 0 90 119z" />
    <glyph glyph-name="adieresis" unicode="&#xe4;" 
d="M1184 1151q41 231 41 401q0 369 -217 369q-174 -5 -277.5 -213t-144.5 -500q-5 -37 -28.5 -197t-36.5 -268t-17 -206q7 -171 57.5 -262t175.5 -91q143 11 224 120t123.5 294.5t99.5 552.5zM1286 1962l25 143h266l-328 -2105h-274l33 160h-9q-91 -114 -193.5 -153.5
t-236.5 -39.5q-169 6 -245.5 118.5t-90.5 344.5q0 186 40 482.5t63 398.5q58 272 128 444t195 272.5t324 106.5q203 0 299 -172h4zM864 2785q76 0 122 -55.5t46 -144.5q-19 -86 -86 -143.5t-155 -57.5q-70 0 -116 44.5t-52 115.5q41 115 88.5 172.5t152.5 68.5zM1454 2785
q78 0 127 -55.5t49 -144.5q-15 -84 -85 -142.5t-152 -58.5q-72 0 -117 44t-51 116q44 123 83.5 176.5t145.5 64.5z" />
    <glyph glyph-name="aring" unicode="&#xe5;" 
d="M1184 1151q41 231 41 401q0 369 -217 369q-174 -5 -277.5 -213t-144.5 -500q-5 -37 -28.5 -197t-36.5 -268t-17 -206q7 -171 57.5 -262t175.5 -91q143 11 224 120t123.5 294.5t99.5 552.5zM1286 1962l25 143h266l-328 -2105h-274l33 160h-9q-91 -114 -193.5 -153.5
t-236.5 -39.5q-169 6 -245.5 118.5t-90.5 344.5q0 186 40 482.5t63 398.5q58 272 128 444t195 272.5t324 106.5q203 0 299 -172h4zM1184 2904q-79 0 -142 -54t-75 -130q0 -88 43.5 -136.5t115.5 -48.5q79 0 142 53t75 132q0 79 -38.5 131.5t-112.5 52.5h-8zM1200 3088
q148 0 238 -84.5t90 -226.5q0 -111 -60 -209.5t-159 -157.5t-211 -59q-144 0 -230 100t-86 269q25 149 149 255.5t269 112.5z" />
    <glyph glyph-name="ae" unicode="&#xe6;" horiz-adv-x="2318" 
d="M569 2007q172 127 406 127q177 0 308 -97t159 -292h8q208 389 549 389q401 -16 401 -664q0 -222 -41 -471h-905q-27 -194 -37 -352q16 -430 254 -430q155 0 228 141t116 355h283q-43 -238 -139 -407.5t-226.5 -254t-277.5 -84.5q-185 0 -289 92t-141 293h-8
q-42 -90 -121 -177.5t-193.5 -147.5t-247.5 -60q-196 0 -314 136.5t-124 400.5q46 390 181.5 643.5t465.5 253.5q253 0 369 -168h8q25 147 25 262q0 167 -90 276t-246 109q-191 0 -410 -160zM1159 680q0 25 4 69t4 66q0 369 -278 369q-121 -3 -196.5 -64.5t-115 -155.5
t-62 -220.5t-36.5 -215.5q16 -311 258 -311q180 5 283.5 137.5t138.5 325.5zM2122 1225q20 172 20 303q0 350 -205 360q-160 0 -278 -190.5t-172 -472.5h635z" />
    <glyph glyph-name="ccedilla" unicode="&#xe7;" horiz-adv-x="1135" 
d="M1303 1745q-103 127 -238 127q-100 0 -196.5 -86t-170 -248t-112.5 -387q-32 -160 -49 -438q0 -240 70 -365t184 -131q165 12 299 193h8l-58 -336q-146 -107 -327 -107q-196 0 -324 167.5t-131 537.5q7 248 37 438q49 294 160.5 528t270 365t339.5 131q159 0 287 -78z
M737 -287l-487 -618l-156 98l451 639z" />
    <glyph glyph-name="egrave" unicode="&#xe8;" horiz-adv-x="1409" 
d="M1106 713h278q-57 -294 -218.5 -520t-420.5 -226q-481 0 -487 664q7 250 37 450q35 231 125 470.5t251.5 411t385.5 171.5q430 0 430 -655q0 -223 -45 -480h-889q-18 -136 -33 -360q14 -412 225 -422q280 0 361 496zM1200 1225q25 174 25 303q0 360 -217 360
q-150 -6 -259 -204.5t-155 -458.5h606zM1073 2953l361 -553l-185 -127l-467 480z" />
    <glyph glyph-name="eacute" unicode="&#xe9;" horiz-adv-x="1409" 
d="M1106 713h278q-57 -294 -218.5 -520t-420.5 -226q-481 0 -487 664q7 250 37 450q35 231 125 470.5t251.5 411t385.5 171.5q430 0 430 -655q0 -223 -45 -480h-889q-18 -136 -33 -360q14 -412 225 -422q280 0 361 496zM1200 1225q25 174 25 303q0 360 -217 360
q-150 -6 -259 -204.5t-155 -458.5h606zM1282 2953l213 -200l-606 -480l-144 127z" />
    <glyph glyph-name="ecircumflex" unicode="&#xea;" horiz-adv-x="1409" 
d="M1106 713h278q-57 -294 -218.5 -520t-420.5 -226q-481 0 -487 664q7 250 37 450q35 231 125 470.5t251.5 411t385.5 171.5q430 0 430 -655q0 -223 -45 -480h-889q-18 -136 -33 -360q14 -412 225 -422q280 0 361 496zM1200 1225q25 174 25 303q0 360 -217 360
q-150 -6 -259 -204.5t-155 -458.5h606zM1151 2904l459 -496l-217 -176l-295 320l-393 -320l-144 176z" />
    <glyph glyph-name="edieresis" unicode="&#xeb;" horiz-adv-x="1409" 
d="M1106 713h278q-57 -294 -218.5 -520t-420.5 -226q-481 0 -487 664q7 250 37 450q35 231 125 470.5t251.5 411t385.5 171.5q430 0 430 -655q0 -223 -45 -480h-889q-18 -136 -33 -360q14 -412 225 -422q280 0 361 496zM1200 1225q25 174 25 303q0 360 -217 360
q-150 -6 -259 -204.5t-155 -458.5h606zM848 2785q74 0 121 -55.5t47 -144.5q-19 -86 -86 -143.5t-156 -57.5q-70 0 -116 45t-52 115q41 115 88.5 172.5t153.5 68.5zM1442 2785q77 0 126.5 -56.5t49.5 -143.5q-18 -84 -88.5 -142.5t-153.5 -58.5q-70 0 -115 44t-53 116
q43 120 85.5 175t148.5 66z" />
    <glyph glyph-name="igrave" unicode="&#xec;" horiz-adv-x="631" 
d="M184 0l328 2105h270l-327 -2105h-271zM696 2953l361 -553l-185 -127l-462 480z" />
    <glyph glyph-name="iacute" unicode="&#xed;" horiz-adv-x="631" 
d="M184 0l328 2105h270l-327 -2105h-271zM942 2953l217 -200l-606 -480l-143 127z" />
    <glyph glyph-name="icircumflex" unicode="&#xee;" horiz-adv-x="631" 
d="M184 0l328 2105h270l-327 -2105h-271zM770 2904l455 -496l-217 -176l-295 320l-394 -320l-143 176z" />
    <glyph glyph-name="idieresis" unicode="&#xef;" horiz-adv-x="631" 
d="M184 0l328 2105h270l-327 -2105h-271zM471 2785q77 0 122.5 -55t45.5 -145q-19 -86 -85 -143.5t-153 -57.5q-73 0 -116.5 43.5t-51.5 116.5q36 113 83.5 171.5t154.5 69.5zM1065 2785q78 0 127 -55.5t49 -144.5q-18 -84 -89 -142.5t-153 -58.5q-70 0 -115 44t-53 116
q43 120 85.5 175t148.5 66z" />
    <glyph glyph-name="eth" unicode="&#xf0;" horiz-adv-x="1450" 
d="M1233 1135q33 287 33 385q0 385 -242 385q-320 0 -446 -795q-38 -228 -50 -463q17 -430 246 -430q325 16 459 918zM262 872q4 48 20 132t21 139q31 179 118 398.5t251 387.5t397 168q74 0 139 -16q-66 246 -168 454l-286 -168l-74 177l278 151q-66 131 -125.5 212
t-218.5 276l275 106q153 -163 311 -450l320 167l82 -159l-308 -168q133 -301 187.5 -587t54.5 -556q0 -117 -7.5 -204.5t-19.5 -165t-21.5 -122t-17.5 -77.5q-42 -207 -93.5 -372.5t-134.5 -307.5t-212 -229.5t-309 -90.5q-457 0 -471 647q4 45 7 131t5 127z" />
    <glyph glyph-name="ntilde" unicode="&#xf1;" horiz-adv-x="1454" 
d="M1503 1487l-229 -1487h-275l242 1528q16 114 16 168q0 225 -200 225q-162 -12 -251.5 -133.5t-133.5 -386.5l-226 -1401h-262l328 2105h270l-28 -168q218 193 438 193q161 0 248.5 -100t87.5 -269q0 -44 -3.5 -81.5t-9 -83t-12.5 -109.5zM1442 2769h270
q-33 -151 -134 -264t-243 -113q-52 0 -104.5 20t-121.5 60t-100.5 56t-66.5 16q-44 0 -69 -33.5t-25 -77.5h-262q39 167 149 263.5t240 96.5q46 0 98.5 -21t98.5 -46.5t99 -52.5t81 -27q78 0 90 123z" />
    <glyph glyph-name="ograve" unicode="&#xf2;" horiz-adv-x="1454" 
d="M1233 1135q16 228 16 315q0 438 -233 438q-85 -8 -169 -82t-156 -239.5t-113 -431.5q-40 -298 -50 -504q9 -196 62 -305t180 -109q212 10 319 315.5t144 602.5zM258 831q2 55 53 328q30 204 107.5 420.5t246.5 385.5t433 169q430 -14 430 -647q0 -355 -66 -615
q-40 -176 -92.5 -327.5t-137 -282.5t-212.5 -211.5t-299 -83.5q-465 0 -479 664q16 148 16 200zM1106 2953l356 -553l-180 -127l-467 480z" />
    <glyph glyph-name="oacute" unicode="&#xf3;" horiz-adv-x="1454" 
d="M1233 1135q16 228 16 315q0 438 -233 438q-85 -8 -169 -82t-156 -239.5t-113 -431.5q-40 -298 -50 -504q9 -196 62 -305t180 -109q212 10 319 315.5t144 602.5zM258 831q2 55 53 328q30 204 107.5 420.5t246.5 385.5t433 169q430 -14 430 -647q0 -355 -66 -615
q-40 -176 -92.5 -327.5t-137 -282.5t-212.5 -211.5t-299 -83.5q-465 0 -479 664q16 148 16 200zM1303 2953l217 -200l-607 -480l-143 127z" />
    <glyph glyph-name="ocircumflex" unicode="&#xf4;" horiz-adv-x="1454" 
d="M1233 1135q16 228 16 315q0 438 -233 438q-85 -8 -169 -82t-156 -239.5t-113 -431.5q-40 -298 -50 -504q9 -196 62 -305t180 -109q212 10 319 315.5t144 602.5zM258 831q2 55 53 328q30 204 107.5 420.5t246.5 385.5t433 169q430 -14 430 -647q0 -355 -66 -615
q-40 -176 -92.5 -327.5t-137 -282.5t-212.5 -211.5t-299 -83.5q-465 0 -479 664q16 148 16 200zM1184 2904l454 -496l-213 -176l-299 320l-389 -320l-143 176z" />
    <glyph glyph-name="otilde" unicode="&#xf5;" horiz-adv-x="1454" 
d="M1233 1135q16 228 16 315q0 438 -233 438q-85 -8 -169 -82t-156 -239.5t-113 -431.5q-40 -298 -50 -504q9 -196 62 -305t180 -109q212 10 319 315.5t144 602.5zM258 831q2 55 53 328q30 204 107.5 420.5t246.5 385.5t433 169q430 -14 430 -647q0 -355 -66 -615
q-40 -176 -92.5 -327.5t-137 -282.5t-212.5 -211.5t-299 -83.5q-465 0 -479 664q16 148 16 200zM1434 2769h270q-33 -151 -134 -264t-243 -113q-66 0 -112 21t-143.5 76t-133.5 55q-46 0 -72 -33.5t-26 -77.5h-262q39 167 149 263.5t240 96.5q48 0 99 -20.5t120.5 -59
t98.5 -53t58 -14.5q77 0 91 123z" />
    <glyph glyph-name="odieresis" unicode="&#xf6;" horiz-adv-x="1454" 
d="M1233 1135q16 228 16 315q0 438 -233 438q-85 -8 -169 -82t-156 -239.5t-113 -431.5q-40 -298 -50 -504q9 -196 62 -305t180 -109q212 10 319 315.5t144 602.5zM258 831q2 55 53 328q30 204 107.5 420.5t246.5 385.5t433 169q430 -14 430 -647q0 -355 -66 -615
q-40 -176 -92.5 -327.5t-137 -282.5t-212.5 -211.5t-299 -83.5q-465 0 -479 664q16 148 16 200zM881 2785q74 0 121 -55.5t47 -144.5q-19 -86 -86 -143.5t-156 -57.5q-70 0 -116 45t-52 115q41 115 88.5 172.5t153.5 68.5zM1470 2785q79 0 128 -55.5t49 -144.5
q-18 -85 -87 -143t-151 -58q-72 0 -117 45t-51 115q44 123 84.5 176.5t144.5 64.5z" />
    <glyph glyph-name="oslash" unicode="&#xf8;" horiz-adv-x="1454" 
d="M1233 1688q-12 89 -68 140.5t-141 51.5q-124 0 -225 -119q-119 -146 -187 -455.5t-84 -641.5h9zM1720 2048l-217 -295q25 -60 25 -274q0 -222 -40.5 -484t-131.5 -499t-230 -369q-159 -160 -389 -160q-124 0 -230 56t-163 153l-143 -192l-127 90l205 286q-12 48 -29 271
q7 375 122.5 772t299.5 563q186 168 401 168q262 0 369 -205l151 205zM1249 1434l-704 -1008q49 -196 225 -209q151 14 254 184q69 121 115.5 276.5t67.5 287.5t32.5 263.5t17.5 205.5h-8z" />
    <glyph glyph-name="ugrave" unicode="&#xf9;" 
d="M496 2105h274l-209 -1323q-5 -54 -21 -149.5t-20 -153.5q14 -262 225 -262q137 0 212.5 86t106 205t62.5 332l201 1265h275l-242 -1511q-98 -627 -647 -627q-459 0 -471 443q4 27 8 81t8 78zM1016 2953l360 -553l-184 -127l-463 480z" />
    <glyph glyph-name="uacute" unicode="&#xfa;" 
d="M496 2105h274l-209 -1323q-5 -54 -21 -149.5t-20 -153.5q14 -262 225 -262q137 0 212.5 86t106 205t62.5 332l201 1265h275l-242 -1511q-98 -627 -647 -627q-459 0 -471 443q4 27 8 81t8 78zM1352 2953l217 -200l-611 -480l-143 127z" />
    <glyph glyph-name="ucircumflex" unicode="&#xfb;" 
d="M496 2105h274l-209 -1323q-5 -54 -21 -149.5t-20 -153.5q14 -262 225 -262q137 0 212.5 86t106 205t62.5 332l201 1265h275l-242 -1511q-98 -627 -647 -627q-459 0 -471 443q4 27 8 81t8 78zM1167 2904l455 -496l-213 -176l-299 320l-389 -320l-143 176z" />
    <glyph glyph-name="udieresis" unicode="&#xfc;" 
d="M496 2105h274l-209 -1323q-5 -54 -21 -149.5t-20 -153.5q14 -262 225 -262q137 0 212.5 86t106 205t62.5 332l201 1265h275l-242 -1511q-98 -627 -647 -627q-459 0 -471 443q4 27 8 81t8 78zM864 2785q76 0 122 -55.5t46 -144.5q-19 -86 -86 -143.5t-155 -57.5
q-70 0 -116 44.5t-52 115.5q41 115 88.5 172.5t152.5 68.5zM1454 2785q78 0 127 -55.5t49 -144.5q-15 -84 -85 -142.5t-152 -58.5q-72 0 -117 44t-51 116q44 123 83.5 176.5t145.5 64.5z" />
    <glyph glyph-name="yacute" unicode="&#xfd;" horiz-adv-x="1360" 
d="M1376 2105h287l-1192 -2904h-270l336 856l-168 2048h262l90 -1695h16q100 277 160 438t133.5 353t163 425t182.5 479zM1311 2953l217 -200l-606 -480l-148 127z" />
    <glyph glyph-name="thorn" unicode="&#xfe;" 
d="M57 -807l590 3760h275l-160 -991h8q146 165 373 172q377 0 377 -557q0 -96 -13 -226t-36 -283.5t-37 -252.5q-68 -373 -207.5 -610.5t-452.5 -237.5q-181 0 -295 193h-8l-152 -967h-262zM578 950q-13 -110 -33 -364q5 -240 70 -321t159 -81q100 11 166.5 63t128.5 219.5
t115 508.5q65 398 65 553q0 393 -241 393q-116 -8 -195 -116t-125.5 -265.5t-72 -332t-37.5 -257.5z" />
    <glyph glyph-name="ydieresis" unicode="&#xff;" horiz-adv-x="1360" 
d="M1376 2105h287l-1192 -2904h-270l336 856l-168 2048h262l90 -1695h16q100 277 160 438t133.5 353t163 425t182.5 479zM831 2785q76 0 122 -55.5t46 -144.5q-19 -87 -84.5 -144t-152.5 -57q-73 0 -119 45t-49 115q36 113 83.5 171.5t153.5 69.5zM1425 2785q79 0 128 -55.5
t49 -144.5q-18 -84 -89.5 -142.5t-152.5 -58.5q-70 0 -116 45t-52 115q43 120 85.5 175t147.5 66z" />
    <glyph glyph-name="dotlessi" unicode="&#x131;" horiz-adv-x="631" 
d="M184 0l328 2105h270l-327 -2105h-271z" />
    <glyph glyph-name="OE" unicode="&#x152;" horiz-adv-x="2511" 
d="M1847 3088h955l-41 -258h-688l-168 -1093h663l-41 -267h-663l-201 -1208h688l-41 -262h-950l49 319h-8q-79 -160 -228 -260t-301 -100q-481 0 -536 729q-4 41 -4 131q0 341 77.5 776.5t143.5 636.5q98 328 293 609t514 297q153 0 270 -84.5t164 -235.5h4zM1376 2855
q-209 0 -380 -262.5t-291 -970.5q-82 -574 -91 -823q8 -275 88 -420.5t265 -145.5q167 0 281 138t177.5 339t87.5 340.5t80 526.5q78 446 78 729q0 549 -295 549z" />
    <glyph glyph-name="oe" unicode="&#x153;" horiz-adv-x="2298" 
d="M1200 1106q25 138 25 328q0 204 -53.5 329t-172.5 125q-189 -5 -287.5 -267.5t-142.5 -547.5q-11 -101 -23 -206.5t-18 -211.5q18 -438 226 -438q79 0 162.5 86t159.5 286t124 517zM2097 1225q17 110 17 295q0 353 -201 368q-117 0 -210 -107t-150.5 -258.5t-82.5 -297.5
h627zM2273 713q-38 -207 -124.5 -375.5t-221.5 -269.5t-305 -101q-187 0 -292.5 134t-112.5 309h-9q-76 -194 -216 -318.5t-304 -124.5q-422 0 -430 656q5 212 37 426q32 203 87.5 390t144.5 345t215.5 253.5t289.5 96.5q144 0 255 -103.5t122 -334.5h8q46 162 204 300
t353 138q402 -17 402 -655q0 -223 -49 -480h-893q-17 -124 -33 -360q12 -422 246 -422q247 0 344 496h282z" />
    <glyph glyph-name="florin" unicode="&#x192;" horiz-adv-x="1704" 
d="M950 2208h258l217 655q88 267 216.5 422.5t357.5 155.5q143 0 242 -41l-99 -287q-60 86 -168 86q-165 0 -245 -246l-250 -745h360l-70 -209h-360l-704 -2101q-48 -149 -105 -263.5t-171 -202t-286 -87.5q-96 0 -237 41l86 278q94 -82 168 -82q187 0 311 418l664 1999
h-246z" />
    <glyph glyph-name="circumflex" unicode="&#x2c6;" horiz-adv-x="1143" 
d="M1024 2904l455 -496l-213 -176l-299 320l-389 -320l-148 176z" />
    <glyph glyph-name="breve" unicode="&#x2d8;" horiz-adv-x="1143" 
d="M672 2802q11 -100 107 -146.5t212 -46.5q293 16 377 193h225q-46 -203 -224 -315t-411 -120q-218 0 -365 107t-147 328h226z" />
    <glyph glyph-name="ring" unicode="&#x2da;" horiz-adv-x="1143" 
d="M1032 2904q-77 0 -141 -54t-76 -130q0 -87 44 -136t116 -49q78 0 141.5 53.5t75.5 131.5q0 79 -38.5 131.5t-113.5 52.5h-8zM1049 3088q147 0 237 -84.5t90 -226.5q0 -111 -60 -209.5t-159.5 -157.5t-214.5 -59q-142 0 -226.5 100.5t-84.5 268.5q25 149 148 255.5
t270 112.5z" />
    <glyph glyph-name="tilde" unicode="&#x2dc;" horiz-adv-x="1143" 
d="M1282 2761h270q-33 -153 -134 -265t-242 -112q-66 0 -114 22t-144.5 75.5t-135.5 53.5q-43 0 -68.5 -33t-25.5 -77h-262q39 167 149 263.5t240 96.5q45 0 95.5 -19.5t104 -48t102 -52t75.5 -23.5q78 0 90 119z" />
    <glyph glyph-name="emdash" unicode="&#x2013;" horiz-adv-x="2048" 
d="M184 1143l49 327h2048l-49 -327h-2048z" />
    <glyph glyph-name="endash" unicode="&#x2014;" horiz-adv-x="4096" 
d="M184 1143l49 327h4088h17l-58 -327h-4087h-9z" />
    <glyph glyph-name="quoteleft" unicode="&#x2018;" horiz-adv-x="922" 
d="M1241 3039l-471 -958l-266 135l561 922z" />
    <glyph glyph-name="quoteright" unicode="&#x2019;" horiz-adv-x="922" 
d="M1241 2998l-561 -917l-184 94l471 963z" />
    <glyph glyph-name="quotedblleft" unicode="&#x201c;" horiz-adv-x="1462" 
d="M1057 2216l553 922l184 -99l-475 -958zM504 2216l561 922l176 -99l-471 -958z" />
    <glyph glyph-name="quotedblright" unicode="&#x201d;" horiz-adv-x="1462" 
d="M680 2081l-184 94l471 963l274 -140zM1233 2081l-184 94l471 963l266 -140z" />
    <glyph glyph-name="quotedblbase" unicode="&#x201e;" horiz-adv-x="1462" 
d="M799 258l-549 -913l-184 86l471 962zM1352 258l-553 -913l-185 86l476 962z" />
    <glyph glyph-name="dagger" unicode="&#x2020;" horiz-adv-x="1696" 
d="M631 -561l418 2593h-488l33 249h496l127 807h245l-127 -807h496l-37 -249h-500l-405 -2593h-258z" />
    <glyph glyph-name="daggerdbl" unicode="&#x2021;" horiz-adv-x="1696" 
d="M1032 1913h-495l41 246h487l152 929h245l-151 -929h495l-37 -246h-487l-176 -1122h487l-41 -246h-487l-176 -1106h-258l176 1106h-488l41 246h496z" />
    <glyph glyph-name="bullet" unicode="&#x2022;" horiz-adv-x="848" 
d="M614 1241q82 0 133.5 -50.5t51.5 -133.5q0 -92 -77.5 -163t-168.5 -71q-76 0 -123 47t-53 121q45 130 89.5 190t147.5 60z" />
    <glyph glyph-name="ellipsis" unicode="&#x2026;" horiz-adv-x="4096" 
d="M737 385q81 0 133 -52t52 -140q0 -86 -82 -156t-168 -70q-76 0 -126 57t-50 152q18 90 86.5 149.5t154.5 59.5zM2105 385q81 0 133 -52t52 -140q0 -86 -82 -156t-168 -70q-73 0 -120.5 57.5t-47.5 151.5q12 88 81.5 148.5t151.5 60.5zM3473 385q79 0 132 -49.5t53 -126.5
q0 -94 -77.5 -168t-172.5 -74q-73 0 -120.5 57.5t-47.5 151.5q12 88 81.5 148.5t151.5 60.5z" />
    <glyph glyph-name="perthousand" unicode="&#x2030;" horiz-adv-x="3113" 
d="M2384 831q67 359 185 533t302 180q159 0 223 -108.5t64 -309.5q0 -141 -12 -270q-65 -455 -189 -676t-348 -221q-262 11 -274 418q11 187 49 454zM2961 774q29 210 29 332q0 278 -151 278q-198 -18 -295 -639q-29 -180 -41 -360q14 -266 143 -266q77 0 131.5 70
t88.5 174.5t57 220.5t38 190zM1057 2359q33 237 33 344q0 275 -148 275q-180 0 -295 -586q-37 -210 -49 -401q13 -287 164 -287q128 17 185.5 190.5t109.5 464.5zM479 2400q52 262 106.5 409.5t135.5 223t209 96.5q187 0 257 -114.5t70 -319.5q0 -106 -16 -278
q-28 -190 -45 -281t-70.5 -235.5t-151.5 -246.5t-245 -102q-286 0 -299 422q12 191 49 426zM2159 3088h131l-1827 -3088h-135zM1982 774q33 173 33 336q0 274 -151 274q-187 -18 -287 -639q-30 -216 -41 -385q7 -123 35.5 -186t99.5 -63q140 5 205.5 201.5t105.5 461.5z
M1417 831q44 245 108 401t154.5 231.5t216.5 80.5q160 0 223.5 -105.5t63.5 -303.5q0 -99 -16 -287q-36 -297 -101.5 -491.5t-173 -296t-262.5 -101.5q-258 11 -270 410q5 82 57 462z" />
    <glyph glyph-name="guilsinglleft" unicode="&#x2039;" horiz-adv-x="1016" 
d="M754 426l-361 868l647 897l160 -102l-569 -795l311 -774z" />
    <glyph glyph-name="guilsinglright" unicode="&#x203a;" horiz-adv-x="1016" 
d="M680 2191l369 -872l-648 -893l-159 102l557 791l-312 778z" />
    <glyph glyph-name="trademark" unicode="&#x2122;" horiz-adv-x="2961" 
d="M3215 3088l-270 -1720h-209l242 1503h-8l-627 -1503h-143l-144 1503h-8l-242 -1503h-204l270 1720h360l111 -1216h8l512 1216h352zM1688 3088l-33 -209h-381l-234 -1511h-209l234 1511h-377l33 209h967z" />
    <glyph glyph-name="fi" unicode="&#xf001;" horiz-adv-x="1487" 
d="M553 2105l102 656q46 291 174.5 422t288.5 131q107 0 242 -49l-41 -287q-86 86 -193 86q-157 0 -196 -262l-115 -697h352l-41 -250h-352l-287 -1855h-270l295 1855h-225l41 250h225zM1630 2105l-327 -2105h-271l328 2105h270zM1622 2920q75 0 123.5 -46.5t48.5 -129.5
q0 -86 -72 -151.5t-161 -65.5q-67 0 -114.5 44.5t-53.5 115.5q31 68 54 118t62 82.5t113 32.5z" />
    <glyph glyph-name="fl" unicode="&#xf002;" horiz-adv-x="1487" 
d="M1815 3281l-521 -3281h-262l520 3281h263zM553 2105l102 656q46 291 174.5 422t288.5 131q107 0 242 -49l-41 -287q-86 86 -193 86q-157 0 -196 -262l-115 -697h352l-41 -250h-352l-287 -1855h-270l295 1855h-225l41 250h225z" />
    </font>
</defs>
</svg>
