<?xml version="1.0" standalone="no"?>
<!DOCTYPE svg PUBLIC "-//W3C//DTD SVG 1.1//EN" "http://www.w3.org/Graphics/SVG/1.1/DTD/svg11.dtd" >
<svg xmlns="http://www.w3.org/2000/svg" xmlns:xlink="http://www.w3.org/1999/xlink" version="1.1">
<metadata>
Created by FontForge 20170731 at Fri Jan  1 02:30:17 1904
 By Aleksey,,,
Copyright (c) 1992 Corel Corporation. All Rights Reserved.
</metadata>
<defs>
<font id="FuturaMdCn-Italic" horiz-adv-x="1679" >
  <font-face 
    font-family="Futura MdCn BT"
    font-weight="400"
    font-style="italic"
    font-stretch="condensed"
    units-per-em="4096"
    panose-1="2 11 5 6 2 2 4 10 2 4"
    ascent="3276"
    descent="-820"
    x-height="2073"
    cap-height="3088"
    bbox="-319 -889 4297 4096"
    underline-thickness="50"
    underline-position="-175"
    slope="1"
    unicode-range="U+0020-F002"
  />
<missing-glyph horiz-adv-x="3072" 
d="M512 0v2560h2048v-2560h-2048zM2494 66v2428h-1916v-2428h1916z" />
    <glyph glyph-name=".notdef" horiz-adv-x="3072" 
d="M512 0v2560h2048v-2560h-2048zM2494 66v2428h-1916v-2428h1916z" />
    <glyph glyph-name=".null" horiz-adv-x="0" 
 />
    <glyph glyph-name="nonmarkingreturn" horiz-adv-x="0" 
 />
    <glyph glyph-name="space" unicode=" " horiz-adv-x="840" 
 />
    <glyph glyph-name="exclam" unicode="!" horiz-adv-x="1032" 
d="M295 160q0 121 85 205t189 90q97 0 163.5 -50.5t66.5 -146.5q-6 -124 -89.5 -204.5t-189.5 -86.5q-73 0 -146 50.5t-79 142.5zM430 745l369 2343h418l-369 -2343h-418z" />
    <glyph glyph-name="quotedbl" unicode="&#x22;" horiz-adv-x="1024" 
d="M463 2167l98 921h352l-192 -921h-258zM999 2167l99 921h352l-193 -921h-258z" />
    <glyph glyph-name="numbersign" unicode="#" 
d="M-49 0l495 1057h-438l103 237h450l230 512h-439l103 242h450l488 1040h225l-492 -1040h369l471 1040h234l-480 -1040h455l-111 -242h-454l-242 -512h463l-102 -237h-472l-487 -1057h-225l487 1057h-360l-496 -1057h-225zM782 1294h361l241 512h-360z" />
    <glyph glyph-name="dollar" unicode="$" 
d="M745 0q-463 26 -528 463l369 168q6 -142 86.5 -211t199.5 -76q221 18 330 186.5t109 407.5q0 102 -29 172q-46 84 -168 175t-288.5 221t-260.5 284.5t-94 368.5q36 445 240.5 671t521.5 258l49 271h180l-45 -262q480 -49 529 -463l-344 -185q0 133 -92.5 214t-227.5 81
q-159 0 -277 -122.5t-124 -364.5q0 -182 99 -286.5t311 -246.5t320.5 -278t108.5 -365q0 -195 -48.5 -377.5t-146.5 -334.5t-249 -249.5t-346 -119.5l-41 -270h-184z" />
    <glyph glyph-name="percent" unicode="%" horiz-adv-x="2265" 
d="M598 2626q129 503 528 503q175 -12 251.5 -122t76.5 -320q0 -126 -29 -336q-125 -696 -577 -696q-172 17 -247 130t-81 312q9 185 78 529zM815 2343q-4 -35 -11.5 -104.5t-12.5 -116.5q13 -217 114 -217q99 0 160 133.5t102 464.5q0 34 4.5 88t4.5 88q0 200 -103 200
q-98 0 -155 -125t-103 -411zM1352 856q62 279 194 428.5t326 149.5q192 -6 272 -117.5t80 -325.5q0 -243 -51.5 -475.5t-189 -394.5t-373.5 -162q-148 0 -228 122.5t-88 348.5q15 217 58 426zM1602 729q-33 -203 -41 -311q14 -209 118 -209q95 0 158 124t109 466q0 29 4 90
t4 86q0 209 -123 209q-89 -6 -136.5 -111t-92.5 -344zM242 0l2015 3088h254l-2015 -3088h-254z" />
    <glyph glyph-name="ampersand" unicode="&#x26;" horiz-adv-x="2023" 
d="M1118 1806q189 154 283 294t94 308q0 65 -52 108.5t-132 43.5q-123 0 -205.5 -109.5t-89.5 -234.5q4 -58 19 -118.5t46.5 -166.5t36.5 -125zM1241 528l-311 713q-168 -150 -246 -286.5t-78 -307.5q0 -147 80.5 -242.5t202.5 -101.5q191 14 352 225zM1368 242
q-123 -140 -277 -211.5t-309 -71.5t-287.5 79t-209 228t-76.5 348q0 125 39 247.5t113.5 239t177.5 230.5t235 230q-130 300 -143 573q5 205 98 375t257.5 270t365.5 100q227 0 357 -136t130 -351q-5 -138 -74.5 -288t-201 -304t-314.5 -305l295 -664l311 361l234 -217
l-401 -455l241 -520h-459z" />
    <glyph glyph-name="quotesingle" unicode="'" horiz-adv-x="872" 
d="M930 3138l311 -107l-569 -1085l-201 61z" />
    <glyph glyph-name="parenleft" unicode="(" horiz-adv-x="1126" 
d="M455 -463q-123 543 -136 1086q15 1317 713 2515l361 -99q-233 -450 -377 -817.5t-217.5 -722.5t-77.5 -737q12 -502 135 -1131z" />
    <glyph glyph-name="parenright" unicode=")" horiz-adv-x="1126" 
d="M1098 3138q135 -582 135 -1090q0 -1242 -705 -2511l-368 94q168 328 292.5 621.5t205.5 564t123 548t42 564.5q0 524 -127 1110z" />
    <glyph glyph-name="asterisk" unicode="*" horiz-adv-x="1462" 
d="M1126 3088h160l-78 -544l496 286l65 -135l-512 -270l431 -266l-111 -136l-410 275l-69 -529h-176l102 541l-487 -287l-82 136l512 266l-422 246l94 147l426 -274z" />
    <glyph glyph-name="plus" unicode="+" horiz-adv-x="2048" 
d="M1073 1192l135 889h287l-135 -889h704l-49 -287h-704l-144 -897h-286l143 897h-705l50 287h704z" />
    <glyph glyph-name="comma" unicode="," horiz-adv-x="840" 
d="M385 430l311 -102l-569 -1082l-201 58z" />
    <glyph glyph-name="hyphen" unicode="-" horiz-adv-x="991" 
d="M319 1217h738l-49 -312h-738z" />
    <glyph glyph-name="period" unicode="." horiz-adv-x="840" 
d="M209 193q6 109 89 182.5t189 79.5q85 0 148.5 -48.5t69.5 -144.5q0 -119 -90.5 -207t-204.5 -88q-90 0 -145.5 65t-55.5 161z" />
    <glyph glyph-name="slash" unicode="/" horiz-adv-x="1663" 
d="M2007 3400h320l-2184 -3826h-327z" />
    <glyph glyph-name="zero" unicode="0" 
d="M295 770q40 480 97 863t171 728t306 556.5t474 211.5q294 -11 415.5 -230.5t121.5 -506.5v-94q-53 -519 -97 -841.5t-154 -679.5t-314 -587.5t-516 -230.5q-147 4 -262.5 95t-180.5 251t-65 367q0 65 4 98zM696 774q0 -53 -8 -86q13 -340 201 -352q179 0 303 336.5
t189.5 792t88.5 853.5v82q0 361 -196 361q-51 0 -98 -25q-150 -77 -255.5 -485t-160 -847t-64.5 -630z" />
    <glyph glyph-name="one" unicode="1" 
d="M831 3088h705l-487 -3088h-410l442 2736h-307z" />
    <glyph glyph-name="two" unicode="2" 
d="M799 360h770l-58 -360h-1359l1007 1610q352 559 352 876q0 267 -217 267q-108 0 -175 -67.5t-99.5 -167t-48.5 -212t-29 -217.5h-414q47 375 141.5 599t269.5 332.5t462 108.5q528 -11 528 -528q0 -292 -155.5 -660.5t-311.5 -597.5z" />
    <glyph glyph-name="three" unicode="3" 
d="M1401 1593q287 -65 287 -467q0 -287 -95 -555t-301.5 -440t-517.5 -172q-259 12 -386 134t-130 386q6 160 29 295h401q-15 -56 -33 -180q0 -116 66 -188t160 -78q119 7 221.5 121.5t130.5 324.5q33 287 33 352q0 164 -84 231.5t-326 67.5l57 369q29 -4 82 -4
q123 0 205.5 36t128.5 89t67.5 108t28.5 74q54 203 54 377q0 115 -46.5 201t-150.5 86q-115 0 -205 -135.5t-102 -360.5h-389q44 330 148 522.5t252 267t341 74.5q553 0 553 -536q0 -213 -39.5 -411t-145 -357.5t-286.5 -222.5z" />
    <glyph glyph-name="four" unicode="4" 
d="M1839 3088l-303 -1937h201l-49 -303h-201l-135 -848h-402l140 848h-832l45 352l1139 1888h397zM1135 1151l208 1315h-16l-704 -1315h512z" />
    <glyph glyph-name="five" unicode="5" 
d="M1024 1954q597 0 672 -500q8 -45 8 -172q0 -315 -124 -620t-364 -500t-561 -195q-251 0 -471 119l168 369q192 -122 344 -136q186 16 314.5 146.5t192 317t63.5 368.5q0 123 -9 176q-17 144 -135.5 219.5t-298.5 75.5q-164 0 -254 -29l414 1495h983l-53 -352h-664z" />
    <glyph glyph-name="six" unicode="6" 
d="M713 606q0 -108 48.5 -193t135.5 -85q128 0 213.5 163.5t124.5 394t39 425.5q0 99 -54.5 162t-138.5 63q-32 0 -82 -16q-75 -28 -141 -167.5t-105.5 -341.5t-39.5 -405zM930 1761q149 135 356 135q177 0 293.5 -131t116.5 -422q0 -335 -64.5 -633t-244.5 -511t-498 -240
q-312 0 -453.5 170t-148.5 440q8 29 8 78q22 297 74.5 552t133 474.5t177 405.5t225.5 395l381 614h451l-815 -1319z" />
    <glyph glyph-name="seven" unicode="7" 
d="M639 3088h1384l-1425 -3088h-446l1298 2736h-856z" />
    <glyph glyph-name="eight" unicode="8" 
d="M807 1671v8q-239 65 -254 455q14 175 33 274q61 323 220 522t546 199q305 -11 416.5 -146t111.5 -349q0 -36 -4 -96t-4 -80q-21 -204 -83.5 -369.5t-159 -273.5t-212.5 -136v-8q262 -51 262 -479q0 -214 -43 -425t-141 -397.5t-258 -298.5t-381 -112q-263 0 -413.5 129.5
t-155.5 480.5q14 142 35 331t68.5 342.5t148 269t268.5 159.5zM713 672q0 -49 -8 -78q15 -258 192 -258q315 0 360 790q0 328 -184 328h-8q-168 -8 -245 -225.5t-107 -556.5zM967 2130q0 -275 192 -275q122 18 200 199t95 395v45q0 267 -180 267q-106 -8 -175 -109
t-100.5 -243.5t-31.5 -278.5z" />
    <glyph glyph-name="nine" unicode="9" 
d="M913 1946q0 -25 -16 -123q6 -124 60 -201.5t149 -77.5q115 11 187.5 129t108 301t52.5 434v66q0 279 -205 279q-87 -11 -146 -94.5t-93.5 -202t-56 -252.5t-40.5 -258zM1233 1303q-134 -115 -344 -127q-178 7 -296 134t-118 390q0 69 4 106q32 375 105.5 632.5
t183.5 407.5t255.5 216.5t328.5 66.5q295 -6 411.5 -161t116.5 -433q0 -211 -29 -424.5t-89 -431.5t-146 -416.5t-199 -373.5l-553 -889h-446l823 1286z" />
    <glyph glyph-name="colon" unicode=":" horiz-adv-x="840" 
d="M209 193q6 109 89 182.5t189 79.5q85 0 148.5 -48.5t69.5 -144.5q0 -119 -90.5 -207t-204.5 -88q-90 0 -145.5 65t-55.5 161zM471 1831q6 110 91 188t192 78q78 0 142.5 -51t70.5 -141q0 -126 -87.5 -198t-207.5 -97q-91 6 -146 64t-55 157z" />
    <glyph glyph-name="semicolon" unicode=";" horiz-adv-x="840" 
d="M385 430l320 -102l-570 -1082l-209 58zM463 1831q12 111 98.5 188.5t192.5 77.5q78 0 142.5 -51t70.5 -141q0 -130 -80.5 -195t-222.5 -108q-89 6 -145 70t-56 159z" />
    <glyph glyph-name="less" unicode="&#x3c;" horiz-adv-x="2048" 
d="M319 913l50 263l1839 946l-49 -299l-1495 -783l1249 -782l-49 -299z" />
    <glyph glyph-name="equal" unicode="=" horiz-adv-x="2048" 
d="M2122 1577l-41 -291h-1696l45 291h1692zM1999 791l-45 -287h-1692l41 287h1696z" />
    <glyph glyph-name="greater" unicode="&#x3e;" horiz-adv-x="2048" 
d="M2056 1176l-41 -263l-1839 -954l49 299l1495 782l-1257 783l57 299z" />
    <glyph glyph-name="question" unicode="?" horiz-adv-x="1401" 
d="M504 2327q36 237 96.5 405.5t202 282.5t389.5 114q115 0 218.5 -27t190.5 -145t87 -356q0 -108 -25 -274q-54 -327 -107.5 -515t-164.5 -306t-301 -122l-115 -655h-361l156 934q66 -8 94 -8q137 0 213 65t114.5 190.5t74.5 362.5q16 124 16 238q0 274 -156 274
q-86 -4 -133 -81t-65.5 -171t-30.5 -206h-393zM745 455q106 0 159.5 -60t53.5 -145q0 -110 -85.5 -196.5t-192.5 -86.5q-110 0 -163.5 68t-53.5 166q6 96 92.5 175t189.5 79z" />
    <glyph glyph-name="at" unicode="@" horiz-adv-x="3281" 
d="M2150 2224q-180 0 -332.5 -99t-267.5 -252.5t-198 -336.5q-89 -183 -103 -393q13 -279 262 -279q144 0 293 123.5t273 316t204 400.5q70 170 70 295q0 215 -201 225zM2937 745h254q-149 -208 -376.5 -385.5t-513.5 -285t-589 -107.5q-338 0 -652 144.5t-515 454
t-201 769.5q6 357 160 683t417.5 577t593 392.5t676.5 141.5q277 0 514 -83.5t407 -235.5t261.5 -356.5t91.5 -446.5q0 -151 -57 -377q-70 -234 -204 -428t-299.5 -330t-338 -209.5t-317.5 -76.5q-266 13 -320 221q-123 -93 -235.5 -146t-300.5 -63q-210 0 -346 138.5
t-142 373.5q18 315 195 632t461 526t598 226q151 0 281 -87.5t136 -215.5l103 217h282l-680 -1368q-25 -60 -40 -143q0 -76 110 -90q25 8 57 8q217 56 395 234.5t279 424t101 492.5q0 236 -92 431t-295 321.5t-515 152.5q-36 4 -110 4q-374 0 -739 -195.5t-597.5 -554.5
t-236.5 -814q0 -333 159.5 -582t429 -382t591.5 -138q205 5 409.5 64.5t397 177.5t352.5 294z" />
    <glyph glyph-name="A" unicode="A" horiz-adv-x="1696" 
d="M1176 3088h327l176 -3088h-413l-25 598h-618l-205 -598h-402zM745 922h488l8 1572h-8z" />
    <glyph glyph-name="B" unicode="B" horiz-adv-x="1712" 
d="M737 3088h504q362 0 484 -138.5t122 -389.5q0 -843 -512 -983v-8q336 -100 336 -496q0 -95 -24 -237t-25 -148q-72 -415 -327.5 -551.5t-540.5 -136.5h-504zM1073 2744l-160 -1015q275 0 406 203.5t131 484.5q0 162 -79.5 244.5t-203.5 82.5h-94zM864 1401l-168 -1049
q237 0 346.5 96.5t157.5 305.5q41 180 41 295q0 352 -336 352h-41z" />
    <glyph glyph-name="C" unicode="C" horiz-adv-x="1511" 
d="M1929 3039l-57 -377q-122 91 -262 91q-141 0 -279 -91.5t-233 -253.5q-53 -85 -123 -309.5t-121 -507t-55 -542.5q17 -322 101.5 -512t356.5 -201q151 14 254 74l-57 -361q-141 -90 -356 -90q-195 0 -366.5 88.5t-252.5 231.5q-104 201 -119 663q5 350 78.5 735.5
t203 704.5t288.5 473q117 114 283 194t348 80q200 0 368 -90z" />
    <glyph glyph-name="D" unicode="D" horiz-adv-x="1913" 
d="M737 3088h647q608 0 656 -782v-94q0 -302 -49.5 -656t-155.5 -686t-266 -542q-159 -208 -415.5 -268t-559.5 -60h-344zM1098 2744l-385 -2392q539 0 704 520q36 113 84.5 356.5t82.5 506.5t34 448q0 238 -131.5 399.5t-388.5 161.5z" />
    <glyph glyph-name="E" unicode="E" horiz-adv-x="1425" 
d="M737 3088h1102l-53 -352h-688l-160 -975h623l-58 -352h-622l-160 -1049h688l-57 -360h-1102z" />
    <glyph glyph-name="F" unicode="F" horiz-adv-x="1401" 
d="M737 3088h1110l-53 -352h-696l-160 -975h631l-58 -352h-630l-226 -1409h-405z" />
    <glyph glyph-name="G" unicode="G" horiz-adv-x="1888" 
d="M1233 1630h749l-61 -454q-47 -291 -119.5 -512t-182 -378.5t-266.5 -242t-370 -84.5q-231 0 -372.5 91t-205.5 269t-69 451q12 396 102 901q75 423 166.5 701t213.5 444.5t283.5 239.5t385.5 73q278 0 434.5 -150.5t192.5 -484.5l-426 -151q0 201 -74.5 305.5
t-204.5 104.5q-96 0 -191.5 -73t-152.5 -202q-47 -107 -95 -314.5t-93 -488t-70 -536.5t-25 -434q9 -154 41 -230t82 -101t135 -30q136 0 227 108.5t140 261t75 317.5t38 243h-344z" />
    <glyph glyph-name="H" unicode="H" horiz-adv-x="1937" 
d="M737 3088h406l-185 -1200h619l192 1200h406l-487 -3088h-406l238 1528h-615l-250 -1528h-405z" />
    <glyph glyph-name="I" unicode="I" horiz-adv-x="913" 
d="M1143 3088l-488 -3088h-405l487 3088h406z" />
    <glyph glyph-name="J" unicode="J" horiz-adv-x="1241" 
d="M1073 3088h406l-369 -2318q-62 -461 -262 -651q-160 -160 -463 -160q-227 0 -344 82l61 414q125 -92 267 -103q112 15 176 58q79 51 112 163.5t56 298.5z" />
    <glyph glyph-name="K" unicode="K" horiz-adv-x="1737" 
d="M922 1585l815 1503h422l-848 -1495l409 -1593h-471zM913 1585l-258 -1585h-405l487 3088h406z" />
    <glyph glyph-name="L" unicode="L" horiz-adv-x="1352" 
d="M737 3088h406l-422 -2728h688l-57 -360h-1102z" />
    <glyph glyph-name="M" unicode="M" horiz-adv-x="2298" 
d="M840 3088h352l90 -2224h4q235 769 754 2224h360l-200 -3088h-402q6 55 53 525t67.5 670.5t51 459.5t62.5 475h-9q-66 -219 -147.5 -459.5t-203 -586t-204 -579.5t-174.5 -505h-278q-12 353 -17.5 534.5t-15 526.5t-20.5 682.5t-13 386.5h-8l-455 -2130h-393z" />
    <glyph glyph-name="N" unicode="N" horiz-adv-x="1937" 
d="M250 0l487 3088h389l361 -2343l8 9q28 378 46 619.5t40.5 466.5t66 530t113.5 718h414l-487 -3088h-385l-345 2384l-8 -8q-21 -373 -63 -769t-101 -793.5t-131 -813.5h-405z" />
    <glyph glyph-name="O" unicode="O" horiz-adv-x="1954" 
d="M336 881q50 539 129.5 972t277.5 806t539 446q70 16 205 16q323 0 468.5 -227.5t145.5 -558.5q0 -17 -2 -48t-2 -46q-29 -487 -99.5 -892.5t-201 -718.5t-340 -492t-506.5 -179q-211 0 -351 112.5t-203.5 296t-63.5 402.5q0 74 4 111zM782 889q0 -82 -8 -135
q13 -410 283 -410q184 4 312.5 311t195.5 703t90 715q0 38 4 113t4 112q0 237 -59 341.5t-211 104.5q-157 0 -271 -203.5t-182.5 -503.5t-103 -585.5t-54.5 -562.5z" />
    <glyph glyph-name="P" unicode="P" horiz-adv-x="1593" 
d="M250 0l487 3088h549q223 0 363 -57t206 -181.5t66 -330.5q0 -75 -16 -229q-52 -367 -191.5 -568.5t-348 -277.5t-493.5 -76l-217 -1368h-405zM930 1720q238 0 360.5 108t163.5 372q16 130 16 184q0 195 -90 277.5t-290 82.5z" />
    <glyph glyph-name="Q" unicode="Q" horiz-adv-x="1962" 
d="M1208 410l-200 372l278 193l123 -213h8q114 435 180 803.5t66 707.5q0 450 -229 480q-224 0 -366 -337.5t-205 -751.5t-89 -783q0 -15 -2 -43t-2 -39q0 -203 66.5 -330t179.5 -133q93 11 192 74zM1401 86q-236 -127 -463 -127q-179 0 -315 93t-213.5 280t-81.5 459
q16 146 16 200q66 676 190 1143.5t355 735.5t590 268q334 0 476 -238t142 -602v-139q-18 -294 -75.5 -644.5t-153.5 -670.5t-221 -508l217 -385l-295 -193z" />
    <glyph glyph-name="R" unicode="R" horiz-adv-x="1704" 
d="M250 0l487 3088h566q302 0 439.5 -128t137.5 -416q0 -216 -50.5 -442.5t-177.5 -399.5t-333 -199l336 -1503h-430l-320 1511h-8l-242 -1511h-405zM938 1720q279 0 391.5 215.5t112.5 513.5q0 197 -85 246t-259 49z" />
    <glyph glyph-name="S" unicode="S" horiz-adv-x="1450" 
d="M258 520q178 -154 381 -168q183 6 305.5 143.5t128.5 344.5q0 186 -79.5 319.5t-239.5 317t-242 335.5t-82 363q0 282 115 501.5t309 340.5t420 121q217 0 414 -107l-70 -422q-141 135 -332 135q-154 0 -278 -115.5t-160 -322.5q0 -137 68.5 -250t234.5 -332t251 -390.5
t85 -375.5q0 -255 -107 -486t-306.5 -372t-459.5 -141q-265 0 -421 143z" />
    <glyph glyph-name="T" unicode="T" horiz-adv-x="1319" 
d="M471 3088h1360l-53 -352h-467l-430 -2736h-418l442 2736h-487z" />
    <glyph glyph-name="U" unicode="U" horiz-adv-x="1913" 
d="M737 3088h414l-344 -2158q-34 -242 -37 -332q3 -123 53 -188.5t168 -65.5q141 0 217 47t115.5 154.5t69.5 310.5l352 2232h414l-353 -2207q-35 -247 -95 -419.5t-155.5 -280t-242 -162t-363.5 -60.5q-205 0 -333.5 58.5t-190 184t-66.5 326.5q21 255 33 353z" />
    <glyph glyph-name="V" unicode="V" horiz-adv-x="1585" 
d="M623 0l-103 3088h410l-17 -2318h9q65 245 152.5 527t190 594t229.5 690t169 507h385l-1098 -3088h-327z" />
    <glyph glyph-name="W" unicode="W" horiz-adv-x="2425" 
d="M545 0l-49 3088h401q0 -3 -6.5 -483.5t-10.5 -739t-14.5 -563t-25.5 -532.5h8q336 1226 704 2318h320l-33 -2306h8q83 311 153.5 559.5t174.5 601t173 585.5t163 560h401l-1032 -3088h-328v369v336q3 181 5.5 542t8 596.5t19.5 454.5h-8q-66 -277 -147.5 -560
t-159.5 -531.5t-187 -582t-202 -624.5h-336z" />
    <glyph glyph-name="X" unicode="X" horiz-adv-x="1753" 
d="M94 0l844 1569l-315 1519h409q18 -102 69 -345.5t79.5 -422.5t36.5 -346h8q193 482 504 1114h413l-807 -1519l320 -1569h-422q-24 157 -71 400.5t-72 416.5t-25 334h-8q-37 -136 -120.5 -322.5t-223 -469t-176.5 -359.5h-443z" />
    <glyph glyph-name="Y" unicode="Y" horiz-adv-x="1610" 
d="M614 0l217 1327l-335 1761h442l152 -1425h8q45 154 108 324.5t161 407.5t173 416t115 277h434l-848 -1753l-209 -1335h-418z" />
    <glyph glyph-name="Z" unicode="Z" horiz-adv-x="1610" 
d="M655 3088h1368l-1359 -2728h880l-57 -360h-1421l1368 2736h-828z" />
    <glyph glyph-name="bracketleft" unicode="[" horiz-adv-x="1233" 
d="M639 3088h905l-41 -270h-553l-471 -2961h553l-49 -283h-897z" />
    <glyph glyph-name="backslash" unicode="\" horiz-adv-x="1024" 
d="M913 0l-585 3400h319l586 -3400h-320z" />
    <glyph glyph-name="bracketright" unicode="]" horiz-adv-x="1233" 
d="M664 3088h897l-553 -3514h-897l41 283h544l471 2961h-544z" />
    <glyph glyph-name="asciicircum" unicode="^" horiz-adv-x="2048" 
d="M1409 3088h201l479 -1704h-274l-365 1328l-786 -1328h-263z" />
    <glyph glyph-name="underscore" unicode="_" horiz-adv-x="2048" 
d="M1929 -770h-2048l45 315h2048z" />
    <glyph glyph-name="grave" unicode="`" horiz-adv-x="1143" 
d="M729 2879l303 177l242 -607l-225 -122z" />
    <glyph glyph-name="a" unicode="a" horiz-adv-x="1561" 
d="M799 1561q-53 -133 -111.5 -454t-64.5 -509q16 -82 28 -142t46.5 -103t109.5 -50q89 6 167.5 92.5t115.5 227.5q127 548 127 872q0 128 -51 193t-134 65q-64 0 -127.5 -49t-105.5 -143zM1032 262q-76 -145 -188 -220t-238 -75q-146 0 -223.5 77.5t-102 177t-47.5 282.5
q8 342 75.5 704.5t162.5 544.5q181 352 459 352q135 0 240.5 -83.5t111.5 -182.5h4l33 234h393l-328 -2073h-385l41 262h-8z" />
    <glyph glyph-name="b" unicode="b" horiz-adv-x="1561" 
d="M807 1462q-46 -130 -90.5 -413.5t-44.5 -434.5q0 -147 47 -226t121 -85q99 6 190.5 115t120.5 278q85 506 106 697q0 183 -49 275.5t-135 92.5q-173 0 -266 -299zM176 0l537 3400h385l-242 -1561h8q64 119 181.5 192.5t240.5 73.5q165 0 267 -144t102 -458
q-9 -195 -41 -399.5t-78.5 -388t-93.5 -305.5q-87 -230 -219 -336.5t-281 -106.5q-129 0 -226 84.5t-110 210.5h-8l-37 -262h-385z" />
    <glyph glyph-name="c" unicode="c" horiz-adv-x="1135" 
d="M1106 410l-57 -361q-186 -82 -336 -82q-444 0 -480 647q4 211 53 457t121 449t146 311q195 274 504 274q150 0 303 -73l-57 -394h-9q-34 99 -184 99q-187 0 -303 -226q-49 -118 -102 -348t-58 -426q6 -57 15.5 -138t30.5 -138.5t68.5 -96t127.5 -45.5q114 13 217 91z" />
    <glyph glyph-name="d" unicode="d" horiz-adv-x="1561" 
d="M782 1511q-52 -153 -102.5 -444.5t-56.5 -468.5q11 -74 21.5 -138.5t42 -111t104.5 -53.5q78 6 157.5 81t116.5 177q55 142 103.5 469t48.5 489q-6 118 -55.5 184t-129.5 66q-72 0 -140 -64t-110 -186zM1032 262q-55 -132 -181 -213.5t-265 -81.5q-149 0 -223.5 88
t-95 198.5t-34.5 299.5q7 293 78 629.5t127 480.5q87 220 223 331t277 111q127 0 220.5 -72.5t123.5 -193.5h4l250 1561h385l-537 -3400h-393l49 262h-8z" />
    <glyph glyph-name="e" unicode="e" horiz-adv-x="1479" 
d="M664 958q-23 -126 -41 -344q11 -303 184 -303q107 0 189 94.5t110 290.5h356q-70 -391 -267 -556.5t-450 -172.5q-499 0 -512 639q17 125 17 185q23 287 103 585.5t255.5 513.5t456.5 215q278 -11 387 -183t109 -468q0 -67 -7 -156.5t-15 -162.5t-19 -177h-856zM713 1233
h454q25 138 25 246q0 282 -176 282q-243 0 -303 -528z" />
    <glyph glyph-name="f" unicode="f" horiz-adv-x="1016" 
d="M279 0l282 1769h-192l49 304h188l131 790q48 316 189.5 447t330.5 131q115 0 287 -66l-74 -397q-72 45 -159 45q-86 0 -141 -57t-64 -156l-115 -737h320l-45 -304h-324l-278 -1769h-385z" />
    <glyph glyph-name="g" unicode="g" horiz-adv-x="1569" 
d="M705 1241q-64 -393 -74 -602q14 -318 176 -328q133 0 210.5 144.5t133.5 449.5q49 298 49 479q0 349 -151 377q-115 0 -208.5 -147.5t-135.5 -372.5zM1032 250q-157 -283 -446 -283q-119 9 -194.5 69.5t-114.5 182t-44 309.5q11 186 46 521q60 407 165 641t229.5 322
t268.5 93q248 0 340 -282l4 8l41 242h393l-344 -2167q-42 -263 -124.5 -434t-221.5 -260t-350 -93q-282 0 -435 107.5t-159 363.5q4 29 11.5 83.5t13.5 101.5h376q0 -30 -16 -94q10 -218 217 -218q227 0 270 312l82 475h-8z" />
    <glyph glyph-name="h" unicode="h" horiz-adv-x="1593" 
d="M184 0l537 3400h385l-250 -1569h8q177 266 455 266h115q229 -30 229 -368q0 -56 -25 -295l-221 -1434h-385l225 1450q0 19 4.5 50t4.5 52q0 209 -176 209q-246 0 -308 -368l-213 -1393h-385z" />
    <glyph glyph-name="i" unicode="i" horiz-adv-x="737" 
d="M889 2073l-328 -2073h-385l328 2073h385zM537 2671q12 115 98.5 195.5t195.5 86.5q79 0 147 -49t79 -143q0 -145 -81 -212t-222 -108q-100 6 -158.5 66t-58.5 164z" />
    <glyph glyph-name="j" unicode="j" horiz-adv-x="737" 
d="M889 2073l-463 -2921h-385l463 2921h385zM537 2671q6 103 95 189.5t191 92.5q85 0 154 -50.5t80 -149.5q0 -242 -303 -312q-94 6 -155.5 69t-61.5 161z" />
    <glyph glyph-name="k" unicode="k" horiz-adv-x="1618" 
d="M721 3400h385l-352 -2249h8l622 922h422l-671 -922l417 -1151h-446l-361 1098h-8l-168 -1098h-385z" />
    <glyph glyph-name="l" unicode="l" horiz-adv-x="737" 
d="M1098 3400l-537 -3400h-385l537 3400h385z" />
    <glyph glyph-name="m" unicode="m" horiz-adv-x="2417" 
d="M176 0l328 2073h393l-41 -258h8q179 290 455 290q139 -6 226 -81t93 -209h9q106 169 227.5 229.5t284.5 60.5q344 -11 344 -344q0 -98 -9 -143l-253 -1618h-386l234 1454q0 21 4 56t4 51q0 200 -168 200q-131 0 -203 -80t-104 -256l-221 -1425h-385l233 1479q0 16 4 47
t4 43q0 192 -176 192q-78 0 -134.5 -31.5t-101 -125t-71.5 -269.5l-213 -1335h-385z" />
    <glyph glyph-name="n" unicode="n" horiz-adv-x="1593" 
d="M1647 1511l-230 -1511h-385l225 1454q0 17 4.5 47t4.5 51q0 209 -176 209q-135 0 -204 -90t-112 -336l-205 -1335h-385l320 2073h393l-41 -242h8q177 274 455 274q183 0 263.5 -81t80.5 -271q0 -60 -16 -242z" />
    <glyph glyph-name="o" unicode="o" horiz-adv-x="1536" 
d="M319 1257q85 435 293 638t478 210q532 0 532 -688q0 -188 -53 -504q-175 -946 -795 -946q-264 0 -395 159t-137 497q10 230 77 634zM672 1032q-37 -222 -49 -409q6 -158 57.5 -231t175.5 -73q138 30 218 215t118 515q2 18 15.5 94.5t23.5 158.5t10 148q0 303 -192 303
q-96 0 -162.5 -72t-105.5 -180.5t-64.5 -238t-44.5 -230.5z" />
    <glyph glyph-name="p" unicode="p" horiz-adv-x="1561" 
d="M1081 1761q-114 -4 -186.5 -116.5t-106.5 -250t-67 -345.5q-50 -320 -57 -435q13 -303 184 -303q95 0 158 75.5t102 199.5t84 336q57 304 57 503q0 336 -168 336zM41 -848l463 2921h385l-41 -275h8q62 145 175.5 226t242.5 81q364 0 364 -585q0 -313 -61.5 -644
t-142.5 -524q-81 -190 -216.5 -287.5t-279.5 -97.5q-126 0 -219.5 72t-112.5 194h-8l-172 -1081h-385z" />
    <glyph glyph-name="q" unicode="q" horiz-adv-x="1561" 
d="M1032 1761q-155 -11 -229.5 -196.5t-138.5 -597.5q-33 -247 -41 -361q13 -295 192 -295q150 6 231 198.5t130 547.5q41 261 41 393q0 311 -185 311zM1249 -848h-385l168 1081h-8q-60 -129 -171.5 -201.5t-238.5 -72.5q-151 0 -230.5 80.5t-106.5 184.5t-52 288
q5 162 29 349t68 388t104 381q72 230 218 352.5t298 122.5q129 0 219 -79t113 -220h8l45 267h385z" />
    <glyph glyph-name="r" unicode="r" horiz-adv-x="1106" 
d="M184 0l320 2073h393l-41 -258h8q180 290 479 290l-57 -385q-29 4 -86 4q-197 0 -293 -100.5t-133 -296.5l-205 -1327h-385z" />
    <glyph glyph-name="s" unicode="s" horiz-adv-x="1126" 
d="M201 438q48 -53 132 -91t171 -44q217 15 278 209q17 54 17 106q0 102 -58 168t-187.5 175t-196.5 212t-70 261q8 28 8 61q24 281 214 445.5t433 164.5q194 0 340 -98l-57 -360q-95 106 -283 106q-97 0 -172.5 -41t-105.5 -127q-17 -43 -17 -90q0 -86 46 -136t184.5 -169
t206 -230t67.5 -280q0 -188 -88 -353.5t-244.5 -262.5t-347.5 -97q-175 0 -336 99z" />
    <glyph glyph-name="t" unicode="t" horiz-adv-x="905" 
d="M680 2654h385l-98 -581h209l-50 -304h-204l-283 -1769h-381l279 1769h-209l49 304h209z" />
    <glyph glyph-name="u" unicode="u" horiz-adv-x="1593" 
d="M504 2073h393l-233 -1434q0 -24 -17 -111q14 -209 209 -209q230 0 270 295l234 1459h385l-234 -1479q-26 -159 -96.5 -298t-203.5 -230t-330 -99q-320 0 -470 103t-153 376q5 90 21 209z" />
    <glyph glyph-name="v" unicode="v" horiz-adv-x="1462" 
d="M385 2073h406l24 -1569h16q74 244 165 515t195 563t177 491h377l-873 -2073h-258z" />
    <glyph glyph-name="w" unicode="w" horiz-adv-x="1991" 
d="M311 2073h410q0 -1344 -8 -1487h8q205 702 479 1487h270v-1487h17q110 393 159.5 558.5t123.5 384t192 544.5h373l-815 -2073h-263q-4 241 -9.5 383t-16 349.5t-14.5 332.5q14 288 32 455h-8q-100 -383 -202 -705t-277 -815h-275z" />
    <glyph glyph-name="x" unicode="x" horiz-adv-x="1618" 
d="M385 2073h455l176 -713q112 261 377 713h401l-618 -975l393 -1098h-459q-85 276 -119.5 393.5t-60 236t-25.5 210.5h-8q-14 -74 -60.5 -175.5t-104.5 -202t-148.5 -248.5t-128.5 -214h-398l688 1098z" />
    <glyph glyph-name="y" unicode="y" horiz-adv-x="1528" 
d="M344 2073h430l74 -1450h8l578 1450h389l-1303 -2921h-409l483 1016z" />
    <glyph glyph-name="z" unicode="z" horiz-adv-x="1376" 
d="M438 2073h1200l-966 -1729h655l-45 -344h-1225l992 1729h-664z" />
    <glyph glyph-name="braceleft" unicode="{" horiz-adv-x="1057" 
d="M242 1450q233 20 315 114.5t107 241.5l110 705q26 167 72.5 284.5t186.5 207t405 89.5q65 0 98 -4l-41 -233q-219 -16 -287 -110.5t-98 -258.5l-102 -688q-67 -385 -455 -455v-8q178 -34 244.5 -122.5t66.5 -229.5q0 -22 -4 -74t-4 -78l-94 -598q-3 -22 -25 -192
q7 -100 67 -153t212 -64l-41 -234h-144q-254 0 -350.5 94.5t-103.5 266.5q4 44 18 134t15 99l102 664q0 17 4 53t4 49q0 122 -69 194t-242 89z" />
    <glyph glyph-name="bar" unicode="|" horiz-adv-x="1024" 
d="M369 0l536 3400h287l-537 -3400h-286z" />
    <glyph glyph-name="braceright" unicode="}" horiz-adv-x="1057" 
d="M1249 1233q-232 -21 -315.5 -112.5t-110.5 -231.5l-110 -705q-24 -140 -50.5 -228t-93.5 -174.5t-199 -141t-337 -54.5q-14 0 -44 2t-46 2l41 234q154 11 233.5 71t105.5 134t37 164l111 688q67 387 467 454v8q-179 35 -252 126.5t-80 226.5q17 121 17 151l106 611
q16 122 16 168q0 109 -60 163.5t-222 65.5l33 233h151q451 0 451 -401q0 -76 -17 -201l-114 -655q0 -15 -17 -119q15 -237 332 -262z" />
    <glyph glyph-name="asciitilde" unicode="~" horiz-adv-x="2048" 
d="M319 872q252 438 521 480q92 0 186 -36.5t224.5 -109.5t190.5 -101.5t120 -31.5q24 8 57 8q149 34 336 328l110 -192q-112 -182 -237 -297t-299 -158q-82 3 -170 40.5t-210.5 107.5t-196 104.5t-136.5 34.5q-83 0 -151.5 -57t-129.5 -148.5t-108 -163.5z" />
    <glyph glyph-name="exclamdown" unicode="&#xa1;" horiz-adv-x="1032" 
d="M1090 2081q-6 -115 -85.5 -196.5t-173.5 -90.5q-98 0 -168.5 47.5t-76.5 140.5q5 6 6.5 10.5t1.5 6.5q0 120 85.5 202.5t192.5 88.5q74 0 146 -55.5t72 -153.5zM958 1503l-364 -2343h-410l369 2343h405z" />
    <glyph glyph-name="cent" unicode="&#xa2;" 
d="M1552 2888l-49 -295q129 -18 185 -41l-66 -369q-79 49 -172 49q-140 0 -224.5 -143t-118.5 -309t-34 -228q-4 -38 -20 -160.5t-21 -207.5q0 -351 217 -361q109 16 176 49l-57 -344q-102 -57 -209 -57l-41 -262h-180l37 254q-186 53 -284.5 193.5t-104.5 424.5
q9 250 40 472t109.5 440.5t219.5 379t356 228.5l49 287h192z" />
    <glyph glyph-name="sterling" unicode="&#xa3;" 
d="M1454 1176h-373q9 -41 9 -144q0 -155 -48.5 -315.5t-128.5 -286.5q181 -111 254 -119q108 12 176 144l320 -111q-94 -195 -229.5 -290t-266.5 -95q-72 3 -133.5 25.5t-164 72t-166 72.5t-134.5 23q-110 0 -159 -127l-308 127q55 147 185.5 249.5t318.5 102.5
q139 186 139 434q0 134 -32 238h-361l33 159h303l-94 320q-59 193 -74 467q6 327 144 569.5t352 339.5q218 98 418 98q242 0 393 -125t151 -383q0 -65 -4 -102l-344 -152q17 106 17 136q0 139 -76 210.5t-203 71.5q-225 0 -335.5 -173.5t-119.5 -420.5q15 -193 62 -422
l115 -434h397z" />
    <glyph glyph-name="currency" unicode="&#xa4;" 
d="M385 1847l-127 176l229 218l127 -177q273 201 586 201q319 0 520 -201l193 177l160 -218l-193 -176q94 -181 94 -438q0 -427 -278 -786l119 -177l-222 -213l-131 177q-283 -197 -598 -209q-311 14 -512 209l-184 -177l-160 213l185 177q-86 170 -99 426q6 218 86.5 433.5
t204.5 364.5zM401 1090q0 -176 65.5 -307.5t180 -205.5t250.5 -81q178 0 358.5 107.5t298 307t117.5 457.5q0 159 -63.5 298t-186 223.5t-286.5 84.5q-174 -6 -340 -106t-275.5 -298t-118.5 -480z" />
    <glyph glyph-name="yen" unicode="&#xa5;" 
d="M1098 0h-410l176 1081h-487l33 205h487v41l-57 295h-377l33 209h303l-262 1257h438l176 -1425h8l529 1425h442l-586 -1257h328l-33 -209h-389l-147 -295v-41h483l-33 -205h-479z" />
    <glyph glyph-name="brokenbar" unicode="&#xa6;" horiz-adv-x="1249" 
d="M369 0l225 1393h287l-226 -1393h-286zM905 3400h287l-217 -1393h-287z" />
    <glyph glyph-name="section" unicode="&#xa7;" horiz-adv-x="1696" 
d="M1159 864q283 191 283 439q0 104 -65 181t-136 119t-233 126q-230 -144 -246 -410q8 -16 8 -37q10 -99 62 -166.5t138 -125.5t189 -126zM1409 631q160 -110 160 -406q0 -188 -85 -372.5t-257 -303t-412 -118.5q-260 0 -430 120t-176 400q15 138 33 225h422
q-16 -88 -25 -151q0 -112 60 -173t149 -61q72 0 144 41t120 117.5t55 177.5q0 185 -98 286.5t-301 225.5t-308 247t-108 339q0 229 123.5 413t306.5 275q-162 102 -176 405q5 185 86 366.5t236 305t366 139.5q331 0 471 -147.5t140 -413.5v-110h-418q8 28 8 86
q0 106 -57 169.5t-144 63.5q-106 0 -188 -110.5t-82 -315.5q0 -156 89 -228t290 -164t312 -208t124 -342q0 -462 -430 -778z" />
    <glyph glyph-name="dieresis" unicode="&#xa8;" horiz-adv-x="1143" 
d="M1098 2687q9 110 88.5 181t181.5 77q77 0 139 -57t62 -127q0 -233 -275 -287q-87 3 -141.5 63t-54.5 150zM438 2695q19 110 95.5 177t171.5 73q74 0 134 -50.5t66 -125.5q0 -134 -69.5 -193.5t-196.5 -101.5q-85 3 -143 64t-58 157z" />
    <glyph glyph-name="copyright" unicode="&#xa9;" horiz-adv-x="3281" 
d="M279 1311q3 353 152 678t400.5 575.5t554 398.5t605.5 166q20 0 53 2t49 2q312 0 570.5 -94.5t444.5 -272.5t286.5 -424t103.5 -548q0 -364 -156.5 -697.5t-424 -591t-601 -402t-669.5 -144.5h-119q-323 31 -607.5 185.5t-463 449.5t-178.5 717zM537 1384
q0 -239 72.5 -444.5t210.5 -362.5t333 -250.5t432 -109.5q15 0 43 -2t43 -2q286 0 560 111.5t493.5 312.5t354 469.5t153.5 572.5q0 331 -130 603.5t-385 430.5t-612 158q-393 0 -750.5 -203.5t-579.5 -546.5t-238 -737zM2384 1257h262q-43 -178 -168.5 -320.5t-302.5 -224
t-369 -81.5q-279 13 -446 127t-233 280.5t-66 358.5q0 11 2 39t2 43q16 210 99.5 386.5t217.5 308.5t297.5 208.5t335.5 91.5q29 4 82 4q169 0 315.5 -61.5t237 -197.5t94.5 -347h-266q0 181 -120.5 283t-309.5 102q-160 0 -316 -84.5t-265 -257.5t-132 -420q-4 -33 -4 -90
q0 -268 144 -409t356 -148q195 6 353.5 117t199.5 292z" />
    <glyph glyph-name="ordfeminine" unicode="&#xaa;" horiz-adv-x="938" 
d="M319 1479l41 209h775l-29 -209h-787zM938 2929q-106 0 -155 -104t-87 -322q-5 -55 -17 -145t-15 -117q13 -174 118 -185q102 0 157 129.5t85 333.5q16 132 16 201q0 209 -102 209zM1090 2978l20 135h250l-201 -1241h-246l25 160h-8q-43 -87 -117.5 -137t-157.5 -56
q-98 11 -148.5 64.5t-68.5 127.5t-28 185q5 176 52.5 386.5t90.5 301.5q110 225 311 225q83 0 145.5 -42.5t80.5 -108.5z" />
    <glyph glyph-name="guillemotleft" unicode="&#xab;" horiz-adv-x="1462" 
d="M762 1065l672 909l168 -110l-594 -799l295 -815l-197 -107zM270 1065l672 909l168 -110l-590 -799l295 -815l-201 -107z" />
    <glyph glyph-name="logicalnot" unicode="&#xac;" horiz-adv-x="2048" 
d="M1663 479l131 807h-1409l45 291h1692l-168 -1098h-291z" />
    <glyph glyph-name="registered" unicode="&#xae;" horiz-adv-x="3281" 
d="M279 1311q3 353 152 678t400.5 575.5t554 398.5t605.5 166q20 0 53 2t49 2q312 0 570.5 -94.5t444.5 -272.5t286.5 -424t103.5 -548q0 -364 -156.5 -697.5t-424 -591t-601 -402t-669.5 -144.5h-119q-323 31 -607.5 185.5t-463 449.5t-178.5 717zM537 1384
q0 -239 72.5 -444.5t210.5 -362.5t333 -250.5t432 -109.5q15 0 43 -2t43 -2q286 0 560 111.5t493.5 312.5t354 469.5t153.5 572.5q0 331 -130 603.5t-385 430.5t-612 158q-393 0 -750.5 -203.5t-579.5 -546.5t-238 -737zM1110 655l283 1786h839q145 0 257.5 -47
t179.5 -154.5t67 -277.5q-35 -243 -206.5 -371.5t-432.5 -128.5l397 -807h-286l-369 807h-344l-135 -807h-250zM1520 1655h471q213 0 350 90t137 287q0 217 -344 217h-516z" />
    <glyph glyph-name="plusminus" unicode="&#xb1;" horiz-adv-x="2048" 
d="M1110 1442l98 639h287l-94 -639h704l-49 -291h-704l-103 -655h-291l107 655h-696l41 291h700zM184 8l41 287h1696l-49 -287h-1688z" />
    <glyph glyph-name="twosuperior" unicode="&#xb2;" horiz-adv-x="1008" 
d="M696 1479h496l-41 -230h-893q20 53 138 235.5t299 448t210 308.5q71 107 136 259.5t65 252.5q0 143 -115 143q-110 0 -154 -106.5t-67 -286.5h-299q30 228 85.5 360t163.5 195t296 71q401 0 401 -327q0 -118 -53.5 -273t-158.5 -335.5t-247 -362.5z" />
    <glyph glyph-name="threesuperior" unicode="&#xb3;" horiz-adv-x="1008" 
d="M1049 2200q200 -44 200 -287q0 -297 -153.5 -492.5t-456.5 -195.5q-333 13 -344 311q4 37 24 176h279q-10 -100 -12 -110q0 -132 135 -148q24 8 53 8q81 24 128.5 162t47.5 281q0 200 -221 200h-57l41 222q290 0 327 167q41 159 41 242q0 160 -123 160
q-68 0 -118.5 -76.5t-57.5 -210.5h-262q10 520 488 520q360 0 360 -344q0 -202 -75 -361.5t-244 -215.5v-8z" />
    <glyph glyph-name="acute" unicode="&#xb4;" horiz-adv-x="1143" 
d="M1335 2879l-487 -552l-193 122l435 607z" />
    <glyph glyph-name="mu" unicode="&#xb5;" horiz-adv-x="1593" 
d="M504 2073h393l-233 -1426q0 -13 -17 -119q14 -217 209 -217q228 0 270 312l234 1450h385l-234 -1450q-42 -297 -143.5 -474t-384.5 -182q-159 0 -251 84t-126 191h-8l-168 -1082h-381z" />
    <glyph glyph-name="paragraph" unicode="&#xb6;" horiz-adv-x="1798" 
d="M881 1511q-150 0 -271.5 89t-191 239.5t-74.5 327.5q25 241 131 452.5t291.5 340t433.5 128.5h889l-561 -3543h-320l521 3273h-312l-520 -3273h-328z" />
    <glyph glyph-name="periodcentered" unicode="&#xb7;" horiz-adv-x="840" 
d="M344 999q0 119 87 203t208 84q75 0 138 -60.5t63 -135.5q-5 -141 -106 -216t-165 -75q-114 0 -169.5 59t-55.5 141z" />
    <glyph glyph-name="cedilla" unicode="&#xb8;" horiz-adv-x="1143" 
d="M537 -209l245 -127l-430 -553l-168 98z" />
    <glyph glyph-name="onesuperior" unicode="&#xb9;" horiz-adv-x="1008" 
d="M672 3105h487l-287 -1856h-294l262 1639h-201z" />
    <glyph glyph-name="ordmasculine" unicode="&#xba;" horiz-adv-x="938" 
d="M311 1479l33 209h774l-28 -209h-779zM950 2912q-109 0 -164.5 -110t-89.5 -316q-19 -185 -24 -229q13 -193 119 -193q107 0 154.5 111.5t78.5 310.5q2 20 13.5 110.5t11.5 139.5q0 165 -99 176zM418 2298q30 402 155 616.5t365 214.5q201 0 278.5 -100.5t77.5 -316.5
q0 -335 -121.5 -600t-410.5 -265q-206 0 -275 123t-69 328z" />
    <glyph glyph-name="guillemotright" unicode="&#xbb;" horiz-adv-x="1462" 
d="M1040 1065l-630 -922l-168 107l549 815l-345 799l201 110zM1528 1065l-631 -922l-168 107l553 815l-344 799l197 110z" />
    <glyph glyph-name="onequarter" unicode="&#xbc;" horiz-adv-x="2519" 
d="M672 3105h487l-287 -1856h-294l262 1639h-201zM2593 1855l-185 -1159h127l-32 -200h-127l-78 -496h-283l74 496h-569l32 225l721 1134h320zM2122 696l127 774h-8l-447 -774h328zM2392 3088h254l-2023 -3088h-246z" />
    <glyph glyph-name="onehalf" unicode="&#xbd;" horiz-adv-x="2519" 
d="M623 3105h487l-295 -1856h-287l254 1622h-196zM2265 3088h254l-2023 -3088h-254zM1913 233h495l-32 -233h-897q20 56 122.5 214t285.5 426.5t202 297.5q95 133 162 290t67 267q0 152 -110 152q-105 0 -154.5 -103t-71.5 -295h-294q30 230 86.5 363t165 194t292.5 66
q394 0 394 -336q0 -181 -116.5 -431t-326.5 -519z" />
    <glyph glyph-name="threequarters" unicode="&#xbe;" horiz-adv-x="2519" 
d="M2105 696l127 774h-8l-446 -774h327zM2073 496h-570l33 225l721 1134h319l-184 -1159h127l-33 -200h-127l-78 -496h-282zM2478 3088h250l-2015 -3088h-258zM1090 2200q196 -43 196 -287q0 -187 -64.5 -344t-200 -250.5t-333.5 -93.5q-172 6 -259 80.5t-93 238.5
q6 43 12 84.5t12 83.5h279q-4 -19 -8 -55t-8 -55q0 -130 131 -148q20 8 45 8q91 18 141.5 155t50.5 279q0 209 -217 209h-53l33 222q290 0 327 167q37 144 37 242q0 160 -119 160q-68 0 -119 -77.5t-57 -209.5h-262q10 520 488 520q360 0 360 -336q0 -208 -75 -368.5
t-244 -216.5v-8z" />
    <glyph glyph-name="questiondown" unicode="&#xbf;" horiz-adv-x="1401" 
d="M1282 -82q-36 -235 -97 -403t-202 -282t-385 -114q-115 0 -218.5 27t-192.5 144t-93 358q2 21 5.5 56.5t6.5 61.5t6 59t7 81q48 271 80 409.5t94.5 266.5t161.5 197t250 69l94 663h360l-143 -933q-168 0 -270 -77.5t-150 -198.5t-69.5 -293.5t-30.5 -258.5
q15 -276 159 -287q130 0 174.5 129t67.5 326h385zM1032 1794q-113 3 -161 68.5t-48 152.5q6 95 90 180.5t197 85.5q108 0 158.5 -68t50.5 -165q-6 -98 -98 -176t-189 -78z" />
    <glyph glyph-name="Agrave" unicode="&#xc0;" horiz-adv-x="1696" 
d="M1176 3088h327l176 -3088h-413l-25 598h-618l-205 -598h-402zM745 922h488l8 1572h-8zM1159 3903l303 177l242 -607l-225 -122z" />
    <glyph glyph-name="Aacute" unicode="&#xc1;" horiz-adv-x="1696" 
d="M1176 3088h327l176 -3088h-413l-25 598h-618l-205 -598h-402zM745 922h488l8 1572h-8zM1773 3895l-487 -552l-193 122l435 607z" />
    <glyph glyph-name="Acircumflex" unicode="&#xc2;" horiz-adv-x="1696" 
d="M1176 3088h327l176 -3088h-413l-25 598h-618l-205 -598h-402zM745 922h488l8 1572h-8zM1503 4096l414 -569l-221 -160l-267 344l-352 -344l-184 160z" />
    <glyph glyph-name="Atilde" unicode="&#xc3;" horiz-adv-x="1696" 
d="M1176 3088h327l176 -3088h-413l-25 598h-618l-205 -598h-402zM745 922h488l8 1572h-8zM893 3568q35 197 140.5 303t227.5 106q69 -3 124 -22.5t119.5 -56t90.5 -48.5t68 -12q63 0 94 115h234q-24 -177 -120 -289.5t-233 -112.5q-74 0 -123 19.5t-125 60.5t-112 47
q-113 0 -127 -110h-258z" />
    <glyph glyph-name="Adieresis" unicode="&#xc4;" horiz-adv-x="1696" 
d="M1176 3088h327l176 -3088h-413l-25 598h-618l-205 -598h-402zM745 922h488l8 1572h-8zM1528 3703q9 110 88.5 181t181.5 77q77 0 139 -57t62 -127q0 -233 -275 -287q-87 3 -141.5 63t-54.5 150zM868 3711q19 110 95.5 177t171.5 73q74 0 134 -50.5t66 -125.5
q0 -134 -69.5 -193.5t-196.5 -101.5q-85 3 -143 64t-58 157z" />
    <glyph glyph-name="Aring" unicode="&#xc5;" horiz-adv-x="1696" 
d="M1176 3088h327l176 -3088h-413l-25 598h-618l-205 -598h-402zM745 922h488l8 1572h-8zM1102 3719q25 158 133.5 252.5t251.5 100.5q114 0 194 -72t92 -191q0 -174 -114 -275t-279 -134q-120 6 -199 91t-79 228zM1294 3728q0 -54 34 -91t93 -45q13 7 50 26.5t60.5 38
t36.5 45.5t13 67q-14 110 -127 110q-63 0 -108.5 -42.5t-51.5 -108.5z" />
    <glyph glyph-name="AE" unicode="&#xc6;" horiz-adv-x="2318" 
d="M1143 3088h1024l24 -352h-671l57 -983h614l17 -352h-606l69 -1041h664l24 -360h-1077l-25 598h-651l-205 -598h-401zM1249 922l-16 1581h-8l-496 -1581h520z" />
    <glyph glyph-name="Ccedilla" unicode="&#xc7;" horiz-adv-x="1511" 
d="M1929 3039l-57 -377q-122 91 -262 91q-141 0 -279 -91.5t-233 -253.5q-53 -85 -123 -309.5t-121 -507t-55 -542.5q17 -322 101.5 -512t356.5 -201q151 14 254 74l-57 -361q-141 -90 -356 -90q-195 0 -366.5 88.5t-252.5 231.5q-104 201 -119 663q5 350 78.5 735.5
t203 704.5t288.5 473q117 114 283 194t348 80q200 0 368 -90zM713 -209l245 -127l-430 -553l-168 98z" />
    <glyph glyph-name="Egrave" unicode="&#xc8;" horiz-adv-x="1425" 
d="M737 3088h1102l-53 -352h-688l-160 -975h623l-58 -352h-622l-160 -1049h688l-57 -360h-1102zM1024 3903l303 177l242 -607l-225 -122z" />
    <glyph glyph-name="Eacute" unicode="&#xc9;" horiz-adv-x="1425" 
d="M737 3088h1102l-53 -352h-688l-160 -975h623l-58 -352h-622l-160 -1049h688l-57 -360h-1102zM1630 3895l-487 -552l-193 122l435 607z" />
    <glyph glyph-name="Ecircumflex" unicode="&#xca;" horiz-adv-x="1425" 
d="M737 3088h1102l-53 -352h-688l-160 -975h623l-58 -352h-622l-160 -1049h688l-57 -360h-1102zM1368 4096l414 -569l-221 -160l-267 344l-352 -344l-184 160z" />
    <glyph glyph-name="Edieresis" unicode="&#xcb;" horiz-adv-x="1425" 
d="M737 3088h1102l-53 -352h-688l-160 -975h623l-58 -352h-622l-160 -1049h688l-57 -360h-1102zM1393 3711q9 110 88.5 181t181.5 77q77 0 139 -57t62 -127q0 -233 -275 -287q-87 3 -141.5 63t-54.5 150zM733 3719q19 110 95.5 177t171.5 73q74 0 134 -50.5t66 -125.5
q0 -134 -69.5 -193.5t-196.5 -101.5q-85 3 -143 64t-58 157z" />
    <glyph glyph-name="Igrave" unicode="&#xcc;" horiz-adv-x="913" 
d="M1143 3088l-488 -3088h-405l487 3088h406zM770 3903l303 177l242 -607l-225 -122z" />
    <glyph glyph-name="Iacute" unicode="&#xcd;" horiz-adv-x="913" 
d="M1143 3088l-488 -3088h-405l487 3088h406zM1376 3903l-487 -552l-193 122l435 607z" />
    <glyph glyph-name="Icircumflex" unicode="&#xce;" horiz-adv-x="913" 
d="M1143 3088l-488 -3088h-405l487 3088h406zM1114 4088l414 -569l-221 -160l-267 344l-352 -344l-184 160z" />
    <glyph glyph-name="Idieresis" unicode="&#xcf;" horiz-adv-x="913" 
d="M1143 3088l-488 -3088h-405l487 3088h406zM1139 3703q9 110 88.5 181t181.5 77q77 0 139 -57t62 -127q0 -233 -275 -287q-87 3 -141.5 63t-54.5 150zM479 3711q19 110 95.5 177t171.5 73q74 0 134 -50.5t66 -125.5q0 -134 -69.5 -193.5t-196.5 -101.5q-85 3 -143 64
t-58 157z" />
    <glyph glyph-name="Eth" unicode="&#xd0;" horiz-adv-x="1913" 
d="M737 3088h647q608 0 656 -782v-94q0 -302 -49.5 -656t-155.5 -686t-266 -542q-159 -208 -415.5 -268t-559.5 -60h-344l221 1409h-287l58 352h286zM1098 2744l-156 -983h283l-58 -352h-286l-168 -1057q539 0 704 520q35 111 84 351.5t83 499.5t34 444q0 139 -8 176
q-36 196 -152 298.5t-360 102.5z" />
    <glyph glyph-name="Ntilde" unicode="&#xd1;" horiz-adv-x="1937" 
d="M250 0l487 3088h389l361 -2343l8 9q28 378 46 619.5t40.5 466.5t66 530t113.5 718h414l-487 -3088h-385l-345 2384l-8 -8q-21 -373 -63 -769t-101 -793.5t-131 -813.5h-405zM1016 3568q35 197 140.5 303t227.5 106q69 -3 124 -22.5t119.5 -56t90.5 -48.5t68 -12
q63 0 94 115h234q-24 -177 -120 -289.5t-233 -112.5q-74 0 -123 19.5t-125 60.5t-112 47q-113 0 -127 -110h-258z" />
    <glyph glyph-name="Ograve" unicode="&#xd2;" horiz-adv-x="1954" 
d="M336 881q50 539 129.5 972t277.5 806t539 446q70 16 205 16q323 0 468.5 -227.5t145.5 -558.5q0 -17 -2 -48t-2 -46q-29 -487 -99.5 -892.5t-201 -718.5t-340 -492t-506.5 -179q-211 0 -351 112.5t-203.5 296t-63.5 402.5q0 74 4 111zM782 889q0 -82 -8 -135
q13 -410 283 -410q184 4 312.5 311t195.5 703t90 715q0 38 4 113t4 112q0 237 -59 341.5t-211 104.5q-157 0 -271 -203.5t-182.5 -503.5t-103 -585.5t-54.5 -562.5zM1290 3903l303 177l242 -607l-225 -122z" />
    <glyph glyph-name="Oacute" unicode="&#xd3;" horiz-adv-x="1954" 
d="M336 881q50 539 129.5 972t277.5 806t539 446q70 16 205 16q323 0 468.5 -227.5t145.5 -558.5q0 -17 -2 -48t-2 -46q-29 -487 -99.5 -892.5t-201 -718.5t-340 -492t-506.5 -179q-211 0 -351 112.5t-203.5 296t-63.5 402.5q0 74 4 111zM782 889q0 -82 -8 -135
q13 -410 283 -410q184 4 312.5 311t195.5 703t90 715q0 38 4 113t4 112q0 237 -59 341.5t-211 104.5q-157 0 -271 -203.5t-182.5 -503.5t-103 -585.5t-54.5 -562.5zM1896 3903l-487 -552l-193 122l435 607z" />
    <glyph glyph-name="Ocircumflex" unicode="&#xd4;" horiz-adv-x="1954" 
d="M336 881q50 539 129.5 972t277.5 806t539 446q70 16 205 16q323 0 468.5 -227.5t145.5 -558.5q0 -17 -2 -48t-2 -46q-29 -487 -99.5 -892.5t-201 -718.5t-340 -492t-506.5 -179q-211 0 -351 112.5t-203.5 296t-63.5 402.5q0 74 4 111zM782 889q0 -82 -8 -135
q13 -410 283 -410q184 4 312.5 311t195.5 703t90 715q0 38 4 113t4 112q0 237 -59 341.5t-211 104.5q-157 0 -271 -203.5t-182.5 -503.5t-103 -585.5t-54.5 -562.5zM1634 4088l414 -569l-221 -160l-267 344l-352 -344l-184 160z" />
    <glyph glyph-name="Otilde" unicode="&#xd5;" horiz-adv-x="1954" 
d="M336 881q50 539 129.5 972t277.5 806t539 446q70 16 205 16q323 0 468.5 -227.5t145.5 -558.5q0 -17 -2 -48t-2 -46q-29 -487 -99.5 -892.5t-201 -718.5t-340 -492t-506.5 -179q-211 0 -351 112.5t-203.5 296t-63.5 402.5q0 74 4 111zM782 889q0 -82 -8 -135
q13 -410 283 -410q184 4 312.5 311t195.5 703t90 715q0 38 4 113t4 112q0 237 -59 341.5t-211 104.5q-157 0 -271 -203.5t-182.5 -503.5t-103 -585.5t-54.5 -562.5zM1024 3568q35 197 140.5 303t227.5 106q69 -3 124 -22.5t119.5 -56t90.5 -48.5t68 -12q63 0 94 115h234
q-24 -177 -120 -289.5t-233 -112.5q-74 0 -123 19.5t-125 60.5t-112 47q-113 0 -127 -110h-258z" />
    <glyph glyph-name="Odieresis" unicode="&#xd6;" horiz-adv-x="1954" 
d="M336 881q50 539 129.5 972t277.5 806t539 446q70 16 205 16q323 0 468.5 -227.5t145.5 -558.5q0 -17 -2 -48t-2 -46q-29 -487 -99.5 -892.5t-201 -718.5t-340 -492t-506.5 -179q-211 0 -351 112.5t-203.5 296t-63.5 402.5q0 74 4 111zM782 889q0 -82 -8 -135
q13 -410 283 -410q184 4 312.5 311t195.5 703t90 715q0 38 4 113t4 112q0 237 -59 341.5t-211 104.5q-157 0 -271 -203.5t-182.5 -503.5t-103 -585.5t-54.5 -562.5zM1659 3711q9 110 88.5 181t181.5 77q77 0 139 -57t62 -127q0 -233 -275 -287q-87 3 -141.5 63t-54.5 150z
M999 3719q19 110 95.5 177t171.5 73q74 0 134 -50.5t66 -125.5q0 -134 -69.5 -193.5t-196.5 -101.5q-85 3 -143 64t-58 157z" />
    <glyph glyph-name="Oslash" unicode="&#xd8;" horiz-adv-x="1954" 
d="M377 418q-18 132 -33 438q3 295 48.5 616t129.5 621.5t194 521.5t234 322q228 192 529 192q177 0 312 -64t191 -177l185 278l160 -86l-271 -401q41 -141 41 -373q0 -275 -55 -631t-141.5 -684.5t-180.5 -527.5q-124 -260 -318 -382t-411 -122q-171 0 -318.5 73.5
t-217.5 184.5l-205 -328l-164 86zM791 1040l856 1368q0 138 -68.5 237t-177.5 99q-131 0 -250 -159q-79 -116 -142.5 -319.5t-117 -502t-109.5 -723.5h9zM791 696q0 -149 65.5 -251.5t167.5 -108.5q122 13 225 135q137 170 243 575t163 1035h-17z" />
    <glyph glyph-name="Ugrave" unicode="&#xd9;" horiz-adv-x="1913" 
d="M737 3088h414l-344 -2158q-34 -242 -37 -332q3 -123 53 -188.5t168 -65.5q141 0 217 47t115.5 154.5t69.5 310.5l352 2232h414l-353 -2207q-35 -247 -95 -419.5t-155.5 -280t-242 -162t-363.5 -60.5q-205 0 -333.5 58.5t-190 184t-66.5 326.5q21 255 33 353zM1266 3903
l303 177l242 -607l-225 -122z" />
    <glyph glyph-name="Uacute" unicode="&#xda;" horiz-adv-x="1913" 
d="M737 3088h414l-344 -2158q-34 -242 -37 -332q3 -123 53 -188.5t168 -65.5q141 0 217 47t115.5 154.5t69.5 310.5l352 2232h414l-353 -2207q-35 -247 -95 -419.5t-155.5 -280t-242 -162t-363.5 -60.5q-205 0 -333.5 58.5t-190 184t-66.5 326.5q21 255 33 353zM1888 3903
l-487 -552l-193 122l435 607z" />
    <glyph glyph-name="Ucircumflex" unicode="&#xdb;" horiz-adv-x="1913" 
d="M737 3088h414l-344 -2158q-34 -242 -37 -332q3 -123 53 -188.5t168 -65.5q141 0 217 47t115.5 154.5t69.5 310.5l352 2232h414l-353 -2207q-35 -247 -95 -419.5t-155.5 -280t-242 -162t-363.5 -60.5q-205 0 -333.5 58.5t-190 184t-66.5 326.5q21 255 33 353zM1618 4096
l414 -569l-221 -160l-267 344l-352 -344l-184 160z" />
    <glyph glyph-name="Udieresis" unicode="&#xdc;" horiz-adv-x="1913" 
d="M737 3088h414l-344 -2158q-34 -242 -37 -332q3 -123 53 -188.5t168 -65.5q141 0 217 47t115.5 154.5t69.5 310.5l352 2232h414l-353 -2207q-35 -247 -95 -419.5t-155.5 -280t-242 -162t-363.5 -60.5q-205 0 -333.5 58.5t-190 184t-66.5 326.5q21 255 33 353zM1635 3711
q9 110 88.5 181t181.5 77q77 0 139 -57t62 -127q0 -233 -275 -287q-87 3 -141.5 63t-54.5 150zM975 3719q19 110 95.5 177t171.5 73q74 0 134 -50.5t66 -125.5q0 -134 -69.5 -193.5t-196.5 -101.5q-85 3 -143 64t-58 157z" />
    <glyph glyph-name="Yacute" unicode="&#xdd;" horiz-adv-x="1610" 
d="M614 0l217 1327l-335 1761h442l152 -1425h8q45 154 108 324.5t161 407.5t173 416t115 277h434l-848 -1753l-209 -1335h-418zM1728 3895l-487 -552l-193 122l435 607z" />
    <glyph glyph-name="Thorn" unicode="&#xde;" horiz-adv-x="1622" 
d="M250 0l487 3088h406l-86 -614q284 0 452 -57.5t241 -180t73 -323.5q0 -72 -17 -242q-71 -516 -315.5 -718.5t-613.5 -202.5q-17 0 -48 2t-47 2l-118 -754h-414zM840 1106q279 0 407.5 196.5t128.5 475.5q0 185 -88 268.5t-289 83.5z" />
    <glyph glyph-name="germandbls" unicode="&#xdf;" horiz-adv-x="1745" 
d="M262 0l283 1769h-176l49 304h168l94 589q27 184 81 343t206.5 291t425.5 136q319 0 446 -120.5t127 -366.5q0 -289 -84 -519t-305 -304v-8q107 -27 176.5 -148t69.5 -348q0 -131 -8 -209q-51 -398 -99 -640.5t-133.5 -417t-235 -265t-389.5 -90.5q-81 0 -127 4l50 344
q150 0 244 71.5t140.5 181.5t72 251.5t46.5 257.5q41 235 41 405q0 209 -73 317.5t-254 108.5l45 344q229 0 327.5 151.5t98.5 377.5q0 287 -217 287q-117 -20 -174 -101.5t-80.5 -195.5t-81.5 -482l-369 -2318h-385z" />
    <glyph glyph-name="agrave" unicode="&#xe0;" horiz-adv-x="1561" 
d="M799 1561q-53 -133 -111.5 -454t-64.5 -509q16 -82 28 -142t46.5 -103t109.5 -50q89 6 167.5 92.5t115.5 227.5q127 548 127 872q0 128 -51 193t-134 65q-64 0 -127.5 -49t-105.5 -143zM1032 262q-76 -145 -188 -220t-238 -75q-146 0 -223.5 77.5t-102 177t-47.5 282.5
q8 342 75.5 704.5t162.5 544.5q181 352 459 352q135 0 240.5 -83.5t111.5 -182.5h4l33 234h393l-328 -2073h-385l41 262h-8zM930 2887l303 177l242 -607l-225 -122z" />
    <glyph glyph-name="aacute" unicode="&#xe1;" horiz-adv-x="1561" 
d="M799 1561q-53 -133 -111.5 -454t-64.5 -509q16 -82 28 -142t46.5 -103t109.5 -50q89 6 167.5 92.5t115.5 227.5q127 548 127 872q0 128 -51 193t-134 65q-64 0 -127.5 -49t-105.5 -143zM1032 262q-76 -145 -188 -220t-238 -75q-146 0 -223.5 77.5t-102 177t-47.5 282.5
q8 342 75.5 704.5t162.5 544.5q181 352 459 352q135 0 240.5 -83.5t111.5 -182.5h4l33 234h393l-328 -2073h-385l41 262h-8zM1544 2887l-487 -552l-193 122l435 607z" />
    <glyph glyph-name="acircumflex" unicode="&#xe2;" horiz-adv-x="1561" 
d="M799 1561q-53 -133 -111.5 -454t-64.5 -509q16 -82 28 -142t46.5 -103t109.5 -50q89 6 167.5 92.5t115.5 227.5q127 548 127 872q0 128 -51 193t-134 65q-64 0 -127.5 -49t-105.5 -143zM1032 262q-76 -145 -188 -220t-238 -75q-146 0 -223.5 77.5t-102 177t-47.5 282.5
q8 342 75.5 704.5t162.5 544.5q181 352 459 352q135 0 240.5 -83.5t111.5 -182.5h4l33 234h393l-328 -2073h-385l41 262h-8zM1282 3080l414 -569l-221 -160l-267 344l-352 -344l-184 160z" />
    <glyph glyph-name="atilde" unicode="&#xe3;" horiz-adv-x="1561" 
d="M799 1561q-53 -133 -111.5 -454t-64.5 -509q16 -82 28 -142t46.5 -103t109.5 -50q89 6 167.5 92.5t115.5 227.5q127 548 127 872q0 128 -51 193t-134 65q-64 0 -127.5 -49t-105.5 -143zM1032 262q-76 -145 -188 -220t-238 -75q-146 0 -223.5 77.5t-102 177t-47.5 282.5
q8 342 75.5 704.5t162.5 544.5q181 352 459 352q135 0 240.5 -83.5t111.5 -182.5h4l33 234h393l-328 -2073h-385l41 262h-8zM672 2552q35 197 140.5 303t227.5 106q69 -3 124 -22.5t119.5 -56t90.5 -48.5t68 -12q63 0 94 115h234q-24 -177 -120 -289.5t-233 -112.5
q-74 0 -123 19.5t-125 60.5t-112 47q-113 0 -127 -110h-258z" />
    <glyph glyph-name="adieresis" unicode="&#xe4;" horiz-adv-x="1561" 
d="M799 1561q-53 -133 -111.5 -454t-64.5 -509q16 -82 28 -142t46.5 -103t109.5 -50q89 6 167.5 92.5t115.5 227.5q127 548 127 872q0 128 -51 193t-134 65q-64 0 -127.5 -49t-105.5 -143zM1032 262q-76 -145 -188 -220t-238 -75q-146 0 -223.5 77.5t-102 177t-47.5 282.5
q8 342 75.5 704.5t162.5 544.5q181 352 459 352q135 0 240.5 -83.5t111.5 -182.5h4l33 234h393l-328 -2073h-385l41 262h-8zM1299 2687q9 110 88.5 181t181.5 77q77 0 139 -57t62 -127q0 -233 -275 -287q-87 3 -141.5 63t-54.5 150zM639 2695q19 110 95.5 177t171.5 73
q74 0 134 -50.5t66 -125.5q0 -134 -69.5 -193.5t-196.5 -101.5q-85 3 -143 64t-58 157z" />
    <glyph glyph-name="aring" unicode="&#xe5;" horiz-adv-x="1561" 
d="M799 1561q-53 -133 -111.5 -454t-64.5 -509q16 -82 28 -142t46.5 -103t109.5 -50q89 6 167.5 92.5t115.5 227.5q127 548 127 872q0 128 -51 193t-134 65q-64 0 -127.5 -49t-105.5 -143zM1032 262q-76 -145 -188 -220t-238 -75q-146 0 -223.5 77.5t-102 177t-47.5 282.5
q8 342 75.5 704.5t162.5 544.5q181 352 459 352q135 0 240.5 -83.5t111.5 -182.5h4l33 234h393l-328 -2073h-385l41 262h-8zM881 2703q25 158 133.5 252.5t251.5 100.5q114 0 194 -72t92 -191q0 -174 -114 -275t-279 -134q-120 6 -199 91t-79 228zM1073 2712q0 -54 34 -91
t93 -45q13 7 50 26.5t60.5 38t36.5 45.5t13 67q-14 110 -127 110q-63 0 -108.5 -42.5t-51.5 -108.5z" />
    <glyph glyph-name="ae" unicode="&#xe6;" horiz-adv-x="2298" 
d="M598 553q0 -127 33.5 -201.5t150.5 -81.5q166 0 237 163t71 358q0 241 -193 241q-141 0 -220 -148t-79 -331zM1135 1200l8 8q33 142 33 254q0 267 -295 267q-215 0 -410 -111l66 381q205 106 438 106q170 0 289 -65t153 -201q84 126 214.5 196t273.5 70q245 0 362 -191.5
t117 -459.5q0 -208 -49 -504h-856q-30 -160 -45 -356q12 -299 196 -299q135 0 210 121t89 297h369q-51 -277 -160 -442.5t-244 -234.5t-276 -69q-219 0 -329 75.5t-154 244.5q-46 -132 -204.5 -226t-332.5 -94q-169 0 -280 115.5t-117 363.5q26 184 58 324.5t99 272t181 212
t284 80.5q103 0 187 -36t125 -99zM1528 1233h471q24 141 24 262q0 283 -159 283q-130 0 -220.5 -141.5t-115.5 -403.5z" />
    <glyph glyph-name="ccedilla" unicode="&#xe7;" horiz-adv-x="1135" 
d="M1106 410l-57 -361q-186 -82 -336 -82q-444 0 -480 647q4 211 53 457t121 449t146 311q195 274 504 274q150 0 303 -73l-57 -394h-9q-34 99 -184 99q-187 0 -303 -226q-49 -118 -102 -348t-58 -426q6 -57 15.5 -138t30.5 -138.5t68.5 -96t127.5 -45.5q114 13 217 91z
M529 -209l245 -127l-430 -553l-168 98z" />
    <glyph glyph-name="egrave" unicode="&#xe8;" horiz-adv-x="1479" 
d="M664 958q-23 -126 -41 -344q11 -303 184 -303q107 0 189 94.5t110 290.5h356q-70 -391 -267 -556.5t-450 -172.5q-499 0 -512 639q17 125 17 185q23 287 103 585.5t255.5 513.5t456.5 215q278 -11 387 -183t109 -468q0 -67 -7 -156.5t-15 -162.5t-19 -177h-856zM713 1233
h454q25 138 25 246q0 282 -176 282q-243 0 -303 -528zM897 2887l303 177l242 -607l-225 -122z" />
    <glyph glyph-name="eacute" unicode="&#xe9;" horiz-adv-x="1479" 
d="M664 958q-23 -126 -41 -344q11 -303 184 -303q107 0 189 94.5t110 290.5h356q-70 -391 -267 -556.5t-450 -172.5q-499 0 -512 639q17 125 17 185q23 287 103 585.5t255.5 513.5t456.5 215q278 -11 387 -183t109 -468q0 -67 -7 -156.5t-15 -162.5t-19 -177h-856zM713 1233
h454q25 138 25 246q0 282 -176 282q-243 0 -303 -528zM1511 2887l-487 -552l-193 122l435 607z" />
    <glyph glyph-name="ecircumflex" unicode="&#xea;" horiz-adv-x="1479" 
d="M664 958q-23 -126 -41 -344q11 -303 184 -303q107 0 189 94.5t110 290.5h356q-70 -391 -267 -556.5t-450 -172.5q-499 0 -512 639q17 125 17 185q23 287 103 585.5t255.5 513.5t456.5 215q278 -11 387 -183t109 -468q0 -67 -7 -156.5t-15 -162.5t-19 -177h-856zM713 1233
h454q25 138 25 246q0 282 -176 282q-243 0 -303 -528zM1241 3080l414 -569l-221 -160l-267 344l-352 -344l-184 160z" />
    <glyph glyph-name="edieresis" unicode="&#xeb;" horiz-adv-x="1479" 
d="M664 958q-23 -126 -41 -344q11 -303 184 -303q107 0 189 94.5t110 290.5h356q-70 -391 -267 -556.5t-450 -172.5q-499 0 -512 639q17 125 17 185q23 287 103 585.5t255.5 513.5t456.5 215q278 -11 387 -183t109 -468q0 -67 -7 -156.5t-15 -162.5t-19 -177h-856zM713 1233
h454q25 138 25 246q0 282 -176 282q-243 0 -303 -528zM1258 2687q9 110 88.5 181t181.5 77q77 0 139 -57t62 -127q0 -233 -275 -287q-87 3 -141.5 63t-54.5 150zM598 2695q19 110 95.5 177t171.5 73q74 0 134 -50.5t66 -125.5q0 -134 -69.5 -193.5t-196.5 -101.5
q-85 3 -143 64t-58 157z" />
    <glyph glyph-name="igrave" unicode="&#xec;" horiz-adv-x="737" 
d="M504 2073h385l-328 -2073h-385zM520 2887l303 177l242 -607l-225 -122z" />
    <glyph glyph-name="iacute" unicode="&#xed;" horiz-adv-x="737" 
d="M504 2073h385l-328 -2073h-385zM1134 2887l-487 -552l-193 122l435 607z" />
    <glyph glyph-name="icircumflex" unicode="&#xee;" horiz-adv-x="737" 
d="M504 2073h385l-328 -2073h-385zM864 3080l414 -569l-221 -160l-267 344l-352 -344l-184 160z" />
    <glyph glyph-name="idieresis" unicode="&#xef;" horiz-adv-x="737" 
d="M504 2073h385l-328 -2073h-385zM889 2687q9 110 88.5 181t181.5 77q77 0 139 -57t62 -127q0 -233 -275 -287q-87 3 -141.5 63t-54.5 150zM229 2695q19 110 95.5 177t171.5 73q74 0 134 -50.5t66 -125.5q0 -134 -69.5 -193.5t-196.5 -101.5q-85 3 -143 64t-58 157z" />
    <glyph glyph-name="eth" unicode="&#xf0;" horiz-adv-x="1536" 
d="M336 1282q177 741 754 741q118 0 176 -8q-24 187 -168 553l-328 -151l-98 209l336 143q-65 166 -287 553l328 110q181 -296 286 -512l328 152l98 -201l-336 -159q79 -182 123 -363t63 -364t19 -363q0 -342 -61 -655q-45 -253 -119 -444.5t-173.5 -314.5t-224.5 -182
t-278 -59q-520 0 -532 647q12 299 94 668zM672 1032q-37 -222 -49 -409q6 -158 57.5 -231t175.5 -73q138 30 218 215t118 515q3 20 15 101t19 151t7 133q0 327 -193 327q-94 -8 -159 -83t-102.5 -181t-61.5 -227.5t-45 -237.5z" />
    <glyph glyph-name="ntilde" unicode="&#xf1;" horiz-adv-x="1593" 
d="M1647 1511l-230 -1511h-385l225 1454q0 17 4.5 47t4.5 51q0 209 -176 209q-135 0 -204 -90t-112 -336l-205 -1335h-385l320 2073h393l-41 -242h8q177 274 455 274q183 0 263.5 -81t80.5 -271q0 -60 -16 -242zM688 2552q35 197 140.5 303t227.5 106q69 -3 124 -22.5
t119.5 -56t90.5 -48.5t68 -12q63 0 94 115h234q-24 -177 -120 -289.5t-233 -112.5q-74 0 -123 19.5t-125 60.5t-112 47q-113 0 -127 -110h-258z" />
    <glyph glyph-name="ograve" unicode="&#xf2;" horiz-adv-x="1536" 
d="M319 1257q85 435 293 638t478 210q532 0 532 -688q0 -188 -53 -504q-175 -946 -795 -946q-264 0 -395 159t-137 497q10 230 77 634zM672 1032q-37 -222 -49 -409q6 -158 57.5 -231t175.5 -73q138 30 218 215t118 515q2 18 15.5 94.5t23.5 158.5t10 148q0 303 -192 303
q-96 0 -162.5 -72t-105.5 -180.5t-64.5 -238t-44.5 -230.5zM922 2887l303 177l242 -607l-225 -122z" />
    <glyph glyph-name="oacute" unicode="&#xf3;" horiz-adv-x="1536" 
d="M319 1257q85 435 293 638t478 210q532 0 532 -688q0 -188 -53 -504q-175 -946 -795 -946q-264 0 -395 159t-137 497q10 230 77 634zM672 1032q-37 -222 -49 -409q6 -158 57.5 -231t175.5 -73q138 30 218 215t118 515q2 18 15.5 94.5t23.5 158.5t10 148q0 303 -192 303
q-96 0 -162.5 -72t-105.5 -180.5t-64.5 -238t-44.5 -230.5zM1536 2887l-487 -552l-193 122l435 607z" />
    <glyph glyph-name="ocircumflex" unicode="&#xf4;" horiz-adv-x="1536" 
d="M319 1257q85 435 293 638t478 210q532 0 532 -688q0 -188 -53 -504q-175 -946 -795 -946q-264 0 -395 159t-137 497q10 230 77 634zM672 1032q-37 -222 -49 -409q6 -158 57.5 -231t175.5 -73q138 30 218 215t118 515q2 18 15.5 94.5t23.5 158.5t10 148q0 303 -192 303
q-96 0 -162.5 -72t-105.5 -180.5t-64.5 -238t-44.5 -230.5zM1274 3080l414 -569l-221 -160l-267 344l-352 -344l-184 160z" />
    <glyph glyph-name="otilde" unicode="&#xf5;" horiz-adv-x="1536" 
d="M319 1257q85 435 293 638t478 210q532 0 532 -688q0 -188 -53 -504q-175 -946 -795 -946q-264 0 -395 159t-137 497q10 230 77 634zM672 1032q-37 -222 -49 -409q6 -158 57.5 -231t175.5 -73q138 30 218 215t118 515q2 18 15.5 94.5t23.5 158.5t10 148q0 303 -192 303
q-96 0 -162.5 -72t-105.5 -180.5t-64.5 -238t-44.5 -230.5zM664 2552q35 197 140.5 303t227.5 106q69 -3 124 -22.5t119.5 -56t90.5 -48.5t68 -12q63 0 94 115h234q-24 -177 -120 -289.5t-233 -112.5q-74 0 -123 19.5t-125 60.5t-112 47q-113 0 -127 -110h-258z" />
    <glyph glyph-name="odieresis" unicode="&#xf6;" horiz-adv-x="1536" 
d="M319 1257q85 435 293 638t478 210q532 0 532 -688q0 -188 -53 -504q-175 -946 -795 -946q-264 0 -395 159t-137 497q10 230 77 634zM672 1032q-37 -222 -49 -409q6 -158 57.5 -231t175.5 -73q138 30 218 215t118 515q2 18 15.5 94.5t23.5 158.5t10 148q0 303 -192 303
q-96 0 -162.5 -72t-105.5 -180.5t-64.5 -238t-44.5 -230.5zM1291 2687q9 110 88.5 181t181.5 77q77 0 139 -57t62 -127q0 -233 -275 -287q-87 3 -141.5 63t-54.5 150zM631 2695q19 110 95.5 177t171.5 73q74 0 134 -50.5t66 -125.5q0 -134 -69.5 -193.5t-196.5 -101.5
q-85 3 -143 64t-58 157z" />
    <glyph glyph-name="oslash" unicode="&#xf8;" horiz-adv-x="1536" 
d="M287 319q-32 126 -45 336q6 310 95 648t200 495q100 158 246.5 232.5t306.5 74.5q140 0 256 -50.5t157 -117.5l168 205l144 -94l-222 -295q25 -156 25 -344q0 -234 -42.5 -463.5t-110.5 -413.5t-146 -290q-208 -275 -545 -275q-137 0 -255 52t-159 116l-127 -176
l-147 107zM647 807h8l570 778q-25 176 -176 176q-57 0 -107 -24q-107 -59 -177 -267.5t-118 -662.5zM647 487q6 -80 59 -133t125 -59q101 12 168 90q85 96 132 294.5t94 586.5h-8z" />
    <glyph glyph-name="ugrave" unicode="&#xf9;" horiz-adv-x="1593" 
d="M504 2073h393l-233 -1434q0 -24 -17 -111q14 -209 209 -209q230 0 270 295l234 1459h385l-234 -1479q-26 -159 -96.5 -298t-203.5 -230t-330 -99q-320 0 -470 103t-153 376q5 90 21 209zM954 2887l303 177l242 -607l-225 -122z" />
    <glyph glyph-name="uacute" unicode="&#xfa;" horiz-adv-x="1593" 
d="M504 2073h393l-233 -1434q0 -24 -17 -111q14 -209 209 -209q230 0 270 295l234 1459h385l-234 -1479q-26 -159 -96.5 -298t-203.5 -230t-330 -99q-320 0 -470 103t-153 376q5 90 21 209zM1560 2887l-487 -552l-193 122l435 607z" />
    <glyph glyph-name="ucircumflex" unicode="&#xfb;" horiz-adv-x="1593" 
d="M504 2073h393l-233 -1434q0 -24 -17 -111q14 -209 209 -209q230 0 270 295l234 1459h385l-234 -1479q-26 -159 -96.5 -298t-203.5 -230t-330 -99q-320 0 -470 103t-153 376q5 90 21 209zM1298 3080l414 -569l-221 -160l-267 344l-352 -344l-184 160z" />
    <glyph glyph-name="udieresis" unicode="&#xfc;" horiz-adv-x="1593" 
d="M504 2073h393l-233 -1434q0 -24 -17 -111q14 -209 209 -209q230 0 270 295l234 1459h385l-234 -1479q-26 -159 -96.5 -298t-203.5 -230t-330 -99q-320 0 -470 103t-153 376q5 90 21 209zM1323 2687q9 110 88.5 181t181.5 77q77 0 139 -57t62 -127q0 -233 -275 -287
q-87 3 -141.5 63t-54.5 150zM663 2695q19 110 95.5 177t171.5 73q74 0 134 -50.5t66 -125.5q0 -134 -69.5 -193.5t-196.5 -101.5q-85 3 -143 64t-58 157z" />
    <glyph glyph-name="yacute" unicode="&#xfd;" horiz-adv-x="1528" 
d="M344 2073h430l74 -1450h8l578 1450h389l-1303 -2921h-409l483 1016zM1536 2887l-487 -552l-193 122l435 607z" />
    <glyph glyph-name="thorn" unicode="&#xfe;" horiz-adv-x="1561" 
d="M1081 1761q-116 0 -188 -113t-105 -250t-67 -349q-50 -320 -57 -435q13 -303 184 -303q134 0 214 166t138 522q49 267 49 451q0 300 -168 311zM41 -848l590 3695h385l-168 -1049h8q61 143 177.5 225t240.5 82q148 0 250.5 -109t113.5 -308q4 -46 4 -140
q0 -322 -62 -658.5t-146 -537.5q-54 -125 -138 -213t-178 -130t-188 -42q-119 0 -209 71.5t-115 194.5h-8l-172 -1081h-385z" />
    <glyph glyph-name="ydieresis" unicode="&#xff;" horiz-adv-x="1528" 
d="M344 2073h430l74 -1450h8l578 1450h389l-1303 -2921h-409l483 1016zM1291 2687q9 110 88.5 181t181.5 77q77 0 139 -57t62 -127q0 -233 -275 -287q-87 3 -141.5 63t-54.5 150zM631 2695q19 110 95.5 177t171.5 73q74 0 134 -50.5t66 -125.5q0 -134 -69.5 -193.5
t-196.5 -101.5q-85 3 -143 64t-58 157z" />
    <glyph glyph-name="dotlessi" unicode="&#x131;" horiz-adv-x="737" 
d="M504 2073h385l-328 -2073h-385z" />
    <glyph glyph-name="OE" unicode="&#x152;" horiz-adv-x="2449" 
d="M840 1450q-55 -360 -66 -643q7 -222 68 -342.5t207 -120.5q141 0 234 119.5t154 333t115.5 544t110.5 674.5q25 180 25 303q0 431 -271 443q-218 0 -347.5 -295t-229.5 -1016zM1794 2847l37 241h1073l-49 -352h-688l-152 -967h631l-61 -360h-631l-160 -1049h700l-53 -360
h-1073l41 250h-8q-80 -133 -218.5 -212t-293.5 -79q-220 0 -377 173.5t-168 514.5q0 288 44 677.5t136 769.5t221 618q108 202 284 309.5t355 107.5q167 0 279.5 -75.5t130.5 -206.5z" />
    <glyph glyph-name="oe" unicode="&#x153;" horiz-adv-x="2376" 
d="M705 1192q-62 -316 -74 -545q6 -167 55 -247.5t154 -80.5q144 12 230.5 233.5t121.5 545.5q0 21 16.5 139.5t16.5 204.5q0 311 -193 311q-103 -7 -190 -144.5t-137 -416.5zM1249 295q-53 -146 -200.5 -237t-311.5 -91q-124 0 -232 57.5t-176.5 178.5t-78.5 301
q0 19 -2 56t-2 54q0 241 48.5 515.5t151.5 506.5t259 338q176 131 385 131q157 0 265.5 -81t131.5 -238h8q66 144 206 231.5t290 87.5q249 0 362 -190t113 -461q0 -200 -49 -496h-865q-4 -58 -16.5 -168t-15.5 -151q13 -320 192 -320q253 0 303 386h352q-22 -179 -90 -317.5
t-168.5 -233t-214.5 -141t-231 -46.5q-155 0 -270.5 88t-143.5 240zM1602 1225h462q25 138 25 270q0 283 -176 283q-250 0 -311 -553z" />
    <glyph glyph-name="florin" unicode="&#x192;" 
d="M1016 1778h-262l77 303h287l156 463q140 445 355 662.5t562 217.5q126 0 275 -24l-115 -344q-105 24 -201 24q-297 0 -438 -409l-217 -590h537l-86 -303h-537l-561 -1626q-270 -758 -1167 -758l110 344q131 3 201 10.5t170 58.5t196.5 177.5t169.5 343.5z" />
    <glyph glyph-name="circumflex" unicode="&#x2c6;" horiz-adv-x="1143" 
d="M1073 3072l414 -569l-221 -160l-267 344l-352 -344l-184 160z" />
    <glyph glyph-name="breve" unicode="&#x2d8;" horiz-adv-x="1143" 
d="M639 3138q12 -316 410 -316q337 0 454 316h201q-109 -546 -721 -562q-245 0 -397 115t-152 356q0 58 4 91h201z" />
    <glyph glyph-name="ring" unicode="&#x2da;" horiz-adv-x="1143" 
d="M672 2703q25 158 133.5 252.5t251.5 100.5q114 0 194 -72t92 -191q0 -174 -114 -275t-279 -134q-120 6 -199 91t-79 228zM864 2712q0 -54 34 -91t93 -45q13 7 50 26.5t60.5 38t36.5 45.5t13 67q-14 110 -127 110q-63 0 -108.5 -42.5t-51.5 -108.5z" />
    <glyph glyph-name="tilde" unicode="&#x2dc;" horiz-adv-x="1143" 
d="M463 2552q35 197 140.5 303t227.5 106q69 -3 124 -22.5t119.5 -56t90.5 -48.5t68 -12q63 0 94 115h234q-24 -177 -120 -289.5t-233 -112.5q-74 0 -123 19.5t-125 60.5t-112 47q-113 0 -127 -110h-258z" />
    <glyph glyph-name="emdash" unicode="&#x2013;" horiz-adv-x="2048" 
d="M193 1217h2048l-50 -304h-2048z" />
    <glyph glyph-name="endash" unicode="&#x2014;" horiz-adv-x="4096" 
d="M193 1217h4087h17l-58 -304h-4087h-9z" />
    <glyph glyph-name="quoteleft" unicode="&#x2018;" horiz-adv-x="872" 
d="M754 1946l-324 94l569 1098l209 -66z" />
    <glyph glyph-name="quoteright" unicode="&#x2019;" horiz-adv-x="872" 
d="M930 3138l311 -107l-569 -1085l-201 61z" />
    <glyph glyph-name="quotedblleft" unicode="&#x201c;" horiz-adv-x="1409" 
d="M1286 1946l-319 94l569 1098l209 -66zM729 1946l-319 94l565 1098l209 -66z" />
    <glyph glyph-name="quotedblright" unicode="&#x201d;" horiz-adv-x="1409" 
d="M930 3138l311 -107l-569 -1085l-201 61zM1487 3138l311 -107l-565 -1085l-201 61z" />
    <glyph glyph-name="quotedblbase" unicode="&#x201e;" horiz-adv-x="1409" 
d="M496 430l319 -102l-565 -1082l-201 58zM1065 430l311 -102l-569 -1082l-201 58z" />
    <glyph glyph-name="dagger" unicode="&#x2020;" horiz-adv-x="1470" 
d="M1032 3088h385l-160 -1015h422l-57 -336h-414l-368 -2298h-385l360 2298h-422l53 336h426z" />
    <glyph glyph-name="daggerdbl" unicode="&#x2021;" horiz-adv-x="1470" 
d="M1032 3088h385l-143 -938h422l-58 -335h-421l-119 -750h422l-58 -336h-413l-209 -1290h-385l200 1290h-422l54 336h426l118 750h-421l45 335h434z" />
    <glyph glyph-name="bullet" unicode="&#x2022;" horiz-adv-x="1638" 
d="M287 1434q0 217 124.5 423t327 333.5t420.5 127.5q178 0 336 -83.5t253 -231.5t99 -332q0 -219 -124 -428.5t-334.5 -339t-446.5 -129.5q-203 0 -350 91t-223.5 241.5t-81.5 327.5z" />
    <glyph glyph-name="ellipsis" unicode="&#x2026;" horiz-adv-x="4096" 
d="M471 184q6 110 89 183t194 79q81 0 144 -47t69 -141q0 -117 -91 -208t-204 -91q-88 0 -144.5 64.5t-56.5 160.5zM1831 184q12 112 92.5 184t190.5 78q80 0 146.5 -51t66.5 -145q0 -123 -89.5 -207t-205.5 -84q-88 0 -144.5 64.5t-56.5 160.5zM3199 184q12 112 92.5 184
t190.5 78q81 0 144 -47t69 -141q0 -122 -90.5 -210.5t-204.5 -88.5q-88 0 -144.5 64.5t-56.5 160.5z" />
    <glyph glyph-name="perthousand" unicode="&#x2030;" horiz-adv-x="3342" 
d="M598 2626q129 503 528 503q175 -12 251.5 -122t76.5 -320q0 -126 -29 -336q-125 -696 -577 -696q-172 17 -247 130t-81 312q9 185 78 529zM815 2343q-4 -35 -11.5 -104.5t-12.5 -116.5q13 -217 114 -217q99 0 160 133.5t102 464.5q0 34 4.5 88t4.5 88q0 200 -103 200
q-98 0 -155 -125t-103 -411zM1352 856q138 578 520 578q192 -6 272 -117.5t80 -325.5q0 -243 -51.5 -475.5t-189 -394.5t-373.5 -162q-302 0 -316 467q15 220 58 430zM1602 729q-32 -202 -41 -303q13 -217 110 -217q101 0 161.5 120.5t113.5 469.5q8 57 8 168
q0 217 -123 217q-64 -11 -105 -62.5t-66.5 -138.5t-57.5 -254zM242 0l2015 3088h254l-2015 -3088h-254zM2687 737q-12 -95 -24 -178.5t-17 -140.5q12 -209 115 -209q66 5 109.5 48t81.5 167.5t71 357.5q16 132 16 193q0 209 -119 209q-89 0 -137 -102t-96 -345zM2449 897
q54 251 185.5 394t326.5 143q353 0 353 -451q0 -235 -53.5 -464.5t-192 -390.5t-373.5 -161q-307 0 -319 443q13 217 73 487z" />
    <glyph glyph-name="guilsinglleft" unicode="&#x2039;" horiz-adv-x="975" 
d="M270 1065l672 909l168 -110l-590 -799l295 -815l-201 -107z" />
    <glyph glyph-name="guilsinglright" unicode="&#x203a;" horiz-adv-x="975" 
d="M1040 1065l-630 -922l-168 107l549 815l-345 799l201 110z" />
    <glyph glyph-name="trademark" unicode="&#x2122;" horiz-adv-x="3072" 
d="M3432 3088l-266 -1720h-229l237 1479h-8l-717 -1479h-131l-237 1479h-8l-234 -1479h-229l270 1720h369l209 -1216h8l606 1216h360zM1630 3088l-28 -241h-451l-229 -1479h-258l241 1479h-459l41 241h1143z" />
    <glyph glyph-name="fi" unicode="&#xf001;" horiz-adv-x="1880" 
d="M1974 2073l-327 -2073h-381l327 2073h381zM1622 2671q6 114 95.5 195t195.5 87q81 0 151 -49t78 -143q0 -248 -311 -320q-93 6 -151 66.5t-58 163.5zM279 0l282 1769h-192l49 304h188l131 790q48 316 189.5 447t330.5 131q115 0 287 -66l-74 -397q-72 45 -159 45
q-86 0 -141 -57t-64 -156l-115 -737h320l-45 -304h-324l-278 -1769h-385z" />
    <glyph glyph-name="fl" unicode="&#xf002;" horiz-adv-x="1823" 
d="M2183 3400l-536 -3400h-381l532 3400h385zM279 0l282 1769h-192l49 304h188l131 790q48 316 189.5 447t330.5 131q115 0 287 -66l-74 -397q-72 45 -159 45q-86 0 -141 -57t-64 -156l-115 -737h320l-45 -304h-324l-278 -1769h-385z" />
    </font>
</defs>
</svg>
