<?xml version="1.0" standalone="no"?>
<!DOCTYPE svg PUBLIC "-//W3C//DTD SVG 1.1//EN" "http://www.w3.org/Graphics/SVG/1.1/DTD/svg11.dtd" >
<svg xmlns="http://www.w3.org/2000/svg" xmlns:xlink="http://www.w3.org/1999/xlink" version="1.1">
<metadata>
Created by FontForge 20170731 at Tue Dec  9 19:47:41 2003
 By Aleksey,,,
Copyright 1990-2003 Bitstream Inc. All rights reserved.
</metadata>
<defs>
<font id="FuturaBT-ExtraBlackItalic" horiz-adv-x="1024" >
  <font-face 
    font-family="Futura XBlkIt BT"
    font-weight="400"
    font-style="italic"
    font-stretch="normal"
    units-per-em="2048"
    panose-1="2 11 9 3 2 2 4 9 2 4"
    ascent="1638"
    descent="-410"
    x-height="1034"
    cap-height="1464"
    bbox="-342 -498 2519 1972"
    underline-thickness="379"
    underline-position="-854"
    slope="-10.5"
    unicode-range="U+0020-F002"
  />
<missing-glyph horiz-adv-x="1229" 
d="M102 -362v1806h1024v-1806h-1024zM217 -248h795v1577h-795v-1577z" />
    <glyph glyph-name=".notdef" horiz-adv-x="1229" 
d="M102 -362v1806h1024v-1806h-1024zM217 -248h795v1577h-795v-1577z" />
    <glyph glyph-name=".null" horiz-adv-x="0" 
 />
    <glyph glyph-name="nonmarkingreturn" horiz-adv-x="702" 
 />
    <glyph glyph-name="space" unicode=" " horiz-adv-x="702" 
 />
    <glyph glyph-name="exclam" unicode="!" horiz-adv-x="758" 
d="M131 610l166 940h502l-199 -940h-469zM289 -33q-111 0 -187.5 71.5t-76.5 172.5q0 126 89 214.5t218 88.5q113 0 189.5 -73t76.5 -181q0 -118 -92 -205.5t-217 -87.5z" />
    <glyph glyph-name="quotedbl" unicode="&#x22;" horiz-adv-x="758" 
d="M690 1440v-563h-260v563h260zM326 1440v-563h-258v563h258z" />
    <glyph glyph-name="numbersign" unicode="#" horiz-adv-x="1575" 
d="M946 834h-239l-78 -213h239zM938 1470l-129 -366h227l129 366h289l-129 -366h256l-100 -270h-252l-76 -213h258l-100 -271h-254l-131 -366h-289l131 366h-227l-131 -366h-289l131 366h-258l100 271h254l74 213h-258l98 270h258l129 366h289z" />
    <glyph glyph-name="dollar" unicode="$" horiz-adv-x="1403" 
d="M-25 229l263 375q86 -106 185 -162.5t198 -56.5q45 0 71.5 15.5t26.5 41.5q0 39 -107 81q-31 12 -49 20q-188 77 -272 177t-84 243q0 195 131.5 332t349.5 167l25 162h362l-31 -182q80 -22 153.5 -60t139.5 -92l-202 -352q-87 75 -161 112t-134 37q-38 0 -60 -16.5
t-22 -44.5q0 -49 147 -110q25 -11 39 -17q172 -76 242.5 -169t70.5 -236q0 -187 -129.5 -326t-349.5 -186l-47 -248h-360l51 262q-127 31 -238.5 89.5t-208.5 143.5z" />
    <glyph glyph-name="percent" unicode="%" horiz-adv-x="1763" 
d="M1280 182q44 0 77.5 76t33.5 180q0 44 -13 64t-41 20q-46 0 -79 -76t-33 -182q0 -41 13.5 -61.5t41.5 -20.5zM1683 414q0 -200 -115.5 -327.5t-297.5 -127.5q-156 0 -242 88t-86 248q0 195 118 319.5t302 124.5q148 0 234.5 -87.5t86.5 -237.5zM428 928q44 0 76.5 74.5
t32.5 179.5q0 44 -13.5 65t-40.5 21q-46 0 -79 -76t-33 -182q0 -41 14.5 -61.5t42.5 -20.5zM817 1153q0 -200 -115.5 -326.5t-298.5 -126.5q-155 0 -241 88.5t-86 247.5q0 196 118 319.5t302 123.5q148 0 234.5 -88t86.5 -238zM340 -41l872 1520h201l-874 -1520h-199z" />
    <glyph glyph-name="ampersand" unicode="&#x26;" horiz-adv-x="1712" 
d="M870 969q64 18 97.5 51t33.5 78q0 33 -22.5 55.5t-56.5 22.5q-40 0 -65.5 -29.5t-25.5 -77.5q0 -26 10 -51.5t29 -48.5zM764 391l-154 203q-51 -20 -75.5 -44t-24.5 -54q0 -51 46.5 -85t117.5 -34q13 0 33 3t57 11zM1024 72q-116 -54 -221.5 -80.5t-206.5 -26.5
q-245 0 -406 137.5t-161 339.5q0 159 104 270.5t311 174.5q-33 58 -49 111t-16 104q0 174 141 283.5t369 109.5q227 0 371.5 -119t144.5 -301q0 -130 -86 -228.5t-244 -150.5l115 -133q58 41 115 89t116 106l242 -299q-57 -54 -116.5 -99.5t-121.5 -80.5l222 -279h-562z" />
    <glyph glyph-name="quotesingle" unicode="'" horiz-adv-x="393" 
d="M326 1440v-563h-258v563h258z" />
    <glyph glyph-name="parenleft" unicode="(" horiz-adv-x="891" 
d="M985 1327q-247 -210 -360 -424.5t-113 -468.5q0 -177 51.5 -340.5t155.5 -316.5l-309 -176q-165 207 -246.5 425.5t-81.5 448.5q0 340 170.5 619.5t509.5 494.5z" />
    <glyph glyph-name="parenright" unicode=")" horiz-adv-x="891" 
d="M-131 -135q246 192 362.5 411t116.5 492q0 170 -50.5 329.5t-154.5 313.5l310 176q164 -207 243.5 -422t79.5 -448q0 -349 -167.5 -626t-508.5 -492z" />
    <glyph glyph-name="asterisk" unicode="*" horiz-adv-x="1067" 
d="M698 1194l224 109l69 -220l-250 -34l209 -142l-157 -168l-154 201l-18 -256l-230 51l96 238l-227 -111l-65 219l251 35l-210 141l155 168l156 -196l16 252l230 -51z" />
    <glyph glyph-name="plus" unicode="+" horiz-adv-x="1706" 
d="M993 1221v-473h459v-273h-459v-475h-280v475h-459v273h459v473h280z" />
    <glyph glyph-name="comma" unicode="," horiz-adv-x="702" 
d="M-276 -336l370 715h518l-458 -715h-430z" />
    <glyph glyph-name="hyphen" unicode="-" horiz-adv-x="901" 
d="M-10 309l80 410h764l-78 -410h-766z" />
    <glyph glyph-name="period" unicode="." horiz-adv-x="702" 
d="M274 -29q-110 0 -188 72.5t-78 173.5q0 126 90 213.5t219 87.5q114 0 189.5 -72t75.5 -180q0 -118 -91.5 -206.5t-216.5 -88.5z" />
    <glyph glyph-name="slash" unicode="/" horiz-adv-x="1014" 
d="M0 -190l782 1687h232l-783 -1687h-231z" />
    <glyph glyph-name="zero" unicode="0" horiz-adv-x="1403" 
d="M764 997q-38 0 -68 -29t-53 -89q-34 -89 -55 -186t-21 -163q0 -50 18.5 -74t57.5 -24q28 0 51.5 17.5t42.5 54.5q40 70 68.5 183.5t28.5 203.5q0 55 -17 80.5t-53 25.5zM55 557q0 194 60.5 377t163.5 303q100 118 228.5 180t274.5 62q254 0 411 -162.5t157 -425.5
q0 -192 -61 -376t-165 -308q-99 -119 -226.5 -181.5t-272.5 -62.5q-255 0 -412.5 164t-157.5 430z" />
    <glyph glyph-name="one" unicode="1" horiz-adv-x="1403" 
d="M336 0l192 1038h-174l76 412h676l-268 -1450h-502z" />
    <glyph glyph-name="two" unicode="2" horiz-adv-x="1403" 
d="M-23 0l54 291q377 234 572.5 399.5t195.5 251.5q0 43 -25 67.5t-69 24.5q-52 0 -84.5 -36t-38.5 -99h-455q40 287 203 433.5t444 146.5q252 0 407.5 -124.5t155.5 -322.5q0 -180 -137 -337t-412 -292h467l-75 -403h-1203z" />
    <glyph glyph-name="three" unicode="3" horiz-adv-x="1403" 
d="M516 469q8 -60 43.5 -90.5t99.5 -30.5q60 0 97 32.5t37 84.5q0 56 -37 85.5t-107 29.5l-16.5 -1t-32.5 -1l58 317q15 -3 29.5 -4.5t29.5 -1.5q67 0 106 32t39 87q0 43 -28.5 68.5t-77.5 25.5q-53 0 -87.5 -32t-44.5 -89h-481q48 244 223.5 371t467.5 127
q219 0 362 -113.5t143 -284.5q0 -131 -75.5 -216t-231.5 -130q126 -26 192 -103.5t66 -199.5q0 -207 -173 -339t-453 -132q-281 0 -449 135.5t-182 372.5h483z" />
    <glyph glyph-name="four" unicode="4" horiz-adv-x="1403" 
d="M621 0l49 270h-699l56 299l682 887h667l-151 -815h137l-68 -371h-137l-49 -270h-487zM737 641l56 287l6 30q19 101 35 150h-11q-17 -48 -39 -91t-49 -81l-106 -156q-28 -40 -58 -74.5t-63 -64.5h229z" />
    <glyph glyph-name="five" unicode="5" horiz-adv-x="1403" 
d="M129 518q106 -86 208.5 -128t207.5 -42q81 0 130.5 36t49.5 95q0 91 -100 147t-267 56q-48 0 -94 -5t-90 -15l248 788h928l-74 -399h-553l-25 -117h35q243 0 382.5 -117t139.5 -317q0 -237 -187 -389t-484 -152q-154 0 -304 46.5t-294 137.5z" />
    <glyph glyph-name="six" unicode="6" horiz-adv-x="1403" 
d="M557 512q0 -52 36.5 -87.5t90.5 -35.5t91.5 35.5t37.5 87.5t-37.5 87.5t-91.5 35.5q-53 0 -90 -36t-37 -87zM772 932q40 7 69 10.5t54 3.5q70 0 133 -19.5t121 -58.5q86 -58 133 -146.5t47 -191.5q0 -122 -61.5 -235t-173.5 -199q-90 -66 -201 -100.5t-238 -34.5
q-277 0 -439.5 153.5t-162.5 415.5q0 219 166.5 445.5t509.5 474.5h705z" />
    <glyph glyph-name="seven" unicode="7" horiz-adv-x="1403" 
d="M74 0l727 1032h-641l86 418h1272v-20l-840 -1430h-604z" />
    <glyph glyph-name="eight" unicode="8" horiz-adv-x="1403" 
d="M408 774q-100 34 -152.5 107.5t-52.5 179.5q0 189 157 304.5t420 115.5q269 0 422.5 -111.5t153.5 -304.5q0 -133 -81.5 -218.5t-234.5 -113.5q123 -34 194 -119.5t71 -197.5q0 -213 -168.5 -335t-462.5 -122q-297 0 -470 122t-173 329q0 151 96.5 244.5t280.5 119.5z
M782 1135q-47 0 -79.5 -34t-32.5 -83q0 -44 29 -71t77 -27q47 0 79 33.5t32 82.5q0 43 -29.5 71t-75.5 28zM680 594q-52 0 -91.5 -44t-39.5 -101q0 -50 33.5 -82.5t85.5 -32.5q57 0 94 40t37 101q0 51 -34 85t-85 34z" />
    <glyph glyph-name="nine" unicode="9" horiz-adv-x="1403" 
d="M850 928q0 52 -36.5 87.5t-90.5 35.5t-90.5 -35.5t-36.5 -87.5t36.5 -87.5t90.5 -35.5q53 0 90 36t37 87zM634 507q-25 -4 -54 -6.5t-66 -2.5q-195 0 -316.5 114.5t-121.5 296.5q0 249 190.5 409.5t491.5 160.5q268 0 434 -151.5t166 -393.5q0 -192 -90.5 -362.5
t-270.5 -315.5l-319 -256h-705z" />
    <glyph glyph-name="colon" unicode=":" horiz-adv-x="750" 
d="M274 -25q-111 0 -188.5 64t-77.5 151q0 110 90.5 188.5t218.5 78.5q111 0 188 -63.5t77 -149.5q0 -111 -90 -190t-218 -79zM385 551q-111 0 -188.5 63.5t-77.5 151.5q0 109 90.5 187.5t218.5 78.5q110 0 187 -64t77 -151q0 -110 -89.5 -188t-217.5 -78z" />
    <glyph glyph-name="semicolon" unicode=";" horiz-adv-x="750" 
d="M375 551q-111 0 -188.5 63.5t-77.5 151.5q0 109 90 187.5t219 78.5q110 0 188 -64t78 -151q0 -110 -90.5 -188t-218.5 -78zM-285 -336l369 715h518l-459 -715h-428z" />
    <glyph glyph-name="less" unicode="&#x3c;" horiz-adv-x="1706" 
d="M1442 938l-801 -328l801 -327v-299l-1178 487v281l1178 487v-301z" />
    <glyph glyph-name="equal" unicode="=" horiz-adv-x="1706" 
d="M1452 512v-272h-1198v272h1198zM1452 983v-272h-1198v272h1198z" />
    <glyph glyph-name="greater" unicode="&#x3e;" horiz-adv-x="1706" 
d="M1442 752v-281l-1178 -487v299l801 327l-801 328v301z" />
    <glyph glyph-name="question" unicode="?" horiz-adv-x="1309" 
d="M315 606l72 348h11q71 -4 102 -4q145 0 215.5 37.5t70.5 114.5q0 40 -24.5 63t-67.5 23q-45 0 -76 -33t-35 -86h-483q24 222 195 353.5t438 131.5q264 0 420 -125t156 -335q0 -142 -69 -249.5t-200 -170.5q-76 -37 -181.5 -52.5t-369.5 -15.5h-174zM475 -41
q-111 0 -187.5 71.5t-76.5 172.5q0 126 90 214.5t219 88.5q113 0 188.5 -73t75.5 -181q0 -118 -92 -205.5t-217 -87.5z" />
    <glyph glyph-name="at" unicode="@" horiz-adv-x="2048" 
d="M1241 911l49 82h242l-156 -627q-2 -12 -3 -18.5t-1 -11.5q0 -24 12.5 -36.5t34.5 -12.5q128 0 231 142t103 331q0 236 -174.5 381t-462.5 145q-142 0 -266 -35.5t-225 -105.5q-154 -108 -238 -269t-84 -350q0 -294 199.5 -468.5t535.5 -174.5q160 0 307.5 47t278.5 140
l115 -160q-164 -122 -342 -181t-381 -59q-188 0 -355 54.5t-294 156.5q-149 119 -223 279t-74 360q0 176 55.5 332.5t163.5 284.5q149 177 361.5 271.5t461.5 94.5q386 0 626 -206t240 -533q0 -171 -68 -314.5t-196 -242.5q-70 -55 -153.5 -84t-174.5 -29q-109 0 -166.5 38
t-66.5 115q-59 -79 -127.5 -115t-161.5 -36q-171 0 -257.5 88t-86.5 262q0 247 143.5 411.5t356.5 164.5q74 0 130.5 -28t90.5 -83zM1126 494l47 195q-7 67 -42 104.5t-91 37.5q-95 0 -167 -116.5t-72 -274.5q0 -72 30.5 -111.5t86.5 -39.5q72 0 129 55.5t79 149.5z" />
    <glyph glyph-name="A" unicode="A" horiz-adv-x="1464" 
d="M653 541h187l-6 157q-1 13 -2 37q-5 98 -5 158q0 40 0.5 61.5t1.5 40.5q-18 -59 -37 -113.5t-36 -97.5zM-143 0l764 1464h579l191 -1464h-521l-10 195h-352l-80 -195h-571z" />
    <glyph glyph-name="B" unicode="B" horiz-adv-x="1434" 
d="M674 922h26q102 0 149.5 24t47.5 76q0 40 -31.5 63t-87.5 23h-69zM569 356h37q133 0 185.5 28t52.5 95q0 52 -36.5 76.5t-115.5 24.5h-82zM0 0l270 1464h504q304 0 461.5 -101.5t157.5 -297.5q0 -136 -80.5 -216.5t-233.5 -96.5q132 -20 207.5 -100t75.5 -199
q0 -210 -169.5 -331.5t-465.5 -121.5h-727z" />
    <glyph glyph-name="C" unicode="C" horiz-adv-x="1309" 
d="M1141 539l-99 -529q-68 -25 -134.5 -37t-133.5 -12q-136 0 -256.5 43.5t-216.5 126.5q-106 92 -164.5 227.5t-58.5 288.5q0 164 50.5 306.5t150.5 258.5q118 139 286 213t365 74q103 0 195.5 -21t177.5 -63l-91 -489q-76 43 -147.5 64.5t-142.5 21.5q-139 0 -227.5 -87.5
t-88.5 -224.5q0 -115 69.5 -183t186.5 -68q64 0 137.5 23.5t141.5 66.5z" />
    <glyph glyph-name="D" unicode="D" horiz-adv-x="1593" 
d="M612 440h6q177 0 277 90t100 246q0 115 -71.5 181.5t-194.5 66.5h-10zM0 0l270 1464h396q184 0 307.5 -18t202.5 -55q173 -86 264.5 -235.5t91.5 -346.5q0 -185 -80 -346.5t-225 -269.5q-136 -102 -315 -147.5t-451 -45.5h-461z" />
    <glyph glyph-name="E" unicode="E" horiz-adv-x="1266" 
d="M0 0l270 1464h1004l-72 -397h-477l-27 -141h449l-68 -371h-448l-29 -158h520l-73 -397h-1049z" />
    <glyph glyph-name="F" unicode="F" horiz-adv-x="1188" 
d="M0 0l270 1464h971l-74 -397h-434l-33 -176h414l-72 -385h-413l-94 -506h-535z" />
    <glyph glyph-name="G" unicode="G" horiz-adv-x="1640" 
d="M1436 170q-152 -105 -306.5 -157t-316.5 -52q-329 0 -532 190t-203 496q0 164 50.5 306.5t150.5 258.5q116 139 284.5 212t368.5 73q233 0 399.5 -94t263.5 -281l-475 -176q-38 53 -87.5 78t-114.5 25q-140 0 -228 -102.5t-88 -264.5q0 -135 79.5 -217t211.5 -82
q18 0 37 1.5t38 4.5l27 143h-190l61 332h697z" />
    <glyph glyph-name="H" unicode="H" horiz-adv-x="1622" 
d="M0 0l270 1464h531l-92 -506h288l93 506h532l-272 -1464h-531l99 526h-289l-99 -526h-530z" />
    <glyph glyph-name="I" unicode="I" horiz-adv-x="829" 
d="M10 0l271 1464h538l-270 -1464h-539z" />
    <glyph glyph-name="J" unicode="J" horiz-adv-x="1012" 
d="M-61 55l137 455q46 -27 72 -37t47 -10q59 0 90 42t57 183l143 776h535l-158 -854q-36 -199 -79.5 -300.5t-114.5 -178.5q-79 -83 -180 -126.5t-218 -43.5q-88 0 -171 23.5t-160 70.5z" />
    <glyph glyph-name="K" unicode="K" horiz-adv-x="1487" 
d="M0 0l270 1464h531l-111 -594l391 594h619l-553 -739l299 -725h-574l-223 641l-119 -641h-530z" />
    <glyph glyph-name="L" unicode="L" horiz-adv-x="1124" 
d="M0 0l270 1464h541l-188 -1013h450l-84 -451h-989z" />
    <glyph glyph-name="M" unicode="M" horiz-adv-x="1946" 
d="M-76 0l438 1464h533l49 -474q7 -76 10.5 -156t3.5 -166l351 796h534l-69 -1464h-488l64 782q-19 -55 -42.5 -114t-52.5 -121l-254 -547h-301l-82 760q-7 -57 -20 -116t-31 -122l-147 -522h-496z" />
    <glyph glyph-name="N" unicode="N" horiz-adv-x="1737" 
d="M0 0l270 1464h537l168 -465q4 -11 12 -34q56 -152 78 -263l141 762h531l-271 -1464h-536l-271 756q-4 -103 -45 -334l-2 -12l-75 -410h-537z" />
    <glyph glyph-name="O" unicode="O" horiz-adv-x="1745" 
d="M895 1012q-125 0 -208 -89t-83 -221q0 -116 66.5 -184.5t177.5 -68.5q123 0 207 91t84 224q0 109 -69 178.5t-175 69.5zM815 -39q-158 0 -286 43t-228 129q-106 92 -164.5 227t-58.5 287q0 165 50.5 307t150.5 258q117 138 285.5 212.5t363.5 74.5q330 0 534.5 -190.5
t204.5 -495.5q0 -164 -51 -307.5t-150 -257.5q-120 -141 -286 -214t-365 -73z" />
    <glyph glyph-name="P" unicode="P" horiz-adv-x="1509" 
d="M686 831h39q116 0 171.5 35.5t55.5 108.5q0 55 -46 80.5t-148 25.5h-25zM0 0l270 1464h564q324 0 485.5 -118.5t161.5 -356.5q0 -256 -172.5 -398t-485.5 -142h-209l-82 -449h-532z" />
    <glyph glyph-name="Q" unicode="Q" horiz-adv-x="1745" 
d="M897 1010q-124 0 -208.5 -90t-84.5 -222q0 -117 67 -187.5t179 -70.5q122 0 206.5 92.5t84.5 225.5q0 109 -69 180.5t-175 71.5zM1438 -236l-498 -61l-131 266q-331 2 -531 189t-200 491q0 163 50.5 305t150.5 258q118 139 285.5 213t363.5 74q329 0 534 -190t205 -494
q0 -246 -113 -439.5t-325 -309.5z" />
    <glyph glyph-name="R" unicode="R" horiz-adv-x="1524" 
d="M0 0l270 1464h564q317 0 481 -112t164 -328q0 -183 -94.5 -303.5t-266.5 -157.5l211 -563h-543l-159 532l-99 -532h-528zM678 815h39q121 0 178 39.5t57 122.5q0 64 -45.5 93.5t-144.5 29.5h-31z" />
    <glyph glyph-name="S" unicode="S" horiz-adv-x="1217" 
d="M-92 231l262 383q87 -108 186.5 -165.5t198.5 -57.5q44 0 70 16t26 42q0 40 -114 86q-25 10 -39 16q-188 78 -273.5 180.5t-85.5 247.5q0 229 167 373.5t437 144.5q156 0 287.5 -46t241.5 -138l-205 -359q-89 78 -161.5 116t-133.5 38q-37 0 -59.5 -17.5t-22.5 -46.5
q0 -49 132 -105q35 -15 55 -24q171 -77 242 -172t71 -241q0 -230 -178.5 -383.5t-450.5 -153.5q-172 0 -338 67.5t-315 198.5z" />
    <glyph glyph-name="T" unicode="T" horiz-adv-x="1194" 
d="M193 0l188 1020h-313l84 444h1151l-82 -444h-303l-189 -1020h-536z" />
    <glyph glyph-name="U" unicode="U" horiz-adv-x="1563" 
d="M254 1464h537l-132 -710q-20 -108 -25 -144.5t-5 -56.5q0 -57 28.5 -88t81.5 -31q66 0 100 48.5t70 244.5l135 737h535l-149 -815q-31 -159 -67.5 -260t-86.5 -168q-93 -125 -235.5 -192.5t-313.5 -67.5q-297 0 -465 142.5t-168 392.5q0 51 10 127.5t35 214.5z" />
    <glyph glyph-name="V" unicode="V" horiz-adv-x="1372" 
d="M293 0l-248 1464h530l54 -458q10 -91 15.5 -175t6.5 -165q22 78 51 158t66 161l217 479h582l-799 -1464h-475z" />
    <glyph glyph-name="W" unicode="W" horiz-adv-x="2066" 
d="M178 0l-117 1464h510l19 -453q3 -54 4.5 -104.5t1.5 -97.5q0 -41 -1.5 -79.5t-4.5 -77.5l319 812h422l51 -805q24 88 47 159t44 122l202 524h557l-626 -1464h-535l-49 807q-19 -75 -42.5 -145.5t-51.5 -139.5l-221 -522h-529z" />
    <glyph glyph-name="X" unicode="X" horiz-adv-x="1458" 
d="M-213 0l655 782l-344 682h594l64 -141q18 -43 33.5 -86.5t27.5 -87.5q11 33 31 68.5t53 80.5l119 166h649l-610 -741l360 -723h-594l-84 190q-16 37 -27 73t-18 71q-32 -57 -57.5 -98.5t-38.5 -57.5l-139 -178h-674z" />
    <glyph glyph-name="Y" unicode="Y" horiz-adv-x="1311" 
d="M233 0l113 608l-360 856h577l64 -192q20 -62 32 -111.5t19 -95.5q21 73 91 183q6 9 9 13l129 203h635l-661 -864l-111 -600h-537z" />
    <glyph glyph-name="Z" unicode="Z" horiz-adv-x="1352" 
d="M-123 0l748 1032h-514l79 432h1346l-748 -1018h472l-82 -446h-1301z" />
    <glyph glyph-name="bracketleft" unicode="[" horiz-adv-x="891" 
d="M-25 -360l371 1910h678l-68 -352h-258l-235 -1208h260l-70 -350h-678z" />
    <glyph glyph-name="backslash" unicode="\" horiz-adv-x="1014" 
d="M125 1497h231l533 -1687h-232z" />
    <glyph glyph-name="bracketright" unicode="]" horiz-adv-x="891" 
d="M866 1550l-370 -1910h-680l69 352h258l234 1208h-258l67 350h680z" />
    <glyph glyph-name="asciicircum" unicode="^" horiz-adv-x="2048" 
d="M1192 1462l442 -565h-303l-307 309l-309 -309h-303l442 565h338z" />
    <glyph glyph-name="underscore" unicode="_" 
d="M1024 -201v-282h-1024v282h1024z" />
    <glyph glyph-name="grave" unicode="`" 
d="M326 1530h274l154 -352h-154z" />
    <glyph glyph-name="a" unicode="a" horiz-adv-x="1374" 
d="M643 647q-59 0 -97 -46.5t-38 -119.5q0 -56 27.5 -86t78.5 -30q64 0 104 44.5t40 114.5q0 57 -31.5 90t-83.5 33zM852 1034h475l-192 -1034h-459l37 139q-65 -89 -141.5 -132.5t-170.5 -43.5q-166 0 -273.5 128t-107.5 331q0 117 37.5 230.5t106.5 205.5
q77 103 172.5 156t204.5 53q98 0 170 -45t123 -137z" />
    <glyph glyph-name="b" unicode="b" horiz-adv-x="1401" 
d="M623 375q63 0 105 45t42 112q0 57 -31 91t-82 34q-59 0 -98 -47t-39 -118q0 -55 27.5 -86t75.5 -31zM760 1550l-94 -501q-6 -27 -18 -61.5t-30 -74.5q62 78 135.5 116t159.5 38q167 0 274 -128t107 -331q0 -117 -37.5 -230.5t-105.5 -205.5q-77 -103 -172.5 -156
t-204.5 -53q-92 0 -161.5 40t-116.5 120l-25 -123h-483l284 1550h488z" />
    <glyph glyph-name="c" unicode="c" horiz-adv-x="967" 
d="M741 0q-64 -20 -118.5 -29.5t-102.5 -9.5q-221 0 -361.5 135t-140.5 348q0 126 44 238.5t126 196.5q90 92 207 140t254 48q74 0 142 -15t133 -44l-70 -385q-48 31 -87.5 46t-76.5 15q-81 0 -131.5 -51t-50.5 -133q0 -71 44 -113.5t118 -42.5q31 0 65 9.5t72 29.5z" />
    <glyph glyph-name="d" unicode="d" horiz-adv-x="1401" 
d="M610 369q59 0 100.5 46t41.5 113q0 58 -30.5 91.5t-82.5 33.5q-58 0 -97.5 -47.5t-39.5 -118.5q0 -56 28.5 -87t79.5 -31zM1427 1550l-288 -1550h-459l33 127q-64 -84 -139 -125t-164 -41q-166 0 -276.5 128t-110.5 321q0 120 39 241.5t106 210.5q75 100 172 152.5
t205 52.5q94 0 166.5 -44.5t128.5 -137.5v24q0 32 3 68t9 76l88 497h487z" />
    <glyph glyph-name="e" unicode="e" horiz-adv-x="1235" 
d="M485 649h248v15q0 49 -26.5 77.5t-71.5 28.5q-56 0 -92 -29t-58 -92zM1145 457h-686q0 -78 33 -121t92 -43q42 0 74.5 20.5t70.5 71.5l367 -78q-91 -172 -234 -259t-336 -87q-226 0 -370 135.5t-144 347.5q0 125 43 236t123 194q90 93 208.5 143t250.5 50q226 0 371 -131
t145 -332q0 -38 -2 -74t-6 -73z" />
    <glyph glyph-name="f" unicode="f" horiz-adv-x="903" 
d="M55 0l123 664h-129l70 370h127q48 283 170.5 412t341.5 129q58 0 118 -11t123 -32l-71 -389q-32 16 -57 24.5t-46 8.5q-46 0 -69.5 -34t-28.5 -107l180 -1l-69 -370h-181l-120 -664h-482z" />
    <glyph glyph-name="g" unicode="g" horiz-adv-x="1401" 
d="M649 659q-60 0 -98.5 -45.5t-38.5 -115.5q0 -55 27.5 -85t78.5 -30q64 0 105 43.5t41 112.5q0 54 -31.5 87t-83.5 33zM854 1034h475l-176 -936q-50 -266 -217 -403t-438 -137q-120 0 -237.5 29.5t-242.5 90.5l164 297q68 -45 131.5 -66.5t132.5 -21.5q94 0 159 55.5
t93 159.5l25 88q-66 -85 -145 -128.5t-170 -43.5q-174 0 -279.5 114t-105.5 300q0 110 37.5 221.5t105.5 202.5q76 102 171.5 154.5t205.5 52.5q98 0 170 -44.5t123 -135.5z" />
    <glyph glyph-name="h" unicode="h" horiz-adv-x="1352" 
d="M-33 0l285 1550h491l-96 -506q-7 -36 -17.5 -74.5t-25.5 -82.5q82 94 163.5 136t182.5 42q137 0 217 -83t80 -224q0 -47 -4.5 -96t-13.5 -98l-103 -564h-491l96 520q5 26 7.5 51.5t2.5 49.5q0 28 -17 45.5t-44 17.5q-54 0 -86.5 -50.5t-54.5 -174.5l-84 -459h-488z" />
    <glyph glyph-name="i" unicode="i" horiz-adv-x="725" 
d="M446 1087q-109 0 -182.5 67.5t-73.5 166.5q0 106 87 184t208 78q110 0 183 -66.5t73 -166.5q0 -107 -87 -185t-208 -78zM-16 0l190 1034h488l-191 -1034h-487z" />
    <glyph glyph-name="j" unicode="j" horiz-adv-x="725" 
d="M-98 -446l272 1480h488l-275 -1480h-485zM446 1087q-109 0 -182.5 67.5t-73.5 166.5q0 106 87 184t208 78q110 0 183 -66.5t73 -166.5q0 -107 -87 -185t-208 -78z" />
    <glyph glyph-name="k" unicode="k" horiz-adv-x="1325" 
d="M-29 0l289 1550h481l-176 -948l297 432h537l-426 -512l231 -522h-516l-147 463l-86 -463h-484z" />
    <glyph glyph-name="l" unicode="l" horiz-adv-x="725" 
d="M469 0h-481l286 1550h482z" />
    <glyph glyph-name="m" unicode="m" horiz-adv-x="1997" 
d="M-33 0l193 1034h458l-30 -149q90 95 174 138.5t176 43.5q95 0 160.5 -50.5t103.5 -154.5q72 102 168 153.5t211 51.5q140 0 224.5 -85.5t84.5 -227.5q0 -38 -5 -86t-15 -105l-105 -563h-491l102 518q5 23 7.5 48t2.5 52q0 30 -15 47t-42 17q-51 0 -80.5 -47t-52.5 -176
l-84 -459h-494l103 518q5 27 7.5 50t2.5 42q0 35 -15.5 53.5t-43.5 18.5q-51 0 -80.5 -47t-52.5 -176l-84 -459h-488z" />
    <glyph glyph-name="n" unicode="n" horiz-adv-x="1352" 
d="M-33 0l193 1034h458l-30 -149q90 91 180.5 136.5t183.5 45.5q134 0 215.5 -84.5t81.5 -224.5q0 -40 -5 -89t-15 -106l-103 -563h-491l96 520q5 27 7.5 52t2.5 49q0 28 -17 45.5t-44 17.5q-54 0 -86.5 -50t-54.5 -173l-84 -461h-488z" />
    <glyph glyph-name="o" unicode="o" horiz-adv-x="1262" 
d="M608 653q-59 0 -100 -48.5t-41 -119.5q0 -52 29.5 -83t78.5 -31q63 0 102.5 46.5t39.5 121.5q0 53 -29 83.5t-80 30.5zM12 442q0 127 43.5 237.5t126.5 194.5q92 94 209 142.5t250 48.5q240 0 383 -134.5t143 -359.5q0 -105 -35.5 -203t-103.5 -180q-90 -109 -219.5 -168
t-278.5 -59q-226 0 -372 136t-146 345z" />
    <glyph glyph-name="p" unicode="p" horiz-adv-x="1368" 
d="M-111 -446l273 1480h459l-25 -125q62 81 134 119.5t161 38.5q168 0 276.5 -127t108.5 -326q0 -120 -37.5 -236.5t-105.5 -207.5q-76 -103 -171 -155t-208 -52q-92 0 -160.5 42.5t-132.5 139.5q2 -19 3 -30t1 -19q0 -37 -12 -95q-3 -14 -4 -21l-78 -426h-482zM696 659
q-62 0 -104.5 -44.5t-42.5 -112.5q0 -58 30.5 -91.5t82.5 -33.5q58 0 97.5 47.5t39.5 118.5q0 55 -27 85.5t-76 30.5z" />
    <glyph glyph-name="q" unicode="q" horiz-adv-x="1401" 
d="M641 649q-59 0 -97 -47t-38 -119q0 -56 29.5 -87t82.5 -31q59 0 98.5 46t39.5 117q0 54 -32 87.5t-83 33.5zM850 1034h475l-270 -1480h-484l80 425q3 20 11 52.5t20 77.5q-57 -73 -128 -109.5t-157 -36.5q-166 0 -272.5 128t-106.5 331q0 118 37 231.5t105 204.5
q77 103 172.5 156t204.5 53q97 0 170.5 -45.5t121.5 -136.5z" />
    <glyph glyph-name="r" unicode="r" horiz-adv-x="965" 
d="M-33 0l193 1034h446l-35 -141q53 88 123 131t160 43q22 0 50.5 -4t68.5 -12l-78 -422q-51 17 -92 26t-74 9q-85 0 -127 -43.5t-63 -159.5l-84 -461h-488z" />
    <glyph glyph-name="s" unicode="s" horiz-adv-x="985" 
d="M-72 135l183 305q75 -74 148 -114.5t130 -40.5q24 0 39.5 12t15.5 31q0 29 -71 66l-6 3l-78 41q-92 49 -136 113.5t-44 150.5q0 160 123.5 262.5t318.5 102.5q102 0 202 -30.5t205 -94.5l-165 -278q-52 49 -100 75.5t-89 26.5q-25 0 -41 -13t-16 -32q0 -24 59 -51
q17 -8 26 -12l62 -29q95 -43 140 -109.5t45 -165.5q0 -177 -128 -285t-339 -108q-112 0 -233 43.5t-251 130.5z" />
    <glyph glyph-name="t" unicode="t" horiz-adv-x="874" 
d="M51 0l121 662h-129l70 372h129l53 289h487l-53 -289h150l-70 -372h-150l-122 -662h-486z" />
    <glyph glyph-name="u" unicode="u" horiz-adv-x="1337" 
d="M145 1034h486l-80 -440q-2 -13 -7 -37q-12 -59 -12 -84q0 -41 20 -63.5t56 -22.5q49 0 74 37.5t53 185.5l78 424h473l-86 -467q-61 -333 -204 -468.5t-427 -135.5q-249 0 -388.5 116t-139.5 324q0 66 30 229q3 16 5 26z" />
    <glyph glyph-name="v" unicode="v" horiz-adv-x="1124" 
d="M-25 1034h471l31 -243q6 -43 11 -99t8 -122q18 58 45.5 124t70.5 152l95 188h495l-620 -1034h-365z" />
    <glyph glyph-name="w" unicode="w" horiz-adv-x="1726" 
d="M166 0l-176 1034h465l26 -227q6 -44 9 -94t6 -149l215 470h319l31 -260q5 -52 7.5 -91.5t2.5 -74.5q0 -24 -0.5 -36t-1.5 -21l223 483h498l-549 -1034h-399l-45 514q-27 -87 -91 -218l-14 -28l-131 -268h-395z" />
    <glyph glyph-name="x" unicode="x" horiz-adv-x="1350" 
d="M-162 0l516 539l-325 495h540l60 -109q3 -6 10 -19q28 -56 43 -93q18 31 36.5 59.5t41.5 57.5l86 104h557l-490 -526l340 -508h-536l-127 207q-33 -47 -60 -81t-43 -50l-71 -76h-578z" />
    <glyph glyph-name="y" unicode="y" horiz-adv-x="1186" 
d="M-152 -446l385 632l-233 848h467l51 -256q13 -61 19.5 -107t7.5 -87q9 42 27.5 91.5t45.5 104.5l123 254h510l-870 -1480h-533z" />
    <glyph glyph-name="z" unicode="z" horiz-adv-x="1214" 
d="M-78 0l500 653h-356l69 381h1079l-6 -28l-499 -627h385l-72 -379h-1100z" />
    <glyph glyph-name="braceleft" unicode="{" 
d="M905 1192q-8 0 -22.5 1t-20.5 1q-87 0 -117 -30t-30 -128v-239q0 -134 -47 -189.5t-170 -77.5q124 -23 170.5 -77.5t46.5 -186.5v-241q0 -96 29.5 -126t115.5 -30q7 0 22 1t23 1v-285h-80q-139 0 -211.5 10.5t-119.5 34.5q-60 30 -84.5 84.5t-24.5 186.5v258
q0 127 -46.5 179t-158.5 52q-5 0 -16.5 -1t-18.5 -1v283q7 0 18.5 -1t16.5 -1q112 0 158.5 52t46.5 179v258q0 133 24.5 188t84.5 85q48 24 120.5 34.5t210.5 10.5h80v-285z" />
    <glyph glyph-name="bar" unicode="|" 
d="M653 1565v-2048h-280v2048h280z" />
    <glyph glyph-name="braceright" unicode="}" 
d="M641 1159v-258q0 -127 46.5 -179t158.5 -52q5 0 16.5 1t18.5 1v-283q-7 0 -18.5 1t-16.5 1q-112 0 -158.5 -52t-46.5 -179v-258q0 -130 -25 -186t-86 -87q-45 -23 -115 -33t-200 -10h-94v283q9 0 23 -1t20 -1q87 0 117 30t30 128v241q0 132 46.5 186.5t170.5 77.5
q-123 22 -170 77t-47 188v241q0 98 -30 128t-117 30q-6 0 -20 -1t-23 -1v285h80q138 0 210 -10.5t119 -34.5q61 -31 86 -87t25 -186z" />
    <glyph glyph-name="asciitilde" unicode="~" horiz-adv-x="1706" 
d="M1530 543q-102 -69 -192 -101t-179 -32q-54 0 -111.5 11.5t-154.5 45.5q-124 42 -194.5 56t-137.5 14q-84 0 -176 -38t-207 -120v299q119 75 216.5 109t191.5 34q58 0 123 -12t155 -41q22 -7 64 -22q152 -54 235 -54q86 0 175 36.5t192 113.5v-299z" />
    <glyph glyph-name="Euro" horiz-adv-x="1403" 
d="M1409 1395l-90 -445q-89 51 -152.5 69.5t-138.5 18.5q-105 0 -167 -26t-107 -90h430l-76 -140h-397q-5 -35 -7 -56t-2 -38v-20h349l-76 -138h-250q27 -68 90 -103.5t158 -35.5q64 0 137 23.5t141 66.5l-92 -469q-68 -24 -134.5 -36.5t-133.5 -12.5q-301 0 -472 141
t-216 426h-205l55 138h142q0 33 2 61.5t6 52.5h-164l53 140h144q83 266 293 411.5t507 145.5q103 0 196 -21t177 -63z" />
    <glyph glyph-name="Euro" unicode="&#x20ac;" horiz-adv-x="1403" 
d="M1409 1395l-90 -445q-89 51 -152.5 69.5t-138.5 18.5q-105 0 -167 -26t-107 -90h430l-76 -140h-397q-5 -35 -7 -56t-2 -38v-20h349l-76 -138h-250q27 -68 90 -103.5t158 -35.5q64 0 137 23.5t141 66.5l-92 -469q-68 -24 -134.5 -36.5t-133.5 -12.5q-301 0 -472 141
t-216 426h-205l55 138h142q0 33 2 61.5t6 52.5h-164l53 140h144q83 266 293 411.5t507 145.5q103 0 196 -21t177 -63z" />
    <glyph glyph-name="nonbreakingspace" unicode="&#xa0;" horiz-adv-x="1403" 
 />
    <glyph glyph-name="exclamdown" unicode="&#xa1;" horiz-adv-x="758" 
d="M516 1550q111 0 187.5 -71t76.5 -172q0 -126 -90 -213.5t-219 -87.5q-114 0 -189 72t-75 179q0 118 92 205.5t217 87.5zM672 907l-164 -940h-504l201 940h467z" />
    <glyph glyph-name="cent" unicode="&#xa2;" horiz-adv-x="1403" 
d="M969 23q-88 -23 -136 -31t-83 -8l-29 -170h-225l36 211q-149 55 -228 166.5t-79 269.5q0 226 130 390t350 214l26 164h230l-25 -158q68 -7 121.5 -20.5t99.5 -34.5l-72 -379q-49 30 -90.5 44.5t-79.5 14.5q-83 0 -135.5 -50.5t-52.5 -131.5q0 -69 46.5 -111.5
t121.5 -42.5q29 0 63 9.5t78 29.5z" />
    <glyph glyph-name="sterling" unicode="&#xa3;" horiz-adv-x="1403" 
d="M256 -35l-229 258q53 55 119 90t141 49q44 43 67 90t24 97h-261l55 285h162q-18 50 -26.5 96t-8.5 88q0 205 152 333t401 128q241 0 378.5 -131t137.5 -363h-379q-8 77 -43.5 116.5t-97.5 39.5q-80 0 -128 -50t-48 -135q0 -27 4 -58t12 -64h434l-53 -285h-352v-19
q0 -61 -21.5 -104t-70.5 -78q23 0 48.5 -5.5t61.5 -18.5l44 -17q16 -7 34.5 -10.5t36.5 -3.5q46 0 96.5 28t110.5 89l233 -248q-108 -105 -220.5 -153t-250.5 -48q-54 0 -103.5 6t-89.5 17l-87 22q-32 9 -61 14t-50 5q-47 0 -89 -15t-83 -45z" />
    <glyph glyph-name="currency" unicode="&#xa4;" horiz-adv-x="1403" 
d="M1409 1395l-90 -445q-89 51 -152.5 69.5t-138.5 18.5q-105 0 -167 -26t-107 -90h430l-76 -140h-397q-5 -35 -7 -56t-2 -38v-20h349l-76 -138h-250q27 -68 90 -103.5t158 -35.5q64 0 137 23.5t141 66.5l-92 -469q-68 -24 -134.5 -36.5t-133.5 -12.5q-301 0 -472 141
t-216 426h-205l55 138h142q0 33 2 61.5t6 52.5h-164l53 140h144q83 266 293 411.5t507 145.5q103 0 196 -21t177 -63z" />
    <glyph glyph-name="yen" unicode="&#xa5;" horiz-adv-x="1516" 
d="M373 0l98 508h-471l35 182h418l-70 164h-320l35 182h205l-178 414h510l72 -201q20 -57 37.5 -121t31.5 -137q54 98 88 156.5t56 89.5l141 213h567l-315 -414h211l-33 -182h-320l-124 -164h413l-33 -182h-473l-98 -508h-483z" />
    <glyph glyph-name="brokenbar" unicode="&#xa6;" 
d="M653 408v-758h-280v758h280zM653 1432v-758h-280v758h280z" />
    <glyph glyph-name="section" unicode="&#xa7;" horiz-adv-x="1327" 
d="M670 694q-68 0 -114 -45.5t-46 -109.5q0 -48 33 -76.5t90 -28.5q71 0 115.5 43.5t44.5 112.5q0 49 -32.5 76.5t-90.5 27.5zM16 45h410v-16q0 -62 32.5 -94.5t92.5 -32.5q59 0 97 32.5t38 81.5q0 48 -31 75t-110 46l-150 37q-178 43 -266 128t-88 214q0 128 75 215
t212 117q-66 52 -99.5 116t-33.5 138q0 169 158.5 283t402.5 114q242 0 383 -117.5t143 -320.5h-403v10q0 58 -34.5 90.5t-94.5 32.5q-53 0 -88 -28t-35 -70q0 -41 39 -68.5t129 -48.5l127 -31q171 -42 255.5 -128t84.5 -220q0 -127 -75 -215.5t-210 -120.5
q69 -48 103 -108.5t34 -137.5q0 -181 -158 -296t-413 -115q-245 0 -380.5 112.5t-146.5 325.5z" />
    <glyph glyph-name="dieresis" unicode="&#xa8;" 
d="M668 1364q0 58 43.5 101.5t101.5 43.5q60 0 104 -42.5t44 -102.5q0 -64 -42 -105.5t-106 -41.5q-61 0 -103 42.5t-42 104.5zM295 1364q0 59 44 102t103 43q62 0 105 -42t43 -103q0 -65 -41.5 -106t-106.5 -41q-62 0 -104.5 42.5t-42.5 104.5z" />
    <glyph glyph-name="copyright" unicode="&#xa9;" horiz-adv-x="1706" 
d="M987 883q-3 63 -38 99t-93 36q-73 0 -114.5 -71.5t-41.5 -201.5q0 -131 41 -196.5t123 -65.5q60 0 92 36.5t35 106.5l248 1q-6 -149 -109 -237.5t-272 -88.5q-195 0 -306.5 116t-111.5 320q0 200 111 323.5t289 123.5q176 0 278.5 -79.5t110.5 -221.5h-242zM1452 743
q0 120 -45 229t-129 193q-87 87 -194.5 131.5t-229.5 44.5q-123 0 -230 -43.5t-190 -128.5q-86 -87 -132 -197t-46 -229t45.5 -227.5t130.5 -193.5q86 -86 194 -131.5t228 -45.5q119 0 228.5 46t197.5 133q85 83 128.5 189.5t43.5 229.5zM852 1493q155 0 292.5 -56
t244.5 -163q104 -105 160.5 -243t56.5 -290q0 -154 -55.5 -288.5t-161.5 -237.5q-111 -108 -250 -166.5t-287 -58.5q-149 0 -284 57t-244 166q-108 107 -165 243t-57 285q0 151 57.5 289t166.5 248q103 105 238 160t288 55z" />
    <glyph glyph-name="ordfeminine" unicode="&#xaa;" horiz-adv-x="1030" 
d="M483 1194q-45 0 -73.5 -32t-28.5 -83q0 -39 20.5 -60.5t59.5 -21.5q48 0 78 31t30 80q0 39 -23.5 62.5t-62.5 23.5zM639 1466h356l-143 -725h-344l27 99q-48 -64 -106 -94.5t-128 -30.5q-124 0 -204.5 90t-80.5 231q0 83 28 162.5t79 142.5q59 73 130.5 110.5t152.5 37.5
q73 0 127.5 -32t91.5 -97z" />
    <glyph glyph-name="guillemotleft" unicode="&#xab;" horiz-adv-x="1139" 
d="M1087 813l-256 -287l201 -315l-231 -160l-295 486l383 438zM596 813l-256 -287l199 -315l-230 -160l-297 486l385 438z" />
    <glyph glyph-name="logicalnot" unicode="&#xac;" horiz-adv-x="1706" 
d="M1452 868v-501h-272v235h-926v266h1198z" />
    <glyph glyph-name="sfthyphen" unicode="&#xad;" horiz-adv-x="901" 
d="M-10 309l80 410h764l-78 -410h-766z" />
    <glyph glyph-name="registered" unicode="&#xae;" horiz-adv-x="1706" 
d="M823 1006h-39v-193h54q58 0 88 25t30 73q0 49 -32 72t-101 23zM862 1165q174 0 265.5 -61t91.5 -178q0 -78 -43 -135t-121 -84l178 -355h-279l-145 312h-25v-312h-256v813h334zM1452 743q0 120 -45 229t-129 193q-87 87 -194.5 131.5t-229.5 44.5q-123 0 -230 -43.5
t-190 -128.5q-86 -87 -132 -197t-46 -229t45.5 -227.5t130.5 -193.5q86 -86 194 -131.5t228 -45.5q119 0 228.5 46t197.5 133q85 83 128.5 189.5t43.5 229.5zM852 1493q155 0 292.5 -56t244.5 -163q104 -105 160.5 -243t56.5 -290q0 -154 -55.5 -288.5t-161.5 -237.5
q-111 -108 -250 -166.5t-287 -58.5q-149 0 -284 57t-244 166q-108 107 -165 243t-57 285q0 151 57.5 289t166.5 248q103 105 238 160t288 55z" />
    <glyph glyph-name="macron" unicode="&#xaf;" 
d="M309 1278l33 182h612l-32 -182h-613z" />
    <glyph glyph-name="degree" unicode="&#xb0;" horiz-adv-x="674" 
d="M489 1151q0 62 -45 107t-108 45q-62 0 -106 -44.5t-44 -107.5q0 -64 44 -109t108 -45q62 0 106.5 46t44.5 108zM338 1473q134 0 227.5 -94.5t93.5 -229.5q0 -132 -94.5 -227t-228.5 -95t-228 93.5t-94 228.5q0 134 95.5 229t228.5 95z" />
    <glyph glyph-name="plusminus" unicode="&#xb1;" horiz-adv-x="1706" 
d="M1452 231v-272h-1198v272h1198zM993 1262v-310h459v-272h-459v-309h-280v309h-459v272h459v310h280z" />
    <glyph glyph-name="twosuperior" unicode="&#xb2;" horiz-adv-x="926" 
d="M-14 575l34 175q248 139 377 239t129 152q0 26 -16 40.5t-45 14.5q-34 0 -55.5 -21.5t-27.5 -60.5h-298q26 173 133.5 260.5t292.5 87.5q167 0 270 -74.5t103 -193.5q0 -108 -91 -202.5t-272 -174.5h309l-51 -242h-792z" />
    <glyph glyph-name="threesuperior" unicode="&#xb3;" horiz-adv-x="926" 
d="M340 856q6 -36 30 -54t66 -18q38 0 62 19.5t24 50.5q0 34 -23.5 52t-70.5 18l-11 -1t-22 -1l39 190q13 -2 22.5 -3t16.5 -1q45 0 70.5 19t25.5 53q0 26 -18.5 41.5t-50.5 15.5q-36 0 -59 -19.5t-29 -54.5h-318q32 148 148 223.5t309 75.5q145 0 239.5 -67.5t94.5 -169.5
q0 -79 -50 -130t-153 -79q83 -16 126.5 -62t43.5 -118q0 -125 -114.5 -204t-299.5 -79t-295.5 81t-119.5 222h317z" />
    <glyph glyph-name="acute" unicode="&#xb4;" 
d="M401 1178l222 352h317l-371 -352h-168z" />
    <glyph glyph-name="mu" unicode="&#xb5;" horiz-adv-x="1372" 
d="M602 1087l-84 -614q-2 -22 -3 -33.5t-1 -19.5q0 -68 31.5 -100.5t95.5 -32.5q79 0 124 52t60 161l84 587h418l-158 -1087h-368l18 131q-36 -68 -82.5 -101.5t-105.5 -33.5q-61 0 -105.5 31.5t-70.5 93.5l-72 -543h-412l209 1509h422z" />
    <glyph glyph-name="paragraph" unicode="&#xb6;" 
d="M1014 1337h-101v-1337h-202v1337h-140v-1337h-202v784q-163 8 -261 103t-98 243q0 157 106.5 253t282.5 96h615v-142z" />
    <glyph glyph-name="glyph122" unicode="&#xb7;" horiz-adv-x="702" 
d="M332 446q-111 0 -187.5 71.5t-76.5 172.5q0 126 90 213.5t219 87.5q113 0 188.5 -72t75.5 -180q0 -117 -92 -205t-217 -88z" />
    <glyph glyph-name="cedilla" unicode="&#xb8;" 
d="M43 -438l53 135q64 -25 120.5 -38t102.5 -13q44 0 69.5 19t25.5 52q0 35 -38.5 50.5t-129.5 15.5h-23l74 217h119l-33 -92q117 -2 175 -45.5t58 -128.5q0 -111 -72.5 -171.5t-205.5 -60.5q-53 0 -126 15t-169 45z" />
    <glyph glyph-name="onesuperior" unicode="&#xb9;" horiz-adv-x="926" 
d="M221 575l127 623h-115l52 248h446l-178 -871h-332z" />
    <glyph glyph-name="ordmasculine" unicode="&#xba;" horiz-adv-x="946" 
d="M457 1198q-45 0 -76 -34t-31 -83q0 -36 22.5 -58t59.5 -22q47 0 77 33t30 84q0 38 -21.5 59t-60.5 21zM10 1051q0 89 32.5 166t94.5 137q69 65 156.5 99t187.5 34q180 0 288 -94t108 -252q0 -73 -27 -141t-78 -128q-68 -76 -165 -116.5t-210 -40.5q-169 0 -278 94.5
t-109 241.5z" />
    <glyph glyph-name="guillemotright" unicode="&#xbb;" horiz-adv-x="1139" 
d="M463 213l256 287l-201 317l232 158l294 -483l-382 -439zM-31 213l256 287l-200 317l231 158l297 -483l-385 -439z" />
    <glyph glyph-name="onequarter" unicode="&#xbc;" horiz-adv-x="2109" 
d="M1618 0l31 152h-441l35 167l430 496h420l-94 -457h86l-43 -206h-86l-31 -152h-307zM1692 358l35 163q2 9 10 44t14 56h-6q-13 -33 -26.5 -56t-28.5 -41l-68 -88q-19 -24 -37.5 -43t-38.5 -35h146zM543 -39l803 1518h221l-803 -1518h-221zM211 633l121 581h-109l47 230
h426l-170 -811h-315z" />
    <glyph glyph-name="onehalf" unicode="&#xbd;" horiz-adv-x="2109" 
d="M1212 0l33 164q237 129 361.5 222.5t124.5 141.5q0 24 -16.5 38t-43.5 14q-32 0 -53.5 -21t-24.5 -55h-286q24 160 127 241.5t280 81.5q159 0 256.5 -69t97.5 -180q0 -102 -85.5 -189.5t-258.5 -163.5h293l-47 -225h-758zM543 -39l803 1518h221l-803 -1518h-221zM211 633
l121 581h-109l47 230h426l-170 -811h-315z" />
    <glyph glyph-name="threequarters" unicode="&#xbe;" horiz-adv-x="2109" 
d="M1618 0l31 152h-441l35 167l430 496h420l-94 -457h86l-43 -206h-86l-31 -152h-307zM1692 358l35 163q2 9 10 44t14 56h-6q-13 -33 -26.5 -56t-28.5 -41l-68 -88q-19 -24 -37.5 -43t-38.5 -35h146zM543 -39l803 1518h221l-803 -1518h-221zM325 895q6 -35 28 -51.5
t63 -16.5q36 0 60 19t24 47q0 31 -23 47t-67 16h-31l35 179q2 -1 5 -1q22 -3 34 -4q42 0 66 18.5t24 49.5q0 24 -18 37.5t-50 13.5t-54 -17.5t-28 -49.5h-303q31 136 141.5 207t292.5 71q139 0 229.5 -62.5t90.5 -158.5q0 -73 -48 -121.5t-145 -73.5q78 -13 120 -57t42 -113
q0 -116 -109.5 -190t-285.5 -74t-282 76.5t-115 208.5h304z" />
    <glyph glyph-name="questiondown" unicode="&#xbf;" horiz-adv-x="1309" 
d="M1008 907l-72 -348q-4 0 -12 1q-69 3 -101 3q-145 0 -215.5 -37t-70.5 -114q0 -40 24 -62t68 -22q46 0 76.5 32t33.5 84h484q-24 -222 -195 -353.5t-438 -131.5q-263 0 -419.5 126t-156.5 337q0 141 68 248t199 170q76 36 182 51.5t371 15.5h174zM846 1554
q111 0 188.5 -71.5t77.5 -171.5q0 -126 -90 -213.5t-219 -87.5q-114 0 -189 72t-75 180q0 118 91 205t216 87z" />
    <glyph glyph-name="Agrave" unicode="&#xc0;" horiz-adv-x="1464" 
d="M653 541h187l-6 157q-1 13 -2 37q-5 98 -5 158q0 40 0.5 61.5t1.5 40.5q-18 -59 -37 -113.5t-36 -97.5zM-143 0l764 1464h579l191 -1464h-521l-10 195h-352l-80 -195h-571zM637 1962h274l154 -352h-154z" />
    <glyph glyph-name="Aacute" unicode="&#xc1;" horiz-adv-x="1464" 
d="M653 541h187l-6 157q-1 13 -2 37q-5 98 -5 158q0 40 0.5 61.5t1.5 40.5q-18 -59 -37 -113.5t-36 -97.5zM-143 0l764 1464h579l191 -1464h-521l-10 195h-352l-80 -195h-571zM712 1610l222 352h317l-371 -352h-168z" />
    <glyph glyph-name="Acircumflex" unicode="&#xc2;" horiz-adv-x="1464" 
d="M653 541h187l-6 157q-1 13 -2 37q-5 98 -5 158q0 40 0.5 61.5t1.5 40.5q-18 -59 -37 -113.5t-36 -97.5zM-143 0l764 1464h579l191 -1464h-521l-10 195h-352l-80 -195h-571zM1212 1610h-151l-121 168l-207 -168h-162l248 352h274z" />
    <glyph glyph-name="Atilde" unicode="&#xc3;" horiz-adv-x="1464" 
d="M653 541h187l-6 157q-1 13 -2 37q-5 98 -5 158q0 40 0.5 61.5t1.5 40.5q-18 -59 -37 -113.5t-36 -97.5zM-143 0l764 1464h579l191 -1464h-521l-10 195h-352l-80 -195h-571zM1276 1948q-35 -133 -91.5 -194.5t-144.5 -61.5q-23 0 -45 3.5t-43 10.5l-63 20
q-26 8 -39.5 10.5t-24.5 2.5q-38 0 -64 -25t-36 -72h-119q31 132 89.5 197.5t145.5 65.5q20 0 43.5 -4.5t49.5 -12.5l63 -20q17 -6 32.5 -9.5t22.5 -3.5q40 0 63.5 21.5t39.5 71.5h121z" />
    <glyph glyph-name="Adieresis" unicode="&#xc4;" horiz-adv-x="1464" 
d="M653 541h187l-6 157q-1 13 -2 37q-5 98 -5 158q0 40 0.5 61.5t1.5 40.5q-18 -59 -37 -113.5t-36 -97.5zM-143 0l764 1464h579l191 -1464h-521l-10 195h-352l-80 -195h-571zM979 1796q0 58 43.5 101.5t101.5 43.5q60 0 104 -42.5t44 -102.5q0 -64 -42 -105.5t-106 -41.5
q-61 0 -103 42.5t-42 104.5zM606 1796q0 59 44 102t103 43q62 0 105 -42t43 -103q0 -65 -41.5 -106t-106.5 -41q-62 0 -104.5 42.5t-42.5 104.5z" />
    <glyph glyph-name="Aring" unicode="&#xc5;" horiz-adv-x="1464" 
d="M801 1704q0 -46 32 -78.5t78 -32.5t78.5 32.5t32.5 78.5t-32.5 78.5t-78.5 32.5t-78 -32.5t-32 -78.5zM653 541h187l-6 157q-1 13 -2 37q-5 98 -5 158q0 40 0.5 61.5t1.5 40.5q-18 -59 -37 -113.5t-36 -97.5zM-143 0l768 1464l174 -4v4q-71 30 -113.5 96t-42.5 144
q0 113 77.5 190.5t188.5 77.5q112 0 191.5 -78.5t79.5 -189.5q0 -84 -39.5 -144t-116.5 -96v-4l168 4l199 -1464h-521l-10 195h-352l-80 -195h-571z" />
    <glyph glyph-name="AE" unicode="&#xc6;" horiz-adv-x="1743" 
d="M588 543h192l-18 467q-15 -57 -37 -122.5t-53 -142.5zM-160 0l723 1464h985l45 -393h-434l21 -149h399l43 -365h-399l20 -164h445l47 -393h-924l-14 201h-344l-80 -201h-533z" />
    <glyph glyph-name="Ccedilla" unicode="&#xc7;" horiz-adv-x="1309" 
d="M1141 539l-99 -529q-68 -25 -134.5 -37t-133.5 -12q-136 0 -256.5 43.5t-216.5 126.5q-106 92 -164.5 227.5t-58.5 288.5q0 164 50.5 306.5t150.5 258.5q118 139 286 213t365 74q103 0 195.5 -21t177.5 -63l-91 -489q-76 43 -147.5 64.5t-142.5 21.5q-139 0 -227.5 -87.5
t-88.5 -224.5q0 -115 69.5 -183t186.5 -68q64 0 137.5 23.5t141.5 66.5zM389 -438l53 135q64 -25 120.5 -38t102.5 -13q44 0 69.5 19t25.5 52q0 35 -38.5 50.5t-129.5 15.5h-23l74 217h119l-33 -92q117 -2 175 -45.5t58 -128.5q0 -111 -72.5 -171.5t-205.5 -60.5
q-53 0 -126 15t-169 45z" />
    <glyph glyph-name="Egrave" unicode="&#xc8;" horiz-adv-x="1266" 
d="M0 0l270 1464h1004l-72 -397h-477l-27 -141h449l-68 -371h-448l-29 -158h520l-73 -397h-1049zM543 1962h274l154 -352h-154z" />
    <glyph glyph-name="Eacute" unicode="&#xc9;" horiz-adv-x="1266" 
d="M0 0l270 1464h1004l-72 -397h-477l-27 -141h449l-68 -371h-448l-29 -158h520l-73 -397h-1049zM618 1610l222 352h317l-371 -352h-168z" />
    <glyph glyph-name="Ecircumflex" unicode="&#xca;" horiz-adv-x="1266" 
d="M0 0l270 1464h1004l-72 -397h-477l-27 -141h449l-68 -371h-448l-29 -158h520l-73 -397h-1049zM1118 1610h-151l-121 168l-207 -168h-162l248 352h274z" />
    <glyph glyph-name="Edieresis" unicode="&#xcb;" horiz-adv-x="1266" 
d="M0 0l270 1464h1004l-72 -397h-477l-27 -141h449l-68 -371h-448l-29 -158h520l-73 -397h-1049zM885 1796q0 58 43.5 101.5t101.5 43.5q60 0 104 -42.5t44 -102.5q0 -64 -42 -105.5t-106 -41.5q-61 0 -103 42.5t-42 104.5zM512 1796q0 59 44 102t103 43q62 0 105 -42
t43 -103q0 -65 -41.5 -106t-106.5 -41q-62 0 -104.5 42.5t-42.5 104.5z" />
    <glyph glyph-name="Igrave" unicode="&#xcc;" horiz-adv-x="829" 
d="M10 0l271 1464h538l-270 -1464h-539zM303 1962h274l154 -352h-154z" />
    <glyph glyph-name="Iacute" unicode="&#xcd;" horiz-adv-x="829" 
d="M10 0l271 1464h538l-270 -1464h-539zM378 1610l222 352h317l-371 -352h-168z" />
    <glyph glyph-name="Icircumflex" unicode="&#xce;" horiz-adv-x="829" 
d="M10 0l271 1464h538l-270 -1464h-539zM878 1610h-151l-121 168l-207 -168h-162l248 352h274z" />
    <glyph glyph-name="Idieresis" unicode="&#xcf;" horiz-adv-x="829" 
d="M10 0l271 1464h538l-270 -1464h-539zM645 1796q0 58 43.5 101.5t101.5 43.5q60 0 104 -42.5t44 -102.5q0 -64 -42 -105.5t-106 -41.5q-61 0 -103 42.5t-42 104.5zM272 1796q0 59 44 102t103 43q62 0 105 -42t43 -103q0 -65 -41.5 -106t-106.5 -41q-62 0 -104.5 42.5
t-42.5 104.5z" />
    <glyph glyph-name="Eth" unicode="&#xd0;" horiz-adv-x="1616" 
d="M596 406q8 0 23.5 -1.5t23.5 -1.5q200 0 307 98t107 279q0 137 -73.5 208t-215.5 71q-20 0 -30.5 -0.5t-20.5 -1.5l-33 -168h211l-53 -291h-211zM25 0l108 584h-158l60 319h155l105 561h395q184 0 308 -18t202 -55q174 -86 265 -235.5t91 -346.5q0 -185 -79.5 -346.5
t-225.5 -269.5q-136 -102 -314.5 -147.5t-451.5 -45.5h-460z" />
    <glyph glyph-name="Ntilde" unicode="&#xd1;" horiz-adv-x="1737" 
d="M0 0l270 1464h537l168 -465q4 -11 12 -34q56 -152 78 -263l141 762h531l-271 -1464h-536l-271 756q-4 -103 -45 -334l-2 -12l-75 -410h-537zM1395 1948q-35 -133 -91.5 -194.5t-144.5 -61.5q-23 0 -45 3.5t-43 10.5l-63 20q-26 8 -39.5 10.5t-24.5 2.5q-38 0 -64 -25
t-36 -72h-119q31 132 89.5 197.5t145.5 65.5q20 0 43.5 -4.5t49.5 -12.5l63 -20q17 -6 32.5 -9.5t22.5 -3.5q40 0 63.5 21.5t39.5 71.5h121z" />
    <glyph glyph-name="Ograve" unicode="&#xd2;" horiz-adv-x="1745" 
d="M895 1012q-125 0 -208 -89t-83 -221q0 -116 66.5 -184.5t177.5 -68.5q123 0 207 91t84 224q0 109 -69 178.5t-175 69.5zM815 -39q-158 0 -286 43t-228 129q-106 92 -164.5 227t-58.5 287q0 165 50.5 307t150.5 258q117 138 285.5 212.5t363.5 74.5q330 0 534.5 -190.5
t204.5 -495.5q0 -164 -51 -307.5t-150 -257.5q-120 -141 -286 -214t-365 -73zM703 1962h274l154 -352h-154z" />
    <glyph glyph-name="Oacute" unicode="&#xd3;" horiz-adv-x="1745" 
d="M895 1012q-125 0 -208 -89t-83 -221q0 -116 66.5 -184.5t177.5 -68.5q123 0 207 91t84 224q0 109 -69 178.5t-175 69.5zM815 -39q-158 0 -286 43t-228 129q-106 92 -164.5 227t-58.5 287q0 165 50.5 307t150.5 258q117 138 285.5 212.5t363.5 74.5q330 0 534.5 -190.5
t204.5 -495.5q0 -164 -51 -307.5t-150 -257.5q-120 -141 -286 -214t-365 -73zM778 1610l222 352h317l-371 -352h-168z" />
    <glyph glyph-name="Ocircumflex" unicode="&#xd4;" horiz-adv-x="1745" 
d="M895 1012q-125 0 -208 -89t-83 -221q0 -116 66.5 -184.5t177.5 -68.5q123 0 207 91t84 224q0 109 -69 178.5t-175 69.5zM815 -39q-158 0 -286 43t-228 129q-106 92 -164.5 227t-58.5 287q0 165 50.5 307t150.5 258q117 138 285.5 212.5t363.5 74.5q330 0 534.5 -190.5
t204.5 -495.5q0 -164 -51 -307.5t-150 -257.5q-120 -141 -286 -214t-365 -73zM1278 1610h-151l-121 168l-207 -168h-162l248 352h274z" />
    <glyph glyph-name="Otilde" unicode="&#xd5;" horiz-adv-x="1745" 
d="M895 1012q-125 0 -208 -89t-83 -221q0 -116 66.5 -184.5t177.5 -68.5q123 0 207 91t84 224q0 109 -69 178.5t-175 69.5zM815 -39q-158 0 -286 43t-228 129q-106 92 -164.5 227t-58.5 287q0 165 50.5 307t150.5 258q117 138 285.5 212.5t363.5 74.5q330 0 534.5 -190.5
t204.5 -495.5q0 -164 -51 -307.5t-150 -257.5q-120 -141 -286 -214t-365 -73zM1342 1948q-35 -133 -91.5 -194.5t-144.5 -61.5q-23 0 -45 3.5t-43 10.5l-63 20q-26 8 -39.5 10.5t-24.5 2.5q-38 0 -64 -25t-36 -72h-119q31 132 89.5 197.5t145.5 65.5q20 0 43.5 -4.5
t49.5 -12.5l63 -20q17 -6 32.5 -9.5t22.5 -3.5q40 0 63.5 21.5t39.5 71.5h121z" />
    <glyph glyph-name="Odieresis" unicode="&#xd6;" horiz-adv-x="1745" 
d="M895 1012q-125 0 -208 -89t-83 -221q0 -116 66.5 -184.5t177.5 -68.5q123 0 207 91t84 224q0 109 -69 178.5t-175 69.5zM815 -39q-158 0 -286 43t-228 129q-106 92 -164.5 227t-58.5 287q0 165 50.5 307t150.5 258q117 138 285.5 212.5t363.5 74.5q330 0 534.5 -190.5
t204.5 -495.5q0 -164 -51 -307.5t-150 -257.5q-120 -141 -286 -214t-365 -73zM1045 1796q0 58 43.5 101.5t101.5 43.5q60 0 104 -42.5t44 -102.5q0 -64 -42 -105.5t-106 -41.5q-61 0 -103 42.5t-42 104.5zM672 1796q0 59 44 102t103 43q62 0 105 -42t43 -103
q0 -65 -41.5 -106t-106.5 -41q-62 0 -104.5 42.5t-42.5 104.5z" />
    <glyph glyph-name="multiply" unicode="&#xd7;" horiz-adv-x="1706" 
d="M874 805l426 426l195 -195l-426 -426l426 -426l-195 -194l-426 426l-425 -426l-195 194l426 426l-426 426l195 195z" />
    <glyph glyph-name="Oslash" unicode="&#xd8;" horiz-adv-x="1745" 
d="M711 438q30 -14 64.5 -21t72.5 -7q138 0 233 105.5t95 258.5q0 39 -8 72t-25 63zM1036 1016q-35 18 -68.5 27.5t-64.5 9.5q-143 0 -239.5 -103t-96.5 -252q0 -36 9 -73.5t28 -77.5zM244 -68l-117 95l131 143q-89 103 -134.5 223t-45.5 252q0 165 50.5 309.5t150.5 262.5
q117 138 285.5 212t367.5 74q128 0 236.5 -30t201.5 -91l115 121l110 -98l-106 -119q88 -101 133 -220t45 -253q0 -165 -50.5 -309t-150.5 -260q-119 -141 -285 -214t-368 -73q-131 0 -239 29t-197 88z" />
    <glyph glyph-name="Ugrave" unicode="&#xd9;" horiz-adv-x="1563" 
d="M254 1464h537l-132 -710q-20 -108 -25 -144.5t-5 -56.5q0 -57 28.5 -88t81.5 -31q66 0 100 48.5t70 244.5l135 737h535l-149 -815q-31 -159 -67.5 -260t-86.5 -168q-93 -125 -235.5 -192.5t-313.5 -67.5q-297 0 -465 142.5t-168 392.5q0 51 10 127.5t35 214.5zM670 1962
h274l154 -352h-154z" />
    <glyph glyph-name="Uacute" unicode="&#xda;" horiz-adv-x="1563" 
d="M254 1464h537l-132 -710q-20 -108 -25 -144.5t-5 -56.5q0 -57 28.5 -88t81.5 -31q66 0 100 48.5t70 244.5l135 737h535l-149 -815q-31 -159 -67.5 -260t-86.5 -168q-93 -125 -235.5 -192.5t-313.5 -67.5q-297 0 -465 142.5t-168 392.5q0 51 10 127.5t35 214.5zM745 1610
l222 352h317l-371 -352h-168z" />
    <glyph glyph-name="Ucircumflex" unicode="&#xdb;" horiz-adv-x="1563" 
d="M254 1464h537l-132 -710q-20 -108 -25 -144.5t-5 -56.5q0 -57 28.5 -88t81.5 -31q66 0 100 48.5t70 244.5l135 737h535l-149 -815q-31 -159 -67.5 -260t-86.5 -168q-93 -125 -235.5 -192.5t-313.5 -67.5q-297 0 -465 142.5t-168 392.5q0 51 10 127.5t35 214.5zM1245 1610
h-151l-121 168l-207 -168h-162l248 352h274z" />
    <glyph glyph-name="Udieresis" unicode="&#xdc;" horiz-adv-x="1563" 
d="M254 1464h537l-132 -710q-20 -108 -25 -144.5t-5 -56.5q0 -57 28.5 -88t81.5 -31q66 0 100 48.5t70 244.5l135 737h535l-149 -815q-31 -159 -67.5 -260t-86.5 -168q-93 -125 -235.5 -192.5t-313.5 -67.5q-297 0 -465 142.5t-168 392.5q0 51 10 127.5t35 214.5zM1012 1796
q0 58 43.5 101.5t101.5 43.5q60 0 104 -42.5t44 -102.5q0 -64 -42 -105.5t-106 -41.5q-61 0 -103 42.5t-42 104.5zM639 1796q0 59 44 102t103 43q62 0 105 -42t43 -103q0 -65 -41.5 -106t-106.5 -41q-62 0 -104.5 42.5t-42.5 104.5z" />
    <glyph glyph-name="Yacute" unicode="&#xdd;" horiz-adv-x="1311" 
d="M233 0l113 608l-360 856h577l64 -192q20 -62 32 -111.5t19 -95.5q21 73 91 183q6 9 9 13l129 203h635l-661 -864l-111 -600h-537zM618 1610l222 352h317l-371 -352h-168z" />
    <glyph glyph-name="Thorn" unicode="&#xde;" horiz-adv-x="1522" 
d="M643 608h41q116 0 170.5 34.5t54.5 107.5q0 56 -47.5 82t-148.5 26h-17h-8zM0 0l270 1464h533l-41 -223h26q323 0 486.5 -118.5t163.5 -352.5q0 -259 -170.5 -402t-481.5 -143h-6h-209l-39 -225h-532z" />
    <glyph glyph-name="germandbls" unicode="&#xdf;" horiz-adv-x="1411" 
d="M473 0h-479l199 1071q47 258 198.5 379t425.5 121q223 0 359.5 -109.5t136.5 -283.5q0 -126 -73 -207t-210 -109q127 -28 195.5 -115.5t68.5 -222.5q0 -105 -35.5 -201t-103.5 -173q-72 -82 -177.5 -120t-256.5 -38q-27 0 -111 5q-39 2 -61 3l55 293q2 0 5 -1
q19 -3 30 -3q80 0 131 84t51 219q0 74 -31 106t-105 35l54 291q24 -4 45 -6t35 -2q41 0 63.5 24.5t22.5 69.5q0 42 -26.5 67t-71.5 25q-61 0 -93 -48.5t-65 -223.5z" />
    <glyph glyph-name="agrave" unicode="&#xe0;" horiz-adv-x="1374" 
d="M643 647q-59 0 -97 -46.5t-38 -119.5q0 -56 27.5 -86t78.5 -30q64 0 104 44.5t40 114.5q0 57 -31.5 90t-83.5 33zM852 1034h475l-192 -1034h-459l37 139q-65 -89 -141.5 -132.5t-170.5 -43.5q-166 0 -273.5 128t-107.5 331q0 117 37.5 230.5t106.5 205.5
q77 103 172.5 156t204.5 53q98 0 170 -45t123 -137zM527 1530h274l154 -352h-154z" />
    <glyph glyph-name="aacute" unicode="&#xe1;" horiz-adv-x="1374" 
d="M643 647q-59 0 -97 -46.5t-38 -119.5q0 -56 27.5 -86t78.5 -30q64 0 104 44.5t40 114.5q0 57 -31.5 90t-83.5 33zM852 1034h475l-192 -1034h-459l37 139q-65 -89 -141.5 -132.5t-170.5 -43.5q-166 0 -273.5 128t-107.5 331q0 117 37.5 230.5t106.5 205.5
q77 103 172.5 156t204.5 53q98 0 170 -45t123 -137zM602 1178l222 352h317l-371 -352h-168z" />
    <glyph glyph-name="acircumflex" unicode="&#xe2;" horiz-adv-x="1374" 
d="M643 647q-59 0 -97 -46.5t-38 -119.5q0 -56 27.5 -86t78.5 -30q64 0 104 44.5t40 114.5q0 57 -31.5 90t-83.5 33zM852 1034h475l-192 -1034h-459l37 139q-65 -89 -141.5 -132.5t-170.5 -43.5q-166 0 -273.5 128t-107.5 331q0 117 37.5 230.5t106.5 205.5
q77 103 172.5 156t204.5 53q98 0 170 -45t123 -137zM1102 1178h-151l-121 168l-207 -168h-162l248 352h274z" />
    <glyph glyph-name="atilde" unicode="&#xe3;" horiz-adv-x="1374" 
d="M643 647q-59 0 -97 -46.5t-38 -119.5q0 -56 27.5 -86t78.5 -30q64 0 104 44.5t40 114.5q0 57 -31.5 90t-83.5 33zM852 1034h475l-192 -1034h-459l37 139q-65 -89 -141.5 -132.5t-170.5 -43.5q-166 0 -273.5 128t-107.5 331q0 117 37.5 230.5t106.5 205.5
q77 103 172.5 156t204.5 53q98 0 170 -45t123 -137zM1166 1516q-35 -133 -91.5 -194.5t-144.5 -61.5q-23 0 -45 3.5t-43 10.5l-63 20q-26 8 -39.5 10.5t-24.5 2.5q-38 0 -64 -25t-36 -72h-119q31 132 89.5 197.5t145.5 65.5q20 0 43.5 -4.5t49.5 -12.5l63 -20
q17 -6 32.5 -9.5t22.5 -3.5q40 0 63.5 21.5t39.5 71.5h121z" />
    <glyph glyph-name="adieresis" unicode="&#xe4;" horiz-adv-x="1374" 
d="M643 647q-59 0 -97 -46.5t-38 -119.5q0 -56 27.5 -86t78.5 -30q64 0 104 44.5t40 114.5q0 57 -31.5 90t-83.5 33zM852 1034h475l-192 -1034h-459l37 139q-65 -89 -141.5 -132.5t-170.5 -43.5q-166 0 -273.5 128t-107.5 331q0 117 37.5 230.5t106.5 205.5
q77 103 172.5 156t204.5 53q98 0 170 -45t123 -137zM869 1364q0 58 43.5 101.5t101.5 43.5q60 0 104 -42.5t44 -102.5q0 -64 -42 -105.5t-106 -41.5q-61 0 -103 42.5t-42 104.5zM496 1364q0 59 44 102t103 43q62 0 105 -42t43 -103q0 -65 -41.5 -106t-106.5 -41
q-62 0 -104.5 42.5t-42.5 104.5z" />
    <glyph glyph-name="aring" unicode="&#xe5;" horiz-adv-x="1376" 
d="M680 1378q0 -47 34 -80.5t81 -33.5t80.5 33.5t33.5 80.5q0 48 -34 82.5t-80 34.5q-47 0 -81 -34.5t-34 -82.5zM524 1376q0 114 78 192.5t191 78.5q112 0 191 -79t79 -192q0 -112 -79 -190t-191 -78q-113 0 -191 78t-78 190zM643 647q-59 0 -97 -46.5t-38 -119.5
q0 -56 27.5 -86t78.5 -30q64 0 104 44.5t40 114.5q0 57 -31.5 90t-83.5 33zM852 1034h475l-192 -1034h-459l37 139q-65 -89 -141.5 -132.5t-170.5 -43.5q-166 0 -273.5 128t-107.5 331q0 117 37.5 230.5t106.5 205.5q77 103 172.5 156t204.5 53q98 0 170 -45t123 -137z" />
    <glyph glyph-name="ae" unicode="&#xe6;" horiz-adv-x="1989" 
d="M1241 649h246v15q0 49 -26 77.5t-70 28.5q-56 0 -92.5 -29t-57.5 -92zM1024 922q90 75 181 111t192 36q220 0 366 -133.5t146 -331.5q0 -42 -2 -78t-6 -69h-689q0 -77 34 -120.5t93 -43.5q42 0 75 20.5t71 71.5l366 -78q-90 -171 -232 -257.5t-335 -86.5
q-113 0 -206.5 35.5t-172.5 107.5q-117 -70 -224 -102.5t-222 -32.5q-227 0 -352 91.5t-125 256.5q0 167 133 270t352 103q78 0 155.5 -16.5t157.5 -50.5q1 4 1.5 11.5t0.5 20.5q0 80 -74.5 125t-205.5 45q-93 0 -185 -22t-190 -68l45 267q115 32 216 48.5t187 16.5
q154 0 266 -37t183 -110zM580 252q64 0 103.5 24.5t39.5 63.5q0 45 -41 71.5t-111 26.5q-64 0 -102.5 -24t-38.5 -64q0 -45 40.5 -71.5t109.5 -26.5z" />
    <glyph glyph-name="ccedilla" unicode="&#xe7;" horiz-adv-x="967" 
d="M741 0q-64 -20 -118.5 -29.5t-102.5 -9.5q-221 0 -361.5 135t-140.5 348q0 126 44 238.5t126 196.5q90 92 207 140t254 48q74 0 142 -15t133 -44l-70 -385q-48 31 -87.5 46t-76.5 15q-81 0 -131.5 -51t-50.5 -133q0 -71 44 -113.5t118 -42.5q31 0 65 9.5t72 29.5z
M131 -438l53 135q64 -25 120.5 -38t102.5 -13q44 0 69.5 19t25.5 52q0 35 -38.5 50.5t-129.5 15.5h-23l74 217h119l-33 -92q117 -2 175 -45.5t58 -128.5q0 -111 -72.5 -171.5t-205.5 -60.5q-53 0 -126 15t-169 45z" />
    <glyph glyph-name="egrave" unicode="&#xe8;" horiz-adv-x="1235" 
d="M485 649h248v15q0 49 -26.5 77.5t-71.5 28.5q-56 0 -92 -29t-58 -92zM1145 457h-686q0 -78 33 -121t92 -43q42 0 74.5 20.5t70.5 71.5l367 -78q-91 -172 -234 -259t-336 -87q-226 0 -370 135.5t-144 347.5q0 125 43 236t123 194q90 93 208.5 143t250.5 50q226 0 371 -131
t145 -332q0 -38 -2 -74t-6 -73zM406 1530h274l154 -352h-154z" />
    <glyph glyph-name="eacute" unicode="&#xe9;" horiz-adv-x="1235" 
d="M485 649h248v15q0 49 -26.5 77.5t-71.5 28.5q-56 0 -92 -29t-58 -92zM1145 457h-686q0 -78 33 -121t92 -43q42 0 74.5 20.5t70.5 71.5l367 -78q-91 -172 -234 -259t-336 -87q-226 0 -370 135.5t-144 347.5q0 125 43 236t123 194q90 93 208.5 143t250.5 50q226 0 371 -131
t145 -332q0 -38 -2 -74t-6 -73zM481 1178l222 352h317l-371 -352h-168z" />
    <glyph glyph-name="ecircumflex" unicode="&#xea;" horiz-adv-x="1235" 
d="M485 649h248v15q0 49 -26.5 77.5t-71.5 28.5q-56 0 -92 -29t-58 -92zM1145 457h-686q0 -78 33 -121t92 -43q42 0 74.5 20.5t70.5 71.5l367 -78q-91 -172 -234 -259t-336 -87q-226 0 -370 135.5t-144 347.5q0 125 43 236t123 194q90 93 208.5 143t250.5 50q226 0 371 -131
t145 -332q0 -38 -2 -74t-6 -73zM981 1178h-151l-121 168l-207 -168h-162l248 352h274z" />
    <glyph glyph-name="edieresis" unicode="&#xeb;" horiz-adv-x="1235" 
d="M485 649h248v15q0 49 -26.5 77.5t-71.5 28.5q-56 0 -92 -29t-58 -92zM1145 457h-686q0 -78 33 -121t92 -43q42 0 74.5 20.5t70.5 71.5l367 -78q-91 -172 -234 -259t-336 -87q-226 0 -370 135.5t-144 347.5q0 125 43 236t123 194q90 93 208.5 143t250.5 50q226 0 371 -131
t145 -332q0 -38 -2 -74t-6 -73zM748 1364q0 58 43.5 101.5t101.5 43.5q60 0 104 -42.5t44 -102.5q0 -64 -42 -105.5t-106 -41.5q-61 0 -103 42.5t-42 104.5zM375 1364q0 59 44 102t103 43q62 0 105 -42t43 -103q0 -65 -41.5 -106t-106.5 -41q-62 0 -104.5 42.5t-42.5 104.5z
" />
    <glyph glyph-name="igrave" unicode="&#xec;" horiz-adv-x="725" 
d="M-16 0l190 1034h488l-191 -1034h-487zM183 1530h274l154 -352h-154z" />
    <glyph glyph-name="iacute" unicode="&#xed;" horiz-adv-x="725" 
d="M-16 0l190 1034h488l-191 -1034h-487zM258 1178l222 352h317l-371 -352h-168z" />
    <glyph glyph-name="icircumflex" unicode="&#xee;" horiz-adv-x="725" 
d="M-16 0l190 1034h488l-191 -1034h-487zM758 1178h-151l-121 168l-207 -168h-162l248 352h274z" />
    <glyph glyph-name="idieresis" unicode="&#xef;" horiz-adv-x="725" 
d="M-16 0l190 1034h488l-191 -1034h-487zM525 1364q0 58 43.5 101.5t101.5 43.5q60 0 104 -42.5t44 -102.5q0 -64 -42 -105.5t-106 -41.5q-61 0 -103 42.5t-42 104.5zM152 1364q0 59 44 102t103 43q62 0 105 -42t43 -103q0 -65 -41.5 -106t-106.5 -41q-62 0 -104.5 42.5
t-42.5 104.5z" />
    <glyph glyph-name="eth" unicode="&#xf0;" horiz-adv-x="1262" 
d="M201 1165l250 84q-12 14 -48 53.5t-59 65.5l260 191q60 -58 106.5 -106t88.5 -95l305 102l59 -143l-264 -90q143 -175 210 -333t67 -319q0 -269 -177 -442.5t-450 -173.5q-237 0 -387 132t-150 339q0 231 132.5 375.5t342.5 144.5q39 0 83 -7t94 -21q-23 52 -51.5 101
t-63.5 95l-303 -96zM590 614q-60 0 -100.5 -47t-40.5 -116q0 -50 29 -79.5t79 -29.5q64 0 103.5 45t39.5 117q0 51 -29.5 80.5t-80.5 29.5z" />
    <glyph glyph-name="ntilde" unicode="&#xf1;" horiz-adv-x="1352" 
d="M-33 0l193 1034h458l-30 -149q90 91 180.5 136.5t183.5 45.5q134 0 215.5 -84.5t81.5 -224.5q0 -40 -5 -89t-15 -106l-103 -563h-491l96 520q5 27 7.5 52t2.5 49q0 28 -17 45.5t-44 17.5q-54 0 -86.5 -50t-54.5 -173l-84 -461h-488zM1121 1516q-35 -133 -91.5 -194.5
t-144.5 -61.5q-23 0 -45 3.5t-43 10.5l-63 20q-26 8 -39.5 10.5t-24.5 2.5q-38 0 -64 -25t-36 -72h-119q31 132 89.5 197.5t145.5 65.5q20 0 43.5 -4.5t49.5 -12.5l63 -20q17 -6 32.5 -9.5t22.5 -3.5q40 0 63.5 21.5t39.5 71.5h121z" />
    <glyph glyph-name="ograve" unicode="&#xf2;" horiz-adv-x="1262" 
d="M608 653q-59 0 -100 -48.5t-41 -119.5q0 -52 29.5 -83t78.5 -31q63 0 102.5 46.5t39.5 121.5q0 53 -29 83.5t-80 30.5zM12 442q0 127 43.5 237.5t126.5 194.5q92 94 209 142.5t250 48.5q240 0 383 -134.5t143 -359.5q0 -105 -35.5 -203t-103.5 -180q-90 -109 -219.5 -168
t-278.5 -59q-226 0 -372 136t-146 345zM412 1530h274l154 -352h-154z" />
    <glyph glyph-name="oacute" unicode="&#xf3;" horiz-adv-x="1262" 
d="M608 653q-59 0 -100 -48.5t-41 -119.5q0 -52 29.5 -83t78.5 -31q63 0 102.5 46.5t39.5 121.5q0 53 -29 83.5t-80 30.5zM12 442q0 127 43.5 237.5t126.5 194.5q92 94 209 142.5t250 48.5q240 0 383 -134.5t143 -359.5q0 -105 -35.5 -203t-103.5 -180q-90 -109 -219.5 -168
t-278.5 -59q-226 0 -372 136t-146 345zM487 1178l222 352h317l-371 -352h-168z" />
    <glyph glyph-name="ocircumflex" unicode="&#xf4;" horiz-adv-x="1262" 
d="M608 653q-59 0 -100 -48.5t-41 -119.5q0 -52 29.5 -83t78.5 -31q63 0 102.5 46.5t39.5 121.5q0 53 -29 83.5t-80 30.5zM12 442q0 127 43.5 237.5t126.5 194.5q92 94 209 142.5t250 48.5q240 0 383 -134.5t143 -359.5q0 -105 -35.5 -203t-103.5 -180q-90 -109 -219.5 -168
t-278.5 -59q-226 0 -372 136t-146 345zM987 1178h-151l-121 168l-207 -168h-162l248 352h274z" />
    <glyph glyph-name="otilde" unicode="&#xf5;" horiz-adv-x="1262" 
d="M608 653q-59 0 -100 -48.5t-41 -119.5q0 -52 29.5 -83t78.5 -31q63 0 102.5 46.5t39.5 121.5q0 53 -29 83.5t-80 30.5zM12 442q0 127 43.5 237.5t126.5 194.5q92 94 209 142.5t250 48.5q240 0 383 -134.5t143 -359.5q0 -105 -35.5 -203t-103.5 -180q-90 -109 -219.5 -168
t-278.5 -59q-226 0 -372 136t-146 345zM1051 1516q-35 -133 -91.5 -194.5t-144.5 -61.5q-23 0 -45 3.5t-43 10.5l-63 20q-26 8 -39.5 10.5t-24.5 2.5q-38 0 -64 -25t-36 -72h-119q31 132 89.5 197.5t145.5 65.5q20 0 43.5 -4.5t49.5 -12.5l63 -20q17 -6 32.5 -9.5t22.5 -3.5
q40 0 63.5 21.5t39.5 71.5h121z" />
    <glyph glyph-name="odieresis" unicode="&#xf6;" horiz-adv-x="1262" 
d="M608 653q-59 0 -100 -48.5t-41 -119.5q0 -52 29.5 -83t78.5 -31q63 0 102.5 46.5t39.5 121.5q0 53 -29 83.5t-80 30.5zM12 442q0 127 43.5 237.5t126.5 194.5q92 94 209 142.5t250 48.5q240 0 383 -134.5t143 -359.5q0 -105 -35.5 -203t-103.5 -180q-90 -109 -219.5 -168
t-278.5 -59q-226 0 -372 136t-146 345zM754 1364q0 58 43.5 101.5t101.5 43.5q60 0 104 -42.5t44 -102.5q0 -64 -42 -105.5t-106 -41.5q-61 0 -103 42.5t-42 104.5zM381 1364q0 59 44 102t103 43q62 0 105 -42t43 -103q0 -65 -41.5 -106t-106.5 -41q-62 0 -104.5 42.5
t-42.5 104.5z" />
    <glyph glyph-name="divide" unicode="&#xf7;" horiz-adv-x="1706" 
d="M854 371q74 0 128 -54t54 -129q0 -74 -54 -128t-130 -54t-129 53t-53 129q0 77 53.5 130t130.5 53zM1452 748v-273h-1198v273h1198zM854 1217q74 0 128 -55t54 -130q0 -74 -54 -128t-130 -54t-129 53t-53 129q0 77 54 131t130 54z" />
    <glyph glyph-name="oslash" unicode="&#xf8;" horiz-adv-x="1262" 
d="M430 408l256 282q-23 9 -41 13t-33 4q-80 0 -136 -68t-56 -166q0 -13 2 -27.5t8 -37.5zM131 -90l-94 76l108 127q-68 71 -101.5 150.5t-33.5 170.5q0 129 44.5 243t125.5 195q92 94 210.5 143.5t250.5 49.5q84 0 158 -19t141 -57l107 117l98 -80l-105 -115
q65 -69 96 -152.5t31 -187.5q0 -136 -57 -256.5t-164 -208.5q-84 -69 -189.5 -106t-221.5 -37q-76 0 -147 18t-140 54zM754 616l-254 -282q20 -7 40 -10.5t38 -4.5q80 0 133 66t53 168q0 18 -2.5 33.5t-7.5 29.5z" />
    <glyph glyph-name="ugrave" unicode="&#xf9;" horiz-adv-x="1337" 
d="M145 1034h486l-80 -440q-2 -13 -7 -37q-12 -59 -12 -84q0 -41 20 -63.5t56 -22.5q49 0 74 37.5t53 185.5l78 424h473l-86 -467q-61 -333 -204 -468.5t-427 -135.5q-249 0 -388.5 116t-139.5 324q0 66 30 229q3 16 5 26zM476 1530h274l154 -352h-154z" />
    <glyph glyph-name="uacute" unicode="&#xfa;" horiz-adv-x="1337" 
d="M145 1034h486l-80 -440q-2 -13 -7 -37q-12 -59 -12 -84q0 -41 20 -63.5t56 -22.5q49 0 74 37.5t53 185.5l78 424h473l-86 -467q-61 -333 -204 -468.5t-427 -135.5q-249 0 -388.5 116t-139.5 324q0 66 30 229q3 16 5 26zM551 1178l222 352h317l-371 -352h-168z" />
    <glyph glyph-name="ucircumflex" unicode="&#xfb;" horiz-adv-x="1337" 
d="M145 1034h486l-80 -440q-2 -13 -7 -37q-12 -59 -12 -84q0 -41 20 -63.5t56 -22.5q49 0 74 37.5t53 185.5l78 424h473l-86 -467q-61 -333 -204 -468.5t-427 -135.5q-249 0 -388.5 116t-139.5 324q0 66 30 229q3 16 5 26zM1051 1178h-151l-121 168l-207 -168h-162l248 352
h274z" />
    <glyph glyph-name="udieresis" unicode="&#xfc;" horiz-adv-x="1337" 
d="M145 1034h486l-80 -440q-2 -13 -7 -37q-12 -59 -12 -84q0 -41 20 -63.5t56 -22.5q49 0 74 37.5t53 185.5l78 424h473l-86 -467q-61 -333 -204 -468.5t-427 -135.5q-249 0 -388.5 116t-139.5 324q0 66 30 229q3 16 5 26zM818 1364q0 58 43.5 101.5t101.5 43.5
q60 0 104 -42.5t44 -102.5q0 -64 -42 -105.5t-106 -41.5q-61 0 -103 42.5t-42 104.5zM445 1364q0 59 44 102t103 43q62 0 105 -42t43 -103q0 -65 -41.5 -106t-106.5 -41q-62 0 -104.5 42.5t-42.5 104.5z" />
    <glyph glyph-name="yacute" unicode="&#xfd;" horiz-adv-x="1186" 
d="M-152 -446l385 632l-233 848h467l51 -256q13 -61 19.5 -107t7.5 -87q9 42 27.5 91.5t45.5 104.5l123 254h510l-870 -1480h-533zM483 1178l222 352h317l-371 -352h-168z" />
    <glyph glyph-name="thorn" unicode="&#xfe;" horiz-adv-x="1370" 
d="M-111 -446l369 1996h481l-86 -469q-3 -22 -17 -65.5t-36 -97.5q64 76 133 112.5t148 36.5q176 0 285.5 -125.5t109.5 -327.5q0 -117 -38 -234t-105 -210q-76 -103 -171 -155t-208 -52q-93 0 -162 43t-131 139v-5q4 -32 4 -46q0 -41 -14 -103q-2 -8 -2 -11l-78 -426h-482z
M696 659q-62 0 -104.5 -45t-42.5 -112q0 -57 31 -91t82 -34q58 0 97.5 47.5t39.5 118.5q0 55 -27 85.5t-76 30.5z" />
    <glyph glyph-name="ydieresis" unicode="&#xff;" horiz-adv-x="1186" 
d="M-152 -446l385 632l-233 848h467l51 -256q13 -61 19.5 -107t7.5 -87q9 42 27.5 91.5t45.5 104.5l123 254h510l-870 -1480h-533zM750 1364q0 58 43.5 101.5t101.5 43.5q60 0 104 -42.5t44 -102.5q0 -64 -42 -105.5t-106 -41.5q-61 0 -103 42.5t-42 104.5zM377 1364
q0 59 44 102t103 43q62 0 105 -42t43 -103q0 -65 -41.5 -106t-106.5 -41q-62 0 -104.5 42.5t-42.5 104.5z" />
    <glyph glyph-name="Cacute" unicode="&#x106;" horiz-adv-x="1309" 
d="M1141 539l-99 -529q-68 -25 -134.5 -37t-133.5 -12q-136 0 -256.5 43.5t-216.5 126.5q-106 92 -164.5 227.5t-58.5 288.5q0 164 50.5 306.5t150.5 258.5q118 139 286 213t365 74q103 0 195.5 -21t177.5 -63l-91 -489q-76 43 -147.5 64.5t-142.5 21.5q-139 0 -227.5 -87.5
t-88.5 -224.5q0 -115 69.5 -183t186.5 -68q64 0 137.5 23.5t141.5 66.5zM766 1610l222 352h317l-371 -352h-168z" />
    <glyph glyph-name="cacute" unicode="&#x107;" horiz-adv-x="967" 
d="M741 0q-64 -20 -118.5 -29.5t-102.5 -9.5q-221 0 -361.5 135t-140.5 348q0 126 44 238.5t126 196.5q90 92 207 140t254 48q74 0 142 -15t133 -44l-70 -385q-48 31 -87.5 46t-76.5 15q-81 0 -131.5 -51t-50.5 -133q0 -71 44 -113.5t118 -42.5q31 0 65 9.5t72 29.5z
M454 1178l222 352h317l-371 -352h-168z" />
    <glyph glyph-name="Ccaron" unicode="&#x10c;" horiz-adv-x="1309" 
d="M1141 539l-99 -529q-68 -25 -134.5 -37t-133.5 -12q-136 0 -256.5 43.5t-216.5 126.5q-106 92 -164.5 227.5t-58.5 288.5q0 164 50.5 306.5t150.5 258.5q118 139 286 213t365 74q103 0 195.5 -21t177.5 -63l-91 -489q-76 43 -147.5 64.5t-142.5 21.5q-139 0 -227.5 -87.5
t-88.5 -224.5q0 -115 69.5 -183t186.5 -68q64 0 137.5 23.5t141.5 66.5zM703 1962h149l121 -168l209 168h162l-250 -352h-272z" />
    <glyph glyph-name="ccaron" unicode="&#x10d;" horiz-adv-x="967" 
d="M741 0q-64 -20 -118.5 -29.5t-102.5 -9.5q-221 0 -361.5 135t-140.5 348q0 126 44 238.5t126 196.5q90 92 207 140t254 48q74 0 142 -15t133 -44l-70 -385q-48 31 -87.5 46t-76.5 15q-81 0 -131.5 -51t-50.5 -133q0 -71 44 -113.5t118 -42.5q31 0 65 9.5t72 29.5z
M391 1530h149l121 -168l209 168h162l-250 -352h-272z" />
    <glyph glyph-name="dcroat" unicode="&#x111;" horiz-adv-x="1401" 
d="M610 369q59 0 100.5 46.5t41.5 112.5q0 58 -30.5 91.5t-82.5 33.5q-58 0 -97.5 -47.5t-39.5 -118.5q0 -56 28.5 -87t79.5 -31zM1413 1550l-29 -155h234l-45 -240h-234l-215 -1155h-444l33 127q-66 -85 -140.5 -125.5t-162.5 -40.5q-165 0 -275 128.5t-110 320.5
q0 256 151.5 442t362.5 186q94 0 164 -41t128 -132q3 45 7 83.5t8 61.5l26 145h-346l45 240h347l28 155h467z" />
    <glyph glyph-name="Gbreve" unicode="&#x11e;" horiz-adv-x="1640" 
d="M1436 170q-152 -105 -306.5 -157t-316.5 -52q-329 0 -532 190t-203 496q0 164 50.5 306.5t150.5 258.5q116 139 284.5 212t368.5 73q233 0 399.5 -94t263.5 -281l-475 -176q-38 53 -87.5 78t-114.5 25q-140 0 -228 -102.5t-88 -264.5q0 -135 79.5 -217t211.5 -82
q18 0 37 1.5t38 4.5l27 143h-190l61 332h697zM729 1948h137v-11q0 -62 35 -92.5t107 -30.5q77 0 127.5 32.5t83.5 101.5h143q-44 -153 -138.5 -230.5t-236.5 -77.5q-129 0 -194.5 66.5t-65.5 198.5q0 7 1 21t1 22z" />
    <glyph glyph-name="gbreve" unicode="&#x11f;" horiz-adv-x="1401" 
d="M649 659q-60 0 -98.5 -45.5t-38.5 -115.5q0 -55 27.5 -85t78.5 -30q64 0 105 43.5t41 112.5q0 54 -31.5 87t-83.5 33zM854 1034h475l-176 -936q-50 -266 -217 -403t-438 -137q-120 0 -237.5 29.5t-242.5 90.5l164 297q68 -45 131.5 -66.5t132.5 -21.5q94 0 159 55.5
t93 159.5l25 88q-66 -85 -145 -128.5t-170 -43.5q-174 0 -279.5 114t-105.5 300q0 110 37.5 221.5t105.5 202.5q76 102 171.5 154.5t205.5 52.5q98 0 170 -44.5t123 -135.5zM534 1516h137v-11q0 -62 35 -92.5t107 -30.5q77 0 127.5 32.5t83.5 101.5h143
q-44 -153 -138.5 -230.5t-236.5 -77.5q-129 0 -194.5 66.5t-65.5 198.5q0 7 1 21t1 22z" />
    <glyph glyph-name="Idotaccent" unicode="&#x130;" horiz-adv-x="829" 
d="M10 0l271 1464h538l-270 -1464h-539zM448 1771q0 60 46 106t106 46q62 0 106.5 -45t44.5 -107q0 -65 -43 -108t-108 -43q-62 0 -107 44.5t-45 106.5z" />
    <glyph glyph-name="dotlessi" unicode="&#x131;" horiz-adv-x="725" 
d="M-16 0l190 1034h488l-191 -1034h-487z" />
    <glyph glyph-name="Lslash" unicode="&#x141;" horiz-adv-x="1157" 
d="M43 0l88 473l-96 -53l-125 264l289 162l114 618h529l-64 -350l180 103l152 -256l-403 -230l-54 -291h461l-82 -440h-989z" />
    <glyph glyph-name="lslash" unicode="&#x142;" horiz-adv-x="782" 
d="M670 995l98 58l100 -228l-243 -139l-127 -686h-484l74 393q8 38 15 64.5t15 51.5l-87 -52l-101 231l236 131l137 731h481l-79 -432q-4 -22 -13.5 -54t-21.5 -69z" />
    <glyph glyph-name="OE" unicode="&#x152;" horiz-adv-x="2298" 
d="M922 1014q-136 0 -227 -90t-91 -222q0 -117 72.5 -187.5t193.5 -70.5q134 0 226 93.5t92 226.5q0 109 -75 179.5t-191 70.5zM2304 1464l-74 -397h-475l-26 -141h448l-68 -371h-448l-29 -158h518l-73 -397h-938l53 219q-92 -133 -211.5 -195.5t-282.5 -62.5
q-289 0 -457.5 175.5t-168.5 475.5q0 174 53 330t154 279q111 134 269.5 208t336.5 74q164 0 283 -64.5t194 -195.5l43 221h899z" />
    <glyph glyph-name="oe" unicode="&#x153;" horiz-adv-x="1913" 
d="M1163 647h246v19q0 48 -26 76t-70 28q-56 0 -92.5 -29.5t-57.5 -93.5zM1821 457h-686q0 -77 33.5 -120.5t93.5 -43.5q41 0 72.5 20t70.5 72l369 -78q-92 -170 -232 -257t-323 -87q-106 0 -188 28.5t-144 86.5q-96 -62 -180 -88.5t-181 -26.5q-225 0 -369.5 135.5
t-144.5 345.5q0 126 43 235.5t125 192.5q95 95 212.5 144t248.5 49q100 0 183 -26.5t149 -80.5q74 53 161.5 80t184.5 27q222 0 367 -131.5t145 -329.5q0 -33 -2.5 -68.5t-7.5 -78.5zM608 653q-59 0 -100 -48.5t-41 -119.5q0 -52 29.5 -83t78.5 -31q63 0 102.5 46.5
t39.5 121.5q0 53 -29 83.5t-80 30.5z" />
    <glyph glyph-name="Scedilla" unicode="&#x15e;" horiz-adv-x="1217" 
d="M-92 231l262 383q87 -108 186.5 -165.5t198.5 -57.5q44 0 70 16t26 42q0 40 -114 86q-25 10 -39 16q-188 78 -273.5 180.5t-85.5 247.5q0 229 167 373.5t437 144.5q156 0 287.5 -46t241.5 -138l-205 -359q-89 78 -161.5 116t-133.5 38q-37 0 -59.5 -17.5t-22.5 -46.5
q0 -49 132 -105q35 -15 55 -24q171 -77 242 -172t71 -241q0 -230 -178.5 -383.5t-450.5 -153.5q-172 0 -338 67.5t-315 198.5zM139 -438l53 135q64 -25 120.5 -38t102.5 -13q44 0 69.5 19t25.5 52q0 35 -38.5 50.5t-129.5 15.5h-23l74 217h119l-33 -92q117 -2 175 -45.5
t58 -128.5q0 -111 -72.5 -171.5t-205.5 -60.5q-53 0 -126 15t-169 45z" />
    <glyph glyph-name="scedilla" unicode="&#x15f;" horiz-adv-x="985" 
d="M-72 135l183 305q75 -74 148 -114.5t130 -40.5q24 0 39.5 12t15.5 31q0 29 -71 66l-6 3l-78 41q-92 49 -136 113.5t-44 150.5q0 160 123.5 262.5t318.5 102.5q102 0 202 -30.5t205 -94.5l-165 -278q-52 49 -100 75.5t-89 26.5q-25 0 -41 -13t-16 -32q0 -24 59 -51
q17 -8 26 -12l62 -29q95 -43 140 -109.5t45 -165.5q0 -177 -128 -285t-339 -108q-112 0 -233 43.5t-251 130.5zM25 -438l53 135q64 -25 120.5 -38t102.5 -13q44 0 69.5 19t25.5 52q0 35 -38.5 50.5t-129.5 15.5h-23l74 217h119l-33 -92q117 -2 175 -45.5t58 -128.5
q0 -111 -72.5 -171.5t-205.5 -60.5q-53 0 -126 15t-169 45z" />
    <glyph glyph-name="Scaron" unicode="&#x160;" horiz-adv-x="1217" 
d="M-92 231l262 383q87 -108 186.5 -165.5t198.5 -57.5q44 0 70 16t26 42q0 40 -114 86q-25 10 -39 16q-188 78 -273.5 180.5t-85.5 247.5q0 229 167 373.5t437 144.5q156 0 287.5 -46t241.5 -138l-205 -359q-89 78 -161.5 116t-133.5 38q-37 0 -59.5 -17.5t-22.5 -46.5
q0 -49 132 -105q35 -15 55 -24q171 -77 242 -172t71 -241q0 -230 -178.5 -383.5t-450.5 -153.5q-172 0 -338 67.5t-315 198.5zM508 1962h149l121 -168l209 168h162l-250 -352h-272z" />
    <glyph glyph-name="scaron" unicode="&#x161;" horiz-adv-x="985" 
d="M-72 135l183 305q75 -74 148 -114.5t130 -40.5q24 0 39.5 12t15.5 31q0 29 -71 66l-6 3l-78 41q-92 49 -136 113.5t-44 150.5q0 160 123.5 262.5t318.5 102.5q102 0 202 -30.5t205 -94.5l-165 -278q-52 49 -100 75.5t-89 26.5q-25 0 -41 -13t-16 -32q0 -24 59 -51
q17 -8 26 -12l62 -29q95 -43 140 -109.5t45 -165.5q0 -177 -128 -285t-339 -108q-112 0 -233 43.5t-251 130.5zM320 1530h149l121 -168l209 168h162l-250 -352h-272z" />
    <glyph glyph-name="Ydieresis" unicode="&#x178;" horiz-adv-x="1311" 
d="M233 0l113 608l-360 856h577l64 -192q20 -62 32 -111.5t19 -95.5q21 73 91 183q6 9 9 13l129 203h635l-661 -864l-111 -600h-537zM885 1796q0 58 43.5 101.5t101.5 43.5q60 0 104 -42.5t44 -102.5q0 -64 -42 -105.5t-106 -41.5q-61 0 -103 42.5t-42 104.5zM512 1796
q0 59 44 102t103 43q62 0 105 -42t43 -103q0 -65 -41.5 -106t-106.5 -41q-62 0 -104.5 42.5t-42.5 104.5z" />
    <glyph glyph-name="Zcaron" unicode="&#x17d;" horiz-adv-x="1352" 
d="M-123 0l748 1032h-514l79 432h1346l-748 -1018h472l-82 -446h-1301zM576 1962h149l121 -168l209 168h162l-250 -352h-272z" />
    <glyph glyph-name="zcaron" unicode="&#x17e;" horiz-adv-x="1214" 
d="M-78 0l500 653h-356l69 381h1079l-6 -28l-499 -627h385l-72 -379h-1100zM434 1530h149l121 -168l209 168h162l-250 -352h-272z" />
    <glyph glyph-name="florin" unicode="&#x192;" horiz-adv-x="1403" 
d="M434 610h-190l51 285h194l37 201q21 113 47.5 172t71.5 104q59 59 149 92t191 33q78 0 145.5 -7t124.5 -22l-62 -372q-25 7 -45.5 10.5t-35.5 3.5q-46 0 -70.5 -29.5t-37.5 -101.5l-15 -84h182l-51 -285h-182l-86 -460q-33 -181 -66.5 -273.5t-83.5 -152.5
q-60 -76 -166 -116t-247 -40q-46 0 -100 5.5t-119 16.5l65 371q19 -4 37 -6t35 -2q119 0 181 377q6 36 9 55z" />
    <glyph glyph-name="circumflex" unicode="&#x2c6;" 
d="M901 1178h-151l-121 168l-207 -168h-162l248 352h274z" />
    <glyph glyph-name="caron" unicode="&#x2c7;" 
d="M338 1530h149l121 -168l209 168h162l-250 -352h-272z" />
    <glyph glyph-name="breve" unicode="&#x2d8;" 
d="M346 1516h137v-11q0 -62 35 -92.5t107 -30.5q77 0 127.5 32.5t83.5 101.5h143q-44 -153 -138.5 -230.5t-236.5 -77.5q-129 0 -194.5 66.5t-65.5 198.5q0 7 1 21t1 22z" />
    <glyph glyph-name="dotaccent" unicode="&#x2d9;" 
d="M471 1339q0 60 46 106t106 46q62 0 106.5 -45t44.5 -107q0 -65 -43 -108t-108 -43q-62 0 -107 44.5t-45 106.5z" />
    <glyph glyph-name="ring" unicode="&#x2da;" 
d="M524 1427q0 -51 35.5 -85.5t87.5 -34.5q53 0 88 34.5t35 85.5q0 52 -36 88.5t-87 36.5q-52 0 -87.5 -35.5t-35.5 -89.5zM377 1430q0 114 78.5 193t191.5 79q114 0 193.5 -79.5t79.5 -192.5q0 -114 -79.5 -192.5t-193.5 -78.5t-192 78t-78 193z" />
    <glyph glyph-name="ogonek" unicode="&#x2db;" 
d="M461 0q-65 -55 -92 -99.5t-27 -95.5q0 -34 19 -52.5t55 -18.5h116l-36 -201h-58q-156 0 -221 45.5t-65 151.5q0 75 47 140.5t147 129.5h115z" />
    <glyph glyph-name="tilde" unicode="&#x2dc;" 
d="M965 1516q-35 -133 -91.5 -194.5t-144.5 -61.5q-23 0 -45 3.5t-43 10.5l-63 20q-26 8 -39.5 10.5t-24.5 2.5q-38 0 -64 -25t-36 -72h-119q31 132 89.5 197.5t145.5 65.5q20 0 43.5 -4.5t49.5 -12.5l63 -20q17 -6 32.5 -9.5t22.5 -3.5q40 0 63.5 21.5t39.5 71.5h121z" />
    <glyph glyph-name="hungarumlaut" unicode="&#x2dd;" 
d="M659 1178l183 352h272l-321 -352h-134zM358 1178l138 352h262l-277 -352h-123z" />
    <glyph glyph-name="Omega" unicode="&#x3a9;" horiz-adv-x="1706" 
d="M1671 350v-350h-661v403q67 81 101 176.5t34 202.5q0 165 -80 263t-213 98t-212 -98t-79 -263q0 -107 34 -202.5t101 -176.5v-403h-661v350h371q-144 82 -215.5 209.5t-71.5 300.5q0 291 201.5 471t531.5 180t532.5 -180.5t202.5 -470.5q0 -173 -71.5 -300.5
t-215.5 -209.5h371z" />
    <glyph glyph-name="pi" unicode="&#x3c0;" horiz-adv-x="1716" 
d="M1661 846h-180l-119 -846h-418l119 846h-227l-119 -846h-418l119 846h-29q-32 0 -57.5 -37t-32.5 -96h-258q36 216 127.5 295t312.5 79h1221z" />
    <glyph glyph-name="endash" unicode="&#x2013;" 
d="M958 705l-79 -379h-906l80 379h905z" />
    <glyph glyph-name="emdash" unicode="&#x2014;" horiz-adv-x="2048" 
d="M-41 326l80 379h2048l-80 -379h-2048z" />
    <glyph glyph-name="quoteleft" unicode="&#x2018;" horiz-adv-x="702" 
d="M897 1464l-369 -714h-520l459 714h430z" />
    <glyph glyph-name="quoteright" unicode="&#x2019;" horiz-adv-x="702" 
d="M14 750l369 714h520l-461 -714h-428z" />
    <glyph glyph-name="quotesinglbase" unicode="&#x201a;" horiz-adv-x="702" 
d="M-276 -336l370 715h518l-458 -715h-430z" />
    <glyph glyph-name="quotedblleft" unicode="&#x201c;" horiz-adv-x="1341" 
d="M897 1464l-369 -714h-518l459 714h428zM1538 1464l-369 -714h-520l459 714h430z" />
    <glyph glyph-name="quotedblright" unicode="&#x201d;" horiz-adv-x="1341" 
d="M653 750l371 714h518l-459 -714h-430zM14 750l369 714h520l-461 -714h-428z" />
    <glyph glyph-name="quotedblbase" unicode="&#x201e;" horiz-adv-x="1341" 
d="M-276 -336l370 715h518l-458 -715h-430zM365 -336l368 715h520l-460 -715h-428z" />
    <glyph glyph-name="dagger" unicode="&#x2020;" horiz-adv-x="1327" 
d="M199 -449l217 1117h-322l84 426h322l69 366h480l-72 -366h305l-84 -426h-303l-217 -1117h-479z" />
    <glyph glyph-name="daggerdbl" unicode="&#x2021;" horiz-adv-x="1327" 
d="M244 -446l67 356h-342l74 379h342l90 463h-342l74 385h344l63 323h422l-63 -323h334l-76 -385h-332l-90 -463h334l-74 -379h-334l-69 -356h-422z" />
    <glyph glyph-name="bullet" unicode="&#x2022;" horiz-adv-x="1208" 
d="M307 762q0 123 87 209t210 86q122 0 208.5 -86.5t86.5 -208.5t-87.5 -209.5t-209.5 -87.5q-123 0 -209 87t-86 210z" />
    <glyph glyph-name="ellipsis" unicode="&#x2026;" horiz-adv-x="2048" 
d="M264 -29q-110 0 -188 72.5t-78 173.5q0 126 90 213.5t219 87.5q114 0 189.5 -72t75.5 -180q0 -118 -91.5 -206.5t-216.5 -88.5zM946 -29q-110 0 -188 72.5t-78 173.5q0 126 90 213.5t219 87.5q114 0 189.5 -72t75.5 -180q0 -118 -91.5 -206.5t-216.5 -88.5zM1630 -29
q-110 0 -188 72.5t-78 173.5q0 126 90 213.5t219 87.5q114 0 189.5 -72t75.5 -180q0 -118 -91.5 -206.5t-216.5 -88.5z" />
    <glyph glyph-name="perthousand" unicode="&#x2030;" horiz-adv-x="2595" 
d="M2114 182q44 0 77 76t33 180q0 44 -13 64t-40 20q-46 0 -79.5 -76t-33.5 -182q0 -41 14 -61.5t42 -20.5zM2519 414q0 -200 -116.5 -327.5t-299.5 -127.5q-155 0 -241 88t-86 248q0 195 118 319.5t301 124.5q149 0 236.5 -88t87.5 -237zM1280 182q44 0 77.5 76t33.5 180
q0 44 -13 64t-41 20q-46 0 -79 -76t-33 -182q0 -41 13.5 -61.5t41.5 -20.5zM1683 414q0 -200 -115.5 -327.5t-297.5 -127.5q-156 0 -242 88t-86 248q0 195 118 319.5t302 124.5q148 0 234.5 -87.5t86.5 -237.5zM428 928q44 0 76.5 74.5t32.5 179.5q0 44 -13.5 65t-40.5 21
q-46 0 -79 -76t-33 -182q0 -41 14.5 -61.5t42.5 -20.5zM817 1153q0 -200 -115.5 -326.5t-298.5 -126.5q-155 0 -241 88.5t-86 247.5q0 196 118 319.5t302 123.5q148 0 234.5 -88t86.5 -238zM340 -41l872 1520h201l-874 -1520h-199z" />
    <glyph glyph-name="guilsinglleft" unicode="&#x2039;" horiz-adv-x="645" 
d="M594 815l-256 -289l201 -315l-232 -158l-295 484l383 438z" />
    <glyph glyph-name="guilsinglright" unicode="&#x203a;" horiz-adv-x="645" 
d="M-31 213l256 287l-200 317l231 158l297 -483l-385 -439z" />
    <glyph glyph-name="franc" unicode="&#x20a3;" horiz-adv-x="2152" 
d="M0 0l270 1464h971l-74 -397h-434l-33 -176h414l-72 -385h-413l-94 -506h-535zM1155 0l193 1034h446l-35 -141q53 88 123 131t160 43q22 0 50.5 -4t68.5 -12l-78 -422q-51 17 -92 26t-74 9q-85 0 -127 -43.5t-63 -159.5l-84 -461h-488z" />
    <glyph glyph-name="trademark" unicode="&#x2122;" horiz-adv-x="1706" 
d="M1044 1468l99 -266l98 266h256v-559h-182v367l-137 -367h-70l-137 367v-367h-183v559h256zM690 1468v-151h-162v-408h-202v408h-162v151h526z" />
    <glyph glyph-name="partialdiff" unicode="&#x2202;" horiz-adv-x="1139" 
d="M770 715q25 127 35 210t10 150q0 105 -26.5 159t-77.5 54q-32 0 -57 -21t-52 -71q-44 -80 -91.5 -119t-100.5 -39q-62 0 -103 37.5t-41 95.5q0 87 102.5 148t249.5 61q224 0 352 -162.5t128 -449.5q0 -348 -167.5 -569.5t-432.5 -221.5q-215 0 -338 115.5t-123 317.5
q0 204 126 340.5t308 136.5q96 0 172 -43.5t127 -128.5zM694 553q0 114 -34 172.5t-99 58.5q-90 0 -150.5 -140.5t-60.5 -354.5q0 -115 34 -172.5t101 -57.5q90 0 149.5 140t59.5 354z" />
    <glyph glyph-name="Delta" unicode="&#x2206;" horiz-adv-x="1505" 
d="M958 309l-206 705l-207 -705h413zM991 1473l518 -1473h-1515l518 1473h479z" />
    <glyph glyph-name="product" unicode="&#x220f;" horiz-adv-x="1688" 
d="M139 1473h1399v-1866h-473v1474h-453v-1474h-473v1866z" />
    <glyph glyph-name="summation" unicode="&#x2211;" horiz-adv-x="1583" 
d="M80 1473h1368v-353h-778l559 -557l-541 -600h846v-356h-1475v200l664 738l-643 629v299z" />
    <glyph glyph-name="minus" unicode="&#x2212;" horiz-adv-x="1706" 
d="M1452 750v-277h-1198v277h1198z" />
    <glyph glyph-name="fraction" unicode="&#x2215;" horiz-adv-x="342" 
d="M-342 -39l803 1518h221l-803 -1518h-221z" />
    <glyph glyph-name="periodcentered" unicode="&#x2219;" horiz-adv-x="702" 
d="M332 446q-111 0 -187.5 71.5t-76.5 172.5q0 126 90 213.5t219 87.5q113 0 188.5 -72t75.5 -180q0 -117 -92 -205t-217 -88z" />
    <glyph glyph-name="radical" unicode="&#x221a;" horiz-adv-x="1395" 
d="M1399 1737v-172h-86l-588 -1606h-143l-301 827l-156 -59l-41 154l395 139l209 -600l483 1317h228z" />
    <glyph glyph-name="infinity" unicode="&#x221e;" horiz-adv-x="1706" 
d="M975 561q40 -57 95 -86t124 -29q84 0 137 43t53 109q0 65 -48 109.5t-117 44.5q-66 0 -122.5 -44t-121.5 -147zM731 653q-41 58 -95 86.5t-124 28.5q-84 0 -136 -43t-52 -111q0 -64 47.5 -107.5t117.5 -43.5q67 0 123 44t119 146zM856 791q69 128 149 190.5t175 62.5
q143 0 244.5 -126t101.5 -312q0 -194 -90.5 -315t-233.5 -121q-88 0 -164 53t-188 201q-67 -129 -146.5 -191.5t-175.5 -62.5q-144 0 -245 126t-101 312q0 195 89.5 315.5t232.5 120.5q85 0 161 -53t191 -200z" />
    <glyph glyph-name="integral" unicode="&#x222b;" horiz-adv-x="1331" 
d="M379 -244q28 0 54 42t42 114q19 92 26 385q4 185 9 293q23 515 144 742t368 227q118 0 190 -58.5t72 -150.5q0 -69 -46 -112.5t-116 -43.5q-67 0 -101 40.5t-34 119.5q0 2 1 10.5t1 15.5q0 26 -8.5 38t-26.5 12q-103 0 -126 -661q-2 -58 -3 -88q-11 -334 -36 -484.5
t-74 -266.5q-65 -150 -166.5 -226.5t-237.5 -76.5q-118 0 -189 57t-71 152q0 72 45 114t121 42q62 0 96.5 -37.5t34.5 -104.5q0 -12 -1 -30t-1 -23q0 -20 8.5 -30.5t24.5 -10.5z" />
    <glyph glyph-name="approxequal" unicode="&#x2248;" horiz-adv-x="1706" 
d="M1530 309q-106 -69 -195.5 -101t-177.5 -32q-87 0 -280 64.5t-316 64.5q-82 0 -172.5 -37t-210.5 -121v299q115 74 213 108t197 34q119 0 308.5 -64.5t268.5 -64.5q83 0 169 34.5t196 114.5v-299zM1530 774q-106 -70 -195 -101.5t-176 -31.5q-88 0 -281 64.5t-317 64.5
q-84 0 -173 -36t-210 -120v299q116 73 214 106.5t196 33.5q119 0 308.5 -63.5t268.5 -63.5q85 0 171.5 35t193.5 114v-301z" />
    <glyph glyph-name="notequal" unicode="&#x2260;" horiz-adv-x="1706" 
d="M1384 1116l-112 -139h180v-260h-358l-172 -211h530v-262h-704l-242 -299l-199 159l113 140h-166v262h340l170 211h-510v260h690l244 301z" />
    <glyph glyph-name="lessequal" unicode="&#x2264;" horiz-adv-x="1706" 
d="M1454 236v-271h-1200v271h1200zM1452 999l-704 -208l704 -209v-281l-1198 371v237l1198 373v-283z" />
    <glyph glyph-name="greaterequal" unicode="&#x2265;" horiz-adv-x="1706" 
d="M1454 236v-271h-1200v271h1200zM1452 909v-237l-1196 -371v281l705 209l-705 208v283z" />
    <glyph glyph-name="lozenge" unicode="&#x25ca;" horiz-adv-x="1012" 
d="M506 1409l-385 -821l385 -821l385 821zM506 1653l500 -1065l-500 -1065l-500 1065z" />
    <glyph glyph-name="apple" unicode="&#xf000;" horiz-adv-x="1618" 
d="M836 1216q-1 6 -1.5 14t-0.5 23q0 124 95 229.5t236 131.5q1 -10 1.5 -23t0.5 -39q0 -131 -103.5 -234.5t-203.5 -103.5h-8q-3 0 -7.5 1t-8.5 1zM1505 403q-114 -247 -205 -342.5t-204 -95.5q-50 0 -131.5 33t-122.5 33q-45 0 -131 -33t-127 -33q-64 0 -128.5 44
t-129.5 132q-102 140 -157.5 295.5t-55.5 300.5q0 219 125 356.5t323 137.5q68 0 155 -34t124 -34q34 0 121.5 34t152.5 34q111 0 199 -39.5t160 -122.5q-102 -65 -151.5 -145.5t-49.5 -182.5q0 -113 60 -200t173 -138z" />
    <glyph glyph-name="fi" unicode="&#xf001;" horiz-adv-x="1554" 
d="M49 0l123 664h-127l68 370h129q48 284 169.5 412.5t340.5 128.5q58 0 118 -11t123 -32l-71 -389q-32 16 -57.5 24.5t-45.5 8.5q-46 0 -69.5 -33.5t-28.5 -107.5l180 -1l-70 -370h-178l-123 -664h-481zM813 0l193 1034h487l-193 -1034h-487zM1278 1087q-110 0 -183 67.5
t-73 166.5q0 107 86 184.5t207 77.5q110 0 184 -66.5t74 -166.5q0 -107 -87 -185t-208 -78z" />
    <glyph glyph-name="fi" unicode="&#xfb01;" horiz-adv-x="1554" 
d="M49 0l123 664h-127l68 370h129q48 284 169.5 412.5t340.5 128.5q58 0 118 -11t123 -32l-71 -389q-32 16 -57.5 24.5t-45.5 8.5q-46 0 -69.5 -33.5t-28.5 -107.5l180 -1l-70 -370h-178l-123 -664h-481zM813 0l193 1034h487l-193 -1034h-487zM1278 1087q-110 0 -183 67.5
t-73 166.5q0 107 86 184.5t207 77.5q110 0 184 -66.5t74 -166.5q0 -107 -87 -185t-208 -78z" />
    <glyph glyph-name="fl" unicode="&#xf002;" horiz-adv-x="1554" 
d="M1296 0h-483l289 1550h481zM49 0l123 664h-127l68 370h129q48 284 169.5 412.5t340.5 128.5q58 0 118 -11t123 -32l-71 -389q-32 16 -57.5 24.5t-45.5 8.5q-46 0 -69.5 -33.5t-28.5 -107.5l180 -1l-70 -370h-178l-123 -664h-481z" />
    <glyph glyph-name="fl" unicode="&#xfb02;" horiz-adv-x="1554" 
d="M1296 0h-483l289 1550h481zM49 0l123 664h-127l68 370h129q48 284 169.5 412.5t340.5 128.5q58 0 118 -11t123 -32l-71 -389q-32 16 -57.5 24.5t-45.5 8.5q-46 0 -69.5 -33.5t-28.5 -107.5l180 -1l-70 -370h-178l-123 -664h-481z" />
    </font>
</defs>
</svg>
